<svg width="40px" height="34px" viewBox="0 0 40 34" version="1.1" xmlns="http://www.w3.org/2000/svg" xmlns:xlink="http://www.w3.org/1999/xlink">
    <!-- Generator: Sketch 48.1 (47250) - http://www.bohemiancoding.com/sketch -->
    <desc>Created with Sketch.</desc>
    <defs></defs>
    <g id="Extras" stroke="none" stroke-width="1" fill="none" fill-rule="evenodd">
        <g id="icebreaker-overlay" transform="translate(-232.000000, -182.000000)">
            <g id="Group-13">
                <g id="Group-11" transform="translate(41.000000, 40.000000)">
                    <g id="Group-8" transform="translate(0.000000, 139.000000)">
                        <g id="heart4" transform="translate(191.000000, 0.000000)">
                            <rect id="Rectangle" x="0" y="0" width="40" height="40"></rect>
                            <g id="#f6bec1ff" transform="translate(0.000000, 3.000000)" fill="#F6BEC1" fill-rule="nonzero">
                                <path d="M3.36393443,3.37704918 C7.2,-0.340983607 13.8163934,-0.704918033 17.957377,2.71147541 C18.757377,3.40655738 19.4590164,4.20655738 20.0229508,5.10163934 C22.3803279,1.21639344 27.3868852,-0.46557377 31.7016393,0.681967213 C33.4721311,2.01639344 35.0721311,3.71147541 35.7672131,5.85901639 C36.4622951,7.91147541 36.5213115,10.1868852 35.8622951,12.2557377 C34.9672131,15.1967213 33.147541,17.7311475 31.2557377,20.1114754 C28.3409836,23.7311475 24.9278689,26.8983607 21.5442623,30.0655738 C20.9672131,30.5508197 20.3147541,31.2295082 19.4852459,31.0327869 C17.9114754,30.6852459 16.7114754,29.4491803 15.1114754,29.1606557 C11.5836066,26.2622951 7.98360656,23.3934426 4.81311475,20.0852459 C2.75081967,17.8655738 0.878688525,15.2459016 0.449180328,12.1704918 C-0.0590163934,8.99672131 1,5.58688525 3.36393443,3.37704918 Z M22.2754098,4.91803279 C23.557377,4.22622951 24.8459016,3.29180328 25.5967213,2.03278689 C23.9934426,1.88196721 21.8262295,3.04590164 22.2754098,4.91803279 Z M4.44262295,4.12786885 C3.47213115,4.97704918 3.14754098,6.27868852 3.33770492,7.52131148 C3.76721311,7.4852459 4.23278689,7.52131148 4.58688525,7.22622951 C5.92459016,6.29508197 7.07540984,5.12459016 8.31147541,4.06557377 C8.87213115,3.54754098 9.55737705,3.10163934 9.8557377,2.36393443 C7.91147541,1.98688525 5.87868852,2.84590164 4.44262295,4.12786885 Z M6.38688525,8.97377049 C5.03278689,11.5311475 5.46885246,14.7704918 7.15409836,17.0688525 C9.41639344,20.147541 12.504918,22.4590164 15.4065574,24.8918033 C15.9836066,25.3442623 16.4459016,26.0131148 17.1508197,26.2721311 C18.0754098,27.0688525 19.052459,27.8032787 19.9967213,28.5704918 C24.1213115,25.1606557 28.6131148,22.1081967 32.1377049,18.042623 C33.9704918,15.9967213 34.9409836,13.1114754 34.2065574,10.4065574 C33.6131148,7.99672131 31.6131148,6.13442623 29.304918,5.34754098 L29.2786885,5.27540984 C25.9704918,4.35737705 21.8786885,5.21639344 20.0655738,8.35737705 C19.5114754,7.58360656 18.9081967,6.82622951 18.104918,6.29836066 C14.3770492,3.74754098 8.5147541,4.86557377 6.38688525,8.97377049 Z" id="Shape"></path>
                            </g>
                            <g id="#f89987ff" transform="translate(7.213115, 3.655738)" fill="#F89987" fill-rule="nonzero">
                                <path d="M24.4885246,0.0262295082 C27.6721311,0.695081967 30.5016393,2.98360656 31.7409836,6.00327869 C32.5901639,7.90819672 32.6163934,10.0754098 32.304918,12.1016393 C31.3967213,16.3836066 28.0852459,19.5147541 25.0163934,22.3868852 C21.0721311,25.9278689 16.8721311,29.1704918 12.7803279,32.5344262 C11.1672131,31.1704918 9.46557377,29.9180328 7.89836066,28.504918 C9.49836066,28.7934426 10.6983607,30.0295082 12.2721311,30.3770492 C13.1016393,30.5737705 13.7540984,29.895082 14.3311475,29.4098361 C17.7147541,26.242623 21.1278689,23.0754098 24.042623,19.4557377 C25.9344262,17.0754098 27.7540984,14.5409836 28.6491803,11.6 C29.3081967,9.53114754 29.2491803,7.2557377 28.5540984,5.20327869 C27.8590164,3.0557377 26.2590164,1.36065574 24.4885246,0.0262295082 Z" id="Shape"></path>
                                <path d="M0.0459016393,9.83278689 C-0.291803279,7.17377049 2.7442623,5.72131148 5.00327869,5.84590164 L5,6.20983607 C4.27540984,7.04262295 3.35737705,7.6852459 2.56065574,8.44262295 C1.81967213,9.04918033 1.10491803,9.93114754 0.0459016393,9.83278689 Z" id="Shape"></path>
                            </g>
                            <g id="#fde0daff" transform="translate(3.278689, 4.967213)" fill="#FDE0DA" fill-rule="nonzero">
                                <path d="M18.9967213,2.95081967 C18.547541,1.07868852 20.7147541,-0.0852459016 22.3180328,0.0655737705 C21.5672131,1.32459016 20.2786885,2.25901639 18.9967213,2.95081967 Z" id="Shape"></path>
                                <path d="M1.16393443,2.16065574 C2.6,0.878688525 4.63278689,0.0196721311 6.57704918,0.396721311 C6.27868852,1.13442623 5.59344262,1.58032787 5.03278689,2.09836066 C3.79672131,3.15737705 2.64590164,4.32786885 1.30819672,5.25901639 C0.954098361,5.55409836 0.48852459,5.51803279 0.0590163934,5.55409836 C-0.131147541,4.31147541 0.193442623,3.00983607 1.16393443,2.16065574 Z" id="Shape"></path>
                            </g>
                            <g id="#f46c60ff" transform="translate(5.573770, 7.918033)" fill="#F46C60" fill-rule="nonzero">
                                <path d="M0.813114754,4.0557377 C2.94098361,-0.0524590164 8.80327869,-1.1704918 12.5311475,1.38032787 C12.8688525,2.4 13.4229508,3.32131148 14.0131148,4.21311475 C14.1704918,3.95409836 14.3311475,3.69836066 14.4918033,3.43934426 C16.304918,0.298360656 20.3967213,-0.560655738 23.704918,0.357377049 L23.7311475,0.429508197 C23.9967213,1.30819672 24.8229508,1.82295082 25.2918033,2.57377049 C26.7704918,4.78688525 26.695082,7.76721311 25.4622951,10.0754098 C23.2786885,14.3377049 19.642623,17.5737705 16.2065574,20.8098361 C15.6360656,21.304918 15.095082,21.895082 14.3704918,22.157377 C13.4196721,21.9672131 12.5639344,21.4196721 11.5770492,21.3540984 C10.8721311,21.095082 10.4098361,20.4262295 9.83278689,19.9737705 C6.93114754,17.5409836 3.84262295,15.2295082 1.58032787,12.1508197 C-0.104918033,9.85245902 -0.540983607,6.61311475 0.813114754,4.0557377 Z M1.6852459,5.5704918 C2.7442623,5.66885246 3.45901639,4.78688525 4.2,4.18032787 C4.99672131,3.42295082 5.9147541,2.78032787 6.63934426,1.94754098 L6.64262295,1.58360656 C4.38360656,1.45901639 1.34754098,2.91147541 1.6852459,5.5704918 Z M6.1147541,5.11803279 C4.20983607,6.86557377 4.1704918,9.98360656 5.66885246,12.0065574 C7.62295082,14.7311475 10.4262295,16.6852459 12.9377049,18.8459016 C13.4295082,19.252459 13.9278689,19.6590164 14.4262295,20.0590164 C16.9409836,17.9704918 19.6032787,16.0327869 21.8852459,13.6819672 C23.2098361,12.3016393 24.4360656,10.5377049 24.2721311,8.53114754 C24.295082,6.5704918 22.947541,4.73770492 21.1311475,4.04590164 L21.104918,3.9704918 C19.2229508,3.35737705 17.0163934,3.49836066 15.452459,4.80655738 L15.3508197,4.81639344 C15.347541,4.84918033 15.3409836,4.9147541 15.3377049,4.94754098 C15.1213115,5.18360656 14.6819672,5.64918033 14.4655738,5.8852459 C12.6557377,3.18032787 8.40983607,2.87868852 6.1147541,5.11803279 Z" id="Shape"></path>
                            </g>
                            <g id="#e03636ff" transform="translate(17.049180, 8.245902)" fill="#E03636" fill-rule="nonzero">
                                <path d="M13.8163934,2.24590164 C13.347541,1.49508197 12.5213115,0.980327869 12.2557377,0.101639344 C14.5639344,0.88852459 16.5639344,2.75081967 17.157377,5.16065574 C17.8918033,7.86557377 16.9213115,10.7508197 15.0885246,12.7967213 C11.5639344,16.8622951 7.07213115,19.9147541 2.94754098,23.3245902 C2.00327869,22.557377 1.02622951,21.8229508 0.101639344,21.0262295 C1.08852459,21.0918033 1.9442623,21.6393443 2.89508197,21.8295082 C3.61967213,21.5672131 4.16065574,20.9770492 4.73114754,20.4819672 C8.16721311,17.2459016 11.8032787,14.0098361 13.9868852,9.74754098 C15.2196721,7.43934426 15.295082,4.45901639 13.8163934,2.24590164 Z" id="Shape"></path>
                            </g>
                            <g id="#e64a47ff" transform="translate(18.032787, 9.229508)" fill="#E64A47" fill-rule="nonzero">
                                <path d="M1.55409836,2.90163934 C0.963934426,2.00983607 0.409836066,1.08852459 0.0721311475,0.068852459 C0.875409836,0.596721311 1.47868852,1.35409836 2.03278689,2.12786885 C1.87213115,2.38688525 1.71147541,2.64262295 1.55409836,2.90163934 Z" id="Shape"></path>
                            </g>
                            <g id="#b00505ff" transform="translate(10.163934, 11.524590)" fill="#B00505" fill-rule="nonzero">
                                <path d="M1.52459016,1.51147541 C3.81967213,-0.727868852 8.06557377,-0.426229508 9.87540984,2.27868852 C10.0918033,2.04262295 10.5311475,1.57704918 10.747541,1.34098361 C10.7147541,1.89180328 10.6885246,2.44590164 10.6786885,2.99672131 C11.8557377,2.57704918 12.6983607,1.62295082 13.4655738,0.681967213 C12.6065574,0.88852459 11.7508197,1.13442623 10.8622951,1.2 C12.4262295,-0.108196721 14.6327869,-0.249180328 16.5147541,0.363934426 L16.5409836,0.439344262 C16.9016393,1.66229508 17.957377,2.61639344 17.9868852,3.94754098 C18.157377,6.1147541 16.8885246,8.04918033 15.6131148,9.6852459 C14.0852459,11.5508197 12.3016393,13.1868852 10.5770492,14.8622951 C10.0065574,15.5016393 9.09508197,15.2622951 8.34754098,15.2393443 C5.83606557,13.0786885 3.03278689,11.1245902 1.07868852,8.4 C-0.419672131,6.37704918 -0.380327869,3.25901639 1.52459016,1.51147541 Z M1.22295082,4.72131148 C2.09836066,4.57377049 2.72786885,3.92131148 3.3704918,3.3704918 C4.22622951,2.6 5.12131148,1.86885246 5.89836066,1.01639344 C3.75737705,0.485245902 0.655737705,2.21639344 1.22295082,4.72131148 Z" id="Shape"></path>
                            </g>
                            <g id="#e81c27ff" transform="translate(11.147541, 12.180328)" fill="#E81C27" fill-rule="nonzero">
                                <path d="M9.87868852,0.544262295 C10.7672131,0.478688525 11.6229508,0.232786885 12.4819672,0.0262295082 C11.7147541,0.967213115 10.8721311,1.92131148 9.69508197,2.34098361 C9.70491803,1.79016393 9.73114754,1.23606557 9.76393443,0.685245902 C9.76721311,0.652459016 9.77377049,0.586885246 9.77704918,0.554098361 L9.87868852,0.544262295 Z" id="Shape"></path>
                                <path d="M0.239344262,4.06557377 C-0.327868852,1.56065574 2.77377049,-0.170491803 4.9147541,0.360655738 C4.13770492,1.21311475 3.24262295,1.9442623 2.38688525,2.7147541 C1.7442623,3.26557377 1.1147541,3.91803279 0.239344262,4.06557377 Z" id="Shape"></path>
                            </g>
                            <g id="#8c0505ff" transform="translate(18.360656, 11.852459)" fill="#8C0505" fill-rule="nonzero">
                                <path d="M9.79016393,3.61967213 C9.76065574,2.28852459 8.70491803,1.33442623 8.3442623,0.11147541 C10.1606557,0.803278689 11.5081967,2.63606557 11.4852459,4.59672131 C11.6491803,6.60327869 10.4229508,8.36721311 9.09836066,9.74754098 C6.81639344,12.0983607 4.15409836,14.0360656 1.63934426,16.1245902 C1.14098361,15.7245902 0.642622951,15.3180328 0.150819672,14.9114754 C0.898360656,14.9344262 1.80983607,15.1737705 2.38032787,14.5344262 C4.10491803,12.8590164 5.88852459,11.2229508 7.41639344,9.35737705 C8.69180328,7.72131148 9.96065574,5.78688525 9.79016393,3.61967213 Z" id="Shape"></path>
                            </g>
                        </g>
                    </g>
                </g>
            </g>
        </g>
    </g>
</svg>
