<svg width="40px" height="40px" viewBox="0 0 40 40" version="1.1" xmlns="http://www.w3.org/2000/svg" xmlns:xlink="http://www.w3.org/1999/xlink">
    <!-- Generator: Sketch 48.1 (47250) - http://www.bohemiancoding.com/sketch -->
    <desc>Created with Sketch.</desc>
    <defs></defs>
    <g id="Extras" stroke="none" stroke-width="1" fill="none" fill-rule="evenodd">
        <g id="icebreaker-overlay" transform="translate(-168.000000, -48.000000)" fill-rule="nonzero">
            <g id="Group-13">
                <g id="Group-11" transform="translate(41.000000, 40.000000)">
                    <g id="Group-10">
                        <g id="Group-5" transform="translate(0.000000, 8.000000)">
                            <g id="face1" transform="translate(127.000000, 0.000000)">
                                <g id="#fdca47ff" fill="#FDCA47">
                                    <path d="M7.26280992,4.48595041 C10.0330579,2.27107438 13.368595,0.727272727 16.892562,0.241322314 C22.3570248,-0.628099174 28.1157025,0.988429752 32.3933884,4.47933884 C31.7123967,4.72066116 31.153719,5.18677686 30.6280992,5.6661157 C29.5768595,3.32892562 26.7768595,2.16859504 24.3471074,2.77355372 C22.5884298,3.25950413 21.0710744,4.7107438 20.7636364,6.54545455 C20.3603306,7.9107438 20.7933884,9.3553719 21.3752066,10.6049587 C22.7867769,13.1768595 24.8165289,15.3256198 26.7239669,17.5338843 C27.246281,18.138843 27.6991736,18.8528926 28.3768595,19.2958678 C29.0809917,18.7900826 29.877686,18.4363636 30.6247934,18.0033058 C33.2396694,16.3239669 36.2578512,15.0942149 38.3239669,12.7008264 C38.092562,13.4413223 37.2958678,14.0264463 37.4512397,14.8561983 C38.0231405,18.7801653 37.4512397,22.8793388 35.7123967,26.4495868 C33.385124,31.3090909 28.9950413,35.1371901 23.8512397,36.7438017 C18.9322314,38.307438 13.3884298,37.8942149 8.81322314,35.477686 C8.00661157,35.0644628 7.24958678,34.4958678 6.32066116,34.3801653 C0.499173554,29.0247934 -1.6231405,20.046281 1.34876033,12.7008264 C3.40826446,15.1041322 6.44628099,16.3305785 9.06115702,18.0132231 C9.8214876,18.446281 10.6181818,18.8099174 11.3322314,19.3190083 C13.3719008,17.1404959 15.3322314,14.8694215 17.1272727,12.4793388 C18.3404959,10.7933884 19.4710744,8.67438017 18.9024793,6.54214876 C18.5884298,4.78016529 17.1603306,3.23636364 15.3983471,2.86280992 L15.477686,2.69752066 C15.6099174,2.51900826 15.8677686,2.16198347 15.9966942,1.98347107 C14.631405,1.95041322 13.1338843,2.13884298 12.0066116,2.9785124 C11.7355372,3.10413223 11.4644628,3.22644628 11.1900826,3.33553719 C9.98677686,3.3785124 9.08099174,4.29421488 8.09586777,4.87933884 C7.88760331,4.78016529 7.47107438,4.58181818 7.26280992,4.48595041 Z M13.7289256,21.4380165 C12.0165289,21.6099174 10.3008264,21.8181818 8.61157025,22.1586777 C7.95371901,22.2677686 7.3785124,22.7834711 7.27933884,23.4545455 C7.20330579,26.4033058 8.4892562,29.3520661 10.707438,31.2958678 C13.0049587,33.3652893 16.1355372,34.2644628 19.1768595,34.3570248 C22.4958678,34.4793388 26.0033058,33.738843 28.614876,31.5900826 C31.0479339,29.646281 32.4793388,26.538843 32.3900826,23.4247934 C32.2380165,22.6578512 31.5338843,22.1652893 30.7834711,22.0991736 C25.1636364,21.0909091 19.4115702,20.9586777 13.7289256,21.4380165 Z" id="Shape"></path>
                                </g>
                                <g id="#fdd59aff" transform="translate(11.900826, 1.652893)" fill="#FDD59A">
                                    <path d="M0.105785124,1.32561983 C1.23305785,0.485950413 2.73057851,0.297520661 4.09586777,0.330578512 C3.96694215,0.509090909 3.70909091,0.866115702 3.5768595,1.0446281 C2.41652893,0.948760331 1.2231405,0.938842975 0.105785124,1.32561983 Z" id="Shape"></path>
                                </g>
                                <g id="#e81c27ff" transform="translate(0.000000, 2.314050)" fill="#E81C27">
                                    <path d="M12.0066116,0.66446281 C13.1239669,0.27768595 14.3173554,0.287603306 15.477686,0.383471074 L15.3983471,0.548760331 L15.2958678,0.783471074 C16.214876,1.89752066 17.2991736,3.05785124 17.2628099,4.61818182 C17.2429752,7.60330579 15.4710744,10.1950413 13.8545455,12.5719008 C13.0512397,13.6330579 12.3471074,14.7801653 11.4413223,15.7619835 C10.6512397,15.861157 9.85454545,15.7157025 9.06115702,15.6991736 C6.44628099,14.0165289 3.40826446,12.7900826 1.34876033,10.3867769 C0.12231405,8.91239669 -0.41322314,6.79338843 0.376859504,4.98842975 C1.45454545,2.41983471 4.69752066,1.19669421 7.26280992,2.17190083 C7.47107438,2.2677686 7.88760331,2.4661157 8.09586777,2.56528926 C8.42975207,2.84958678 8.75041322,3.15041322 9.10413223,3.41157025 C9.49090909,2.39008264 10.2842975,1.60330579 11.1900826,1.0214876 C11.4644628,0.912396694 11.7355372,0.790082645 12.0066116,0.66446281 Z M9.94049587,3.95371901 C10.9818182,3.3553719 11.5966942,2.25123967 12.2677686,1.29586115 C10.9619835,1.29256198 9.39834711,2.52892562 9.94049587,3.95371901 Z M1.17024793,5.08099174 C0.909090909,5.68264463 0.750413223,6.67768595 1.36859504,7.08760331 C2.49586777,6.45950413 3.10413223,5.25289256 3.93057851,4.30743802 C4.27768595,3.78512397 4.8892562,3.37520661 4.92231405,2.70082645 C3.39173554,2.83305785 1.92727273,3.73884298 1.17024793,5.08099174 Z" id="Shape"></path>
                                    <path d="M24.3471074,0.459504132 C26.7768595,-0.145454545 29.5768595,1.01487603 30.6280992,3.35206612 C31.153719,2.87272727 31.7123967,2.40661157 32.3933884,2.16528926 C34.8892562,1.23636364 38.0198347,2.33057851 39.1900826,4.76694215 C40.1190083,6.60165289 39.6,8.85289256 38.3239669,10.3867769 C36.2578512,12.7801653 33.2396694,14.0099174 30.6247934,15.6892562 C29.6859504,15.6033058 28.353719,16.2677686 27.768595,15.2198347 C25.8909091,12.7239669 23.9404959,10.1983471 22.8528926,7.23636364 C22.2677686,5.6661157 22.1586777,3.76859504 23.1305785,2.32396694 C23.5239669,1.69586777 24.2975207,1.26280992 24.3471074,0.459504132 Z M27.4049587,1.30578512 C28.0661157,2.27438017 28.7173554,3.31570248 29.7024793,3.99338843 C30.3107438,2.57190083 28.7173554,1.28264463 27.4049587,1.30578512 Z M34.7173554,2.71735537 C34.846281,3.43801653 35.4809917,3.89421488 35.8710744,4.47272727 C36.6578512,5.38181818 37.246281,6.55206612 38.3603306,7.10743802 C38.9024793,6.51900826 38.7801653,5.56033058 38.4066116,4.90909091 C37.5966942,3.67933884 36.2082645,2.7768595 34.7173554,2.71735537 Z" id="Shape"></path>
                                </g>
                                <g id="#c21413ff" transform="translate(8.925620, 2.644628)" fill="#C21413">
                                    <path d="M6.37024793,0.452892562 L6.47272727,0.218181818 C8.23471074,0.591735537 9.66280992,2.13553719 9.9768595,3.89752066 C10.5454545,6.02975207 9.41487603,8.14876033 8.20165289,9.83471074 C6.40661157,12.2247934 4.44628099,14.4958678 2.40661157,16.6743802 C1.69256198,16.1652893 0.895867769,15.8016529 0.13553719,15.368595 C0.92892562,15.385124 1.72561983,15.5305785 2.51570248,15.431405 C3.4214876,14.4495868 4.12561983,13.3024793 4.92892562,12.2413223 C6.54545455,9.86446281 8.31735537,7.27272727 8.33719008,4.28760331 C8.37355372,2.72727273 7.2892562,1.56694215 6.37024793,0.452892562 Z" id="Shape"></path>
                                    <path d="M11.8380165,3.90082645 C12.1454545,2.0661157 13.6628099,0.614876033 15.4214876,0.12892562 C15.3719008,0.932231405 14.5983471,1.36528926 14.2049587,1.99338843 C13.2330579,3.43801653 13.3421488,5.33553719 13.9272727,6.90578512 C15.014876,9.8677686 16.9652893,12.3933884 18.8429752,14.8892562 C19.4280992,15.9371901 20.7603306,15.2727273 21.6991736,15.3586777 C20.9520661,15.7917355 20.1553719,16.1454545 19.4512397,16.6512397 C18.7735537,16.2082645 18.3206612,15.4942149 17.7983471,14.8892562 C15.8909091,12.6809917 13.861157,10.5322314 12.4495868,7.96033058 C11.8677686,6.7107438 11.4347107,5.2661157 11.8380165,3.90082645 Z" id="Shape"></path>
                                </g>
                                <g id="#fdd2a1ff" transform="translate(7.933884, 3.305785)" fill="#FDD2A1">
                                    <path d="M0.161983471,1.57355372 C1.14710744,0.988429752 2.05289256,0.0727272727 3.25619835,0.0297520661 C2.35041322,0.611570248 1.55702479,1.39834711 1.17024793,2.41983471 C0.816528926,2.15867769 0.495867769,1.85785124 0.161983471,1.57355372 Z" id="Shape"></path>
                                </g>
                                <g id="#f36259ff" transform="translate(9.586777, 3.305785)" fill="#F36259">
                                    <path d="M0.353719008,2.96198347 C-0.188429752,1.53719008 1.37520661,0.300826446 2.68099174,0.304125617 C2.00991736,1.25950413 1.39504132,2.36363636 0.353719008,2.96198347 Z" id="Shape"></path>
                                </g>
                                <g id="#f3635aff" transform="translate(27.107438, 3.305785)" fill="#F3635A">
                                    <path d="M0.297520661,0.314049587 C1.60991736,0.290909091 3.20330579,1.58016529 2.59504132,3.00165289 C1.60991736,2.32396694 0.958677686,1.28264463 0.297520661,0.314049587 Z" id="Shape"></path>
                                </g>
                                <g id="#f46c60ff" transform="translate(0.661157, 4.958678)" fill="#F46C60">
                                    <path d="M0.509090909,2.43636364 C1.2661157,1.09421488 2.73057851,0.188429752 4.26115702,0.0561983471 C4.22809917,0.730578512 3.61652893,1.14049587 3.26942149,1.66280992 C2.44297521,2.60826446 1.83471074,3.81487603 0.707438017,4.44297521 C0.0892561983,4.03305785 0.247933884,3.03801653 0.509090909,2.43636364 Z" id="Shape"></path>
                                    <path d="M34.0561983,0.0727272727 C35.5471074,0.132231405 36.9355372,1.03471074 37.7454545,2.26446281 C38.1190083,2.91570248 38.2413223,3.87438017 37.6991736,4.46280992 C36.585124,3.90743802 35.9966942,2.73719008 35.2099174,1.82809917 C34.8198347,1.24958678 34.185124,0.79338843 34.0561983,0.0727272727 Z" id="Shape"></path>
                                    <path d="M16.2710744,25.953719 C18.185124,25.5239669 20.1818182,25.5239669 22.0958678,25.9603306 C22.9024793,26.1785124 23.6991736,26.4495868 24.4429752,26.8396694 C21.1305785,28.2876033 17.2198347,28.2876033 13.907438,26.8429752 C14.6545455,26.446281 15.4578512,26.1719008 16.2710744,25.953719 Z" id="Shape"></path>
                                </g>
                                <g id="#f9b700ff" transform="translate(6.280992, 12.561983)" fill="#F9B700">
                                    <path d="M32.0429752,0.138842975 C33.2396694,2.73057851 33.4975207,5.72892562 33.3785124,8.59504132 C33.0842975,13.8115702 30.5619835,18.8528926 26.585124,22.2743802 C23.0016529,25.4016529 18.2909091,27.2165289 13.5338843,27.107438 C8.5785124,27.2066116 3.64958678,25.2231405 0.0396694215,21.8181818 C0.968595041,21.9338843 1.72561983,22.5024793 2.5322314,22.9157025 C7.10743802,25.3322314 12.6512397,25.7454545 17.5702479,24.1818182 C22.7140496,22.5752066 27.1041322,18.7471074 29.431405,13.8876033 C31.1702479,10.3173554 31.7421488,6.21818182 31.1702479,2.29421488 C31.014876,1.46446281 31.8115702,0.879338843 32.0429752,0.138842975 Z" id="Shape"></path>
                                </g>
                                <g id="#302c3bff" transform="translate(7.272727, 21.157025)" fill="#302C3B">
                                    <path d="M6.45619835,0.280991736 C12.138843,-0.198347107 17.8909091,-0.0661157025 23.5107438,0.94214876 C24.261157,1.00826446 24.9652893,1.50082645 25.1173554,2.2677686 C25.2066116,5.38181818 23.7752066,8.4892562 21.3421488,10.4330579 C18.7305785,12.5818182 15.2231405,13.322314 11.9041322,13.2 C8.86280992,13.107438 5.7322314,12.2082645 3.43471074,10.138843 C1.21652893,8.19504132 -0.0694214876,5.24628099 0.00661157025,2.29752066 C0.105785124,1.62644628 0.680991736,1.1107438 1.33884298,1.00165289 C3.02809917,0.661157025 4.74380165,0.452892562 6.45619835,0.280991736 Z M2.65454545,2.73719008 C1.49421488,2.95206612 2.14214876,4.45619835 2.39338843,5.16363636 C5.10743802,5.4446281 7.87768595,5.18016529 10.6115702,5.29917355 C9.70909091,5.92396694 8.50247934,6.67107438 8.59173554,7.92727273 C8.63140496,8.60165289 8.79008264,9.74214876 9.65950413,9.7553719 C8.84628099,9.97355372 8.04297521,10.2479339 7.29586777,10.6446281 C10.6082645,12.0892562 14.5190083,12.0892562 17.831405,10.6413223 C17.0876033,10.2512397 16.2909091,9.98016529 15.4842975,9.76198347 C16.214876,9.74545455 16.3933884,8.8661157 16.5024793,8.29752066 C16.7933884,6.90578512 15.5504132,5.93057851 14.5057851,5.29917355 C17.2429752,5.18016529 20.0165289,5.44793388 22.7338843,5.16033058 C22.9553719,4.44297521 23.6429752,2.96528926 22.4793388,2.74049587 C15.9239669,1.73884298 9.20991736,1.74214876 2.65454545,2.73719008 Z" id="Shape"></path>
                                    <path d="M11.9966942,5.27933884 C12.3702479,5.27933884 12.7471074,5.27933884 13.1206612,5.27933884 C12.8198347,6.26446281 13.4909091,7.08429752 13.8181818,7.95702479 C13.7487603,9.34545455 11.368595,9.30247934 11.322314,7.95041322 C11.6330579,7.07438017 12.3140496,6.26115702 11.9966942,5.27933884 Z" id="Shape"></path>
                                </g>
                                <g id="#ffffffff" transform="translate(9.256198, 23.140496)" fill="#FFFFFF">
                                    <path d="M0.67107438,0.753719008 C7.22644628,-0.241322314 13.9404959,-0.244628099 20.4958678,0.757024793 C21.6595041,0.981818182 20.9719008,2.45950413 20.7504132,3.1768595 C18.0330579,3.46446281 15.2595041,3.19669421 12.522314,3.31570248 C12.0595041,3.29917355 11.6,3.29256198 11.1371901,3.29586777 C10.7636364,3.29586777 10.3867769,3.29586777 10.0132231,3.29586777 C9.55041322,3.29256198 9.08760331,3.29917355 8.62809917,3.31570248 C5.89421488,3.19669421 3.12396694,3.46115702 0.409917355,3.18016529 C0.158677686,2.47272727 -0.489256198,0.968595041 0.67107438,0.753719008 Z" id="Shape"></path>
                                </g>
                                <g id="#1a1626ff" transform="translate(15.537190, 26.115702)" fill="#1A1626">
                                    <path d="M2.34710744,0.340495868 C2.80661157,0.323966942 3.26942149,0.317355372 3.7322314,0.320661157 C4.04958678,1.30247934 3.36859504,2.11570248 3.05785124,2.99173554 C3.10413223,4.34380165 5.48429752,4.38677686 5.55371901,2.99834711 C5.22644628,2.12561983 4.5553719,1.30578512 4.85619835,0.320661157 C5.31900826,0.317355372 5.7785124,0.323966942 6.24132231,0.340495868 C7.28595041,0.971900826 8.52892562,1.94710744 8.23801653,3.33884298 C8.12892562,3.90743802 7.95041322,4.78677686 7.21983471,4.80330579 C5.30578512,4.36694215 3.30909091,4.36694215 1.39504132,4.79669421 C0.525619835,4.78347107 0.366942149,3.64297521 0.327272727,2.96859504 C0.238016529,1.71239669 1.4446281,0.965289256 2.34710744,0.340495868 Z" id="Shape"></path>
                                </g>
                            </g>
                        </g>
                    </g>
                </g>
            </g>
        </g>
    </g>
</svg>
