<svg width="40px" height="40px" viewBox="0 0 40 40" version="1.1" xmlns="http://www.w3.org/2000/svg" xmlns:xlink="http://www.w3.org/1999/xlink">
    <!-- Generator: Sketch 48.1 (47250) - http://www.bohemiancoding.com/sketch -->
    <desc>Created with Sketch.</desc>
    <defs></defs>
    <g id="Extras" stroke="none" stroke-width="1" fill="none" fill-rule="evenodd">
        <g id="icebreaker-overlay" transform="translate(-105.000000, -48.000000)" fill-rule="nonzero">
            <g id="Group-13">
                <g id="Group-11" transform="translate(41.000000, 40.000000)">
                    <g id="Group-10">
                        <g id="Group-5" transform="translate(0.000000, 8.000000)">
                            <g id="face2" transform="translate(64.000000, 0.000000)">
                                <g id="#fdca47ff" fill="#FDCA47">
                                    <path d="M4.70743802,7.02479339 C8.18842975,2.88264463 13.4280992,0.274380165 18.8363636,0.0396694215 C24.568595,-0.284297521 30.4099174,2.0661157 34.2942149,6.27768595 C34.8859504,7.95702479 35.9305785,9.42809917 36.4958678,11.1173554 C38.1123967,15.5371901 38.0429752,20.522314 36.3735537,24.9190083 C35.5272727,24.8826446 34.677686,24.9818182 33.861157,25.2099174 C33.553719,25.4347107 33.2595041,25.6760331 32.9785124,25.9305785 C32.846281,26.0760331 32.585124,26.3669421 32.4528926,26.5123967 C31.0347107,24.7371901 28.2280992,24.3404959 26.4661157,25.8280992 C25.2793388,26.7140496 24.9983471,28.2677686 25.1801653,29.6595041 C25.1603306,30.0198347 25.1173554,30.7438017 25.0975207,31.107438 C24.2809917,29.907438 23.031405,28.4033058 23.9438017,26.9090909 C24.3206612,26.0231405 25.8247934,24.8198347 24.5652893,24.0198347 C22.8396694,23.1041322 20.6214876,23.5338843 19.0578512,22.185124 C19.2859504,23.8942149 20.7735537,25.1041322 22.4694215,25.1603306 C20.5619835,26.4793388 20.5619835,29.7190083 22.4694215,31.0380165 C20.7735537,31.0942149 19.2892562,32.3041322 19.0578512,34.0132231 C20.7801653,32.4991736 23.3520661,33.2429752 25.0842975,31.7983471 C25.5768595,33.1173554 26.3966942,34.2942149 27.4016529,35.2760331 C22.4363636,37.8876033 16.3900826,38.4628099 11.1041322,36.4892562 C9.36528926,35.9404959 7.90082645,34.8 6.1785124,34.2214876 C6.14876033,34.2115702 6.0892562,34.1884298 6.05950413,34.1752066 C2.98842975,31.0545455 0.79338843,27.0181818 0.214876033,22.6479339 C-0.604958678,17.1140496 1.0677686,11.2727273 4.70743802,7.02479339 Z M10.8892562,3.28595041 C6.96528926,5.0446281 3.84793388,8.55206612 2.78347107,12.7471074 C4.05619835,11.692562 5.04793388,10.3570248 6.21818182,9.20330579 C8.71735537,6.67768595 11.4975207,4.32396694 14.7867769,2.89917355 C15.246281,2.70743802 15.6661157,2.43305785 16.0198347,2.08264463 C14.2280992,1.94049587 12.4991736,2.56198347 10.8892562,3.28595041 Z M12.3471074,12.7140496 C10.2181818,13.4512397 9.43801653,16.1785124 10.214876,18.1553719 C10.7239669,19.7090909 12.4528926,20.9256198 14.0958678,20.3471074 C16.2214876,19.6066116 17.0049587,16.892562 16.2347107,14.9157025 C15.7289256,13.3586777 13.9966942,12.1289256 12.3471074,12.7140496 Z M22.9884298,19.153719 C23.1768595,19.2330579 23.5471074,19.3917355 23.7355372,19.4677686 C26.0363636,17.5636364 29.6066116,17.4446281 31.9966942,19.2561983 C32.2578512,19.6396694 33.1272727,19.3553719 32.9289256,18.8826446 C32.0793388,16.8 30.2016529,14.6942149 27.7619835,14.8330579 C25.4214876,15.0280992 23.7818182,17.1107438 22.9884298,19.153719 Z" id="Shape"></path>
                                </g>
                                <g id="#ffe8bbff" transform="translate(2.644628, 1.983471)" fill="#FFE8BB">
                                    <path d="M8.2446281,1.30247934 C9.85454545,0.578512397 11.5834711,-0.0429752066 13.3752066,0.0991735537 C13.0214876,0.449586777 12.6016529,0.723966942 12.1421488,0.915702479 C8.85289256,2.34049587 6.07272727,4.69421488 3.57355372,7.21983471 C2.40330579,8.37355372 1.41157025,9.70909091 0.138842975,10.7636364 C1.20330579,6.56859504 4.32066116,3.06115702 8.2446281,1.30247934 Z" id="Shape"></path>
                                </g>
                                <g id="#f9b700ff" transform="translate(5.950413, 5.950413)" fill="#F9B700">
                                    <path d="M28.3438017,0.327272727 C33.3785124,5.40165289 35.0181818,13.385124 32.7570248,20.1190083 C32.3570248,19.8214876 31.9471074,19.5438017 31.5239669,19.2826446 C31.1768595,19.1206612 30.7933884,19.0545455 30.4231405,18.968595 C32.092562,14.5719008 32.1619835,9.58677686 30.5454545,5.16694215 C29.9801653,3.47768595 28.9355372,2.00661157 28.3438017,0.327272727 Z" id="Shape"></path>
                                    <path d="M0.228099174,28.2710744 C1.95041322,28.8495868 3.41487603,29.9900826 5.15371901,30.538843 C10.4396694,32.5123967 16.4859504,31.9371901 21.4512397,29.3256198 C22.1421488,29.9966942 22.8694215,30.631405 23.5900826,31.2760331 C16.2280992,35.4115702 6.23801653,34.2942149 0.228099174,28.2710744 Z" id="Shape"></path>
                                </g>
                                <g id="#302c3bff" transform="translate(9.917355, 12.561983)" fill="#302C3B">
                                    <path d="M2.42975207,0.152066116 C4.07933884,-0.433057851 5.81157025,0.796694215 6.31735537,2.35371901 C7.08760331,4.33057851 6.30413223,7.0446281 4.1785124,7.78512397 C2.53553719,8.36363636 0.80661157,7.14710744 0.297520661,5.59338843 C-0.479338843,3.61652893 0.300826446,0.889256198 2.42975207,0.152066116 Z" id="Shape"></path>
                                    <path d="M13.0710744,6.59173554 C13.8644628,4.54876033 15.5041322,2.4661157 17.8446281,2.27107438 C20.2842975,2.1322314 22.1619835,4.23801653 23.0115702,6.32066116 C23.2099174,6.79338843 22.3404959,7.07768595 22.0793388,6.69421488 C19.6892562,4.88264463 16.1190083,5.00165289 13.8181818,6.90578512 C13.6297521,6.82975207 13.2595041,6.67107438 13.0710744,6.59173554 Z" id="Shape"></path>
                                    <path d="M9.14049587,9.6231405 C10.7041322,10.9719008 12.922314,10.5421488 14.6479339,11.4578512 C15.907438,12.2578512 14.4033058,13.461157 14.0264463,14.3471074 C13.1140496,15.8413223 14.3636364,17.3454545 15.1801653,18.5454545 C15.1669421,18.7735537 15.1603306,19.0049587 15.1669421,19.2363636 C13.4347107,20.6809917 10.8628099,19.9371901 9.14049587,21.4512397 C9.37190083,19.7421488 10.8561983,18.5322314 12.5520661,18.4760331 C10.6446281,17.1570248 10.6446281,13.9173554 12.5520661,12.5983471 C10.8561983,12.5421488 9.36859504,11.3322314 9.14049587,9.6231405 Z" id="Shape"></path>
                                </g>
                                <g id="#e81c27ff" transform="translate(25.123967, 24.793388)" fill="#E81C27">
                                    <path d="M1.34214876,1.03471074 C3.10413223,-0.452892562 5.9107438,-0.0561983471 7.32892562,1.71900826 C7.46115702,1.57355372 7.72231405,1.28264463 7.85454545,1.13719008 C7.88099174,1.47107438 7.9338843,2.13884298 7.95702479,2.47272727 C8.66446281,1.94710744 9.34876033,1.38842975 10.0099174,0.803305785 C9.58677686,0.674380165 9.16033058,0.545454545 8.73719008,0.416528926 C9.55371901,0.188429752 10.4033058,0.0892561983 11.2495868,0.125619835 C11.6198347,0.211570248 12.0033058,0.27768595 12.3504132,0.439669421 C12.9157025,1.69917355 13.5966942,3.12066116 13.1173554,4.51570248 C12.5123967,6.44628099 11.0082645,7.88429752 9.68264463,9.33884298 C8.7338843,10.2809917 7.78512397,11.5603306 6.29421488,11.4842975 L6.1322314,11.368595 C3.97355372,9.35867769 1.18347107,7.72561983 0.0561983471,4.8661157 C-0.125619835,3.47438017 0.155371901,1.92066116 1.34214876,1.03471074 Z M0.889256198,3.70578512 C2.21487603,2.92231405 3.42809917,1.91404959 4.38016529,0.704132231 C2.70743802,0.644628099 0.462809917,1.70247934 0.889256198,3.70578512 Z" id="Shape"></path>
                                </g>
                                <g id="#f1594fff" transform="translate(32.727273, 25.123967)" fill="#F1594F">
                                    <path d="M0.251239669,0.80661157 C0.532231405,0.552066116 0.826446281,0.310743802 1.1338843,0.0859504132 C1.55702479,0.214876033 1.98347107,0.343801653 2.40661157,0.472727273 C1.74545455,1.05785124 1.06115702,1.61652893 0.353719008,2.14214876 C0.330578512,1.80826446 0.27768595,1.14049587 0.251239669,0.80661157 Z" id="Shape"></path>
                                </g>
                                <g id="#f46c60ff" transform="translate(25.785124, 25.454545)" fill="#F46C60">
                                    <path d="M0.228099174,3.0446281 C-0.198347107,1.04132231 2.04628099,-0.0165289256 3.71900826,0.0429752066 C2.76694215,1.25289256 1.55371901,2.26115702 0.228099174,3.0446281 Z" id="Shape"></path>
                                </g>
                                <g id="#c21413ff" transform="translate(31.404959, 25.123967)" fill="#C21413">
                                    <path d="M6.83636364,4.18512397 C7.31570248,2.79008264 6.63471074,1.36859504 6.06942149,0.109090909 C6.49256198,0.370247934 6.90247934,0.647933884 7.30247934,0.945454545 C8.74710744,2.46280992 8.52231405,4.95867769 7.19008264,6.47272727 C5.3785124,8.5785124 3.09421488,10.1983471 0.981818182,11.9801653 C0.661157025,11.7024793 0.337190083,11.4280992 0.0132231405,11.153719 C1.50413223,11.2297521 2.45289256,9.95041322 3.40165289,9.00826446 C4.72727273,7.55371901 6.23140496,6.11570248 6.83636364,4.18512397 Z" id="Shape"></path>
                                </g>
                                <g id="#e8a329ff" transform="translate(24.793388, 29.421488)" fill="#E8A329">
                                    <path d="M0.38677686,0.238016529 C1.51404959,3.09752066 4.30413223,4.73057851 6.46280992,6.74049587 C5.90082645,7.1107438 5.32561983,7.46115702 4.74710744,7.80495868 C4.02644628,7.16033058 3.29917355,6.52561983 2.60826446,5.85454545 C1.60330579,4.87272727 0.783471074,3.69586777 0.290909091,2.3768595 C0.284297521,2.14545455 0.290909091,1.91404959 0.304132231,1.68595041 C0.323966942,1.32231405 0.366942149,0.598347107 0.38677686,0.238016529 Z" id="Shape"></path>
                                </g>
                            </g>
                        </g>
                    </g>
                </g>
            </g>
        </g>
    </g>
</svg>
