<svg width="40px" height="27px" viewBox="0 0 40 27" version="1.1" xmlns="http://www.w3.org/2000/svg" xmlns:xlink="http://www.w3.org/1999/xlink">
    <!-- Generator: Sketch 48.1 (47250) - http://www.bohemiancoding.com/sketch -->
    <desc>Created with Sketch.</desc>
    <defs></defs>
    <g id="Extras" stroke="none" stroke-width="1" fill="none" fill-rule="evenodd">
        <g id="icebreaker-overlay" transform="translate(-297.000000, -186.000000)">
            <g id="Group-13">
                <g id="Group-11" transform="translate(41.000000, 40.000000)">
                    <g id="Group-8" transform="translate(0.000000, 139.000000)">
                        <g id="heart5" transform="translate(256.000000, 0.000000)">
                            <rect id="Rectangle" x="0" y="0" width="40" height="40"></rect>
                            <g id="#bec3cfff" transform="translate(0.000000, 7.000000)" fill="#BEC3CF" fill-rule="nonzero">
                                <path d="M0.324590164,0.291803279 L0.363934426,0.331147541 C3.60983607,3.44262295 6.93442623,6.46885246 10.2065574,9.55409836 C9.95737705,11.304918 10.6622951,13.0098361 11.7442623,14.3540984 C7.95081967,18.357377 4.27540984,22.4786885 0.373770492,26.3803279 C0.26557377,17.6852459 0.360655738,8.98688525 0.324590164,0.291803279 Z" id="Shape"></path>
                                <path d="M39.6360656,0.331147541 L39.6754098,0.291803279 C39.6393443,8.99016393 39.7278689,17.6885246 39.6327869,26.3836066 C35.7377049,22.4721311 32.0459016,18.3639344 28.252459,14.357377 C29.3377049,13.0131148 30.042623,11.304918 29.7934426,9.55081967 C33.0655738,6.46885246 36.3901639,3.43934426 39.6360656,0.331147541 Z" id="Shape"></path>
                            </g>
                            <g id="#e6ebefff" transform="translate(0.327869, 7.000000)" fill="#E6EBEF" fill-rule="nonzero">
                                <path d="M0.0360655738,0.331147541 C13.1278689,0.324590164 26.2163934,0.324590164 39.3081967,0.331147541 C36.0622951,3.43934426 32.7377049,6.46885246 29.4655738,9.55081967 C29.052459,6.95409836 26.4918033,5.10163934 23.9147541,5.2557377 C22.2065574,5.25245902 20.6655738,6.22622951 19.6721311,7.5704918 C18.1311475,5.27540984 14.852459,4.57704918 12.4754098,5.95409836 C11.0918033,6.65901639 10.1770492,8.04918033 9.87868852,9.55409836 C6.60655738,6.46885246 3.28196721,3.44262295 0.0360655738,0.331147541 Z" id="Shape"></path>
                            </g>
                            <g id="#fb367dff" transform="translate(9.836066, 12.245902)" fill="#FB367D" fill-rule="nonzero">
                                <path d="M2.96721311,0.708196721 C5.3442623,-0.668852459 8.62295082,0.0295081967 10.1639344,2.32459016 C11.157377,0.980327869 12.6983607,0.00655737705 14.4065574,0.00983606557 C16.9836066,-0.144262295 19.5442623,1.70819672 19.957377,4.30491803 C20.2065574,6.05901639 19.5016393,7.76721311 18.4163934,9.11147541 C16.0163934,11.9081967 12.9770492,14.0393443 10.1639344,16.3868852 C7.35081967,14.0360656 4.30819672,11.904918 1.90819672,9.10819672 C0.826229508,7.76393443 0.121311475,6.05901639 0.370491803,4.30819672 C0.668852459,2.80327869 1.58360656,1.41311475 2.96721311,0.708196721 Z" id="Shape"></path>
                            </g>
                            <g id="#cfd8ddff" transform="translate(0.000000, 21.098361)" fill="#CFD8DD" fill-rule="nonzero">
                                <path d="M0.373770492,12.2819672 C4.27540984,8.38032787 7.95081967,4.25901639 11.7442623,0.255737705 C14.1442623,3.05245902 17.1868852,5.18360656 20,7.53442623 C22.8131148,5.18688525 25.852459,3.0557377 28.252459,0.259016393 C32.0459016,4.26557377 35.7377049,8.37377049 39.6327869,12.2852459 L39.7803279,12.4360656 C26.5934426,12.4721311 13.4032787,12.4786885 0.216393443,12.4360656 L0.373770492,12.2819672 Z" id="Shape"></path>
                            </g>
                        </g>
                    </g>
                </g>
            </g>
        </g>
    </g>
</svg>
