<svg width="40px" height="40px" viewBox="0 0 40 40" version="1.1" xmlns="http://www.w3.org/2000/svg" xmlns:xlink="http://www.w3.org/1999/xlink">
    <!-- Generator: Sketch 48.1 (47250) - http://www.bohemiancoding.com/sketch -->
    <desc>Created with Sketch.</desc>
    <defs></defs>
    <g id="Extras" stroke="none" stroke-width="1" fill="none" fill-rule="evenodd">
        <g id="icebreaker-overlay" transform="translate(-232.000000, -115.000000)">
            <g id="Group-13">
                <g id="Group-11" transform="translate(41.000000, 40.000000)">
                    <g id="Group-7" transform="translate(0.000000, 75.000000)">
                        <g id="flower3" transform="translate(191.000000, 0.000000)">
                            <rect id="Rectangle" x="0" y="0" width="40" height="40"></rect>
                            <g id="#e84d88ff" transform="translate(11.570248, 0.000000)" fill="#E84D88" fill-rule="nonzero">
                                <path d="M9.34876033,0 C10.5917355,1.44132231 11.6595041,3.01487603 12.7768595,4.54876033 C12.1355372,6.32727273 11.0743802,8.2446281 9.27272727,8.99504132 C7.60991736,8.00330579 6.36363636,6.33057851 6.01983471,4.40991736 C7.09090909,2.91239669 8.14214876,1.39504132 9.34876033,0 Z" id="Shape"></path>
                                <path d="M0.0595041322,9.4214876 C1.03471074,6.65785124 2.62479339,4.1322314 4.52892562,1.91735537 C4.65785124,3.10413223 4.85289256,4.30082645 5.33553719,5.40495868 C6.22479339,7.52727273 7.6,9.46115702 9.40165289,10.9057851 C11.0380165,9.39504132 12.4595041,7.60330579 13.3190083,5.53719008 C13.7917355,4.38347107 14.0595041,3.16033058 14.1619835,1.92066116 C16.9024793,5.12066116 19.0545455,9.00826446 19.5239669,13.246281 C19.8710744,16.9586777 18.9123967,20.8694215 16.5520661,23.8016529 C15.1371901,25.5669421 13.1338843,26.8991736 10.8892562,27.3057851 C9.87107438,27.4644628 8.83305785,27.4809917 7.81487603,27.3421488 C7.39834711,27.2694215 6.99834711,27.1305785 6.59173554,27.0280992 C5.31239669,25.6958678 3.65950413,24.6479339 2.89256198,22.8991736 C1.68595041,20.5752066 2.05619835,17.6330579 3.67933884,15.6066116 C5.02479339,13.6958678 7.21322314,12.7041322 8.88264463,11.1404959 C5.61983471,11.9206612 2.57190083,13.785124 0.723966942,16.631405 C-0.0330578512,14.3008264 -0.0363636364,11.8413223 0.0595041322,9.4214876 Z M16.5950413,7.21322314 C16.7900826,9.31900826 17.1966942,11.4247934 17.0049587,13.5471074 C16.8628099,16.661157 15.6099174,19.7719008 13.2892562,21.8909091 C11.4842975,23.646281 9.11404959,24.5553719 6.87933884,25.6099174 C9.49090909,26.4528926 12.5917355,26.168595 14.7471074,24.3735537 C16.9752066,22.492562 18.0661157,19.5834711 18.3504132,16.7438017 C18.6347107,13.4909091 18.0396694,10.1487603 16.5950413,7.21322314 Z" id="Shape"></path>
                            </g>
                            <g id="#c72865ff" transform="translate(10.247934, 4.297521)" fill="#C72865" fill-rule="nonzero">
                                <path d="M6.65785124,1.10743802 C6.89586777,0.780165289 7.1338843,0.456198347 7.34214876,0.112396694 C7.68595041,2.03305785 8.9322314,3.70578512 10.5950413,4.69752066 C12.3966942,3.94710744 13.4578512,2.02975207 14.0991736,0.251239669 C14.3041322,0.565289256 14.5586777,0.866115702 14.6413223,1.23966942 C13.7818182,3.30578512 12.3603306,5.09752066 10.7239669,6.60826446 C8.92231405,5.16363636 7.54710744,3.22975207 6.65785124,1.10743802 Z" id="Shape"></path>
                                <path d="M0.436363636,13.0347107 C0.152066116,10.3801653 0.337190083,7.60330579 1.38181818,5.12396694 C1.28595041,7.54380165 1.2892562,10.0033058 2.04628099,12.3338843 C3.89421488,9.48760331 6.94214876,7.6231405 10.2049587,6.84297521 C8.53553719,8.40661157 6.34710744,9.39834711 5.00165289,11.3090909 C3.3785124,13.3355372 3.00826446,16.277686 4.21487603,18.6016529 C4.98181818,20.3504132 6.63471074,21.3983471 7.91404959,22.7305785 C3.80165289,21.3190083 0.985123967,17.2628099 0.436363636,13.0347107 Z" id="Shape"></path>
                            </g>
                            <g id="#ff669fff" transform="translate(18.181818, 6.942149)" fill="#FF669F" fill-rule="nonzero">
                                <path d="M9.98347107,0.27107438 C11.4280992,3.20661157 12.0231405,6.54876033 11.738843,9.80165289 C11.4545455,12.6413223 10.3636364,15.5504132 8.13553719,17.431405 C5.98016529,19.2264463 2.87933884,19.5107438 0.267768595,18.6677686 C2.50247934,17.6132231 4.87272727,16.7041322 6.67768595,14.9487603 C8.99834711,12.8297521 10.2512397,9.71900826 10.3933884,6.60495868 C10.585124,4.48264463 10.1785124,2.3768595 9.98347107,0.27107438 Z" id="Shape"></path>
                            </g>
                            <g id="#92c932ff" transform="translate(0.000000, 18.842975)" fill="#92C932" fill-rule="nonzero">
                                <path d="M0.00991735537,0.00991735537 C3.61322314,1.02809917 7.19338843,2.22809917 10.5289256,3.95041322 C12.5487603,5.03801653 14.5818182,6.25785124 15.9867769,8.11570248 C17.5206612,10.1950413 18.5950413,12.585124 19.3752066,15.0380165 C20.0033058,16.9322314 20.4793388,18.8727273 20.846281,20.8363636 C19.785124,20.8231405 18.7239669,20.8297521 17.6628099,20.8132231 C15.431405,15.6628099 12,11.107438 8.07933884,7.11735537 C5.6,4.52561983 2.8892562,2.14876033 0.00991735537,0.00991735537 Z" id="Shape"></path>
                                <path d="M27.4644628,6.63140496 C31.153719,4.6214876 35.5239669,4.09917355 39.6561983,4.60165289 C32.3008264,7.47768595 25.2991736,12.8264463 22.677686,20.5355372 C22.4661157,17.7024793 22.6016529,14.8561983 22.5190083,12.0165289 C23.2694215,9.5768595 25.2628099,7.78512397 27.4644628,6.63140496 Z" id="Shape"></path>
                            </g>
                            <g id="#529320ff" transform="translate(19.173554, 27.107438)" fill="#529320" fill-rule="nonzero">
                                <path d="M0.211570248,0.234710744 C1.22975207,0.373553719 2.2677686,0.357024793 3.28595041,0.198347107 C3.29586777,1.38181818 3.32561983,2.56859504 3.34545455,3.75206612 C3.42809917,6.59173554 3.29256198,9.43801653 3.50413223,12.2710744 C3.5107438,12.3371901 3.52727273,12.4661157 3.5338843,12.5322314 C2.91239669,12.5454545 2.29421488,12.5520661 1.67272727,12.5719008 C1.30578512,10.6082645 0.829752066,8.6677686 0.201652893,6.77355372 C0.0297520661,4.60165289 0.224793388,2.41322314 0.211570248,0.234710744 Z" id="Shape"></path>
                            </g>
                        </g>
                    </g>
                </g>
            </g>
        </g>
    </g>
</svg>
