<svg width="30px" height="40px" viewBox="0 0 30 40" version="1.1" xmlns="http://www.w3.org/2000/svg" xmlns:xlink="http://www.w3.org/1999/xlink">
    <!-- Generator: Sketch 48.1 (47250) - http://www.bohemiancoding.com/sketch -->
    <desc>Created with Sketch.</desc>
    <defs></defs>
    <g id="Extras" stroke="none" stroke-width="1" fill="none" fill-rule="evenodd">
        <g id="icebreaker-overlay" transform="translate(-173.000000, -115.000000)">
            <g id="Group-13">
                <g id="Group-11" transform="translate(41.000000, 40.000000)">
                    <g id="Group-7" transform="translate(0.000000, 75.000000)">
                        <g id="flower4" transform="translate(127.000000, 0.000000)">
                            <rect id="Rectangle" x="0" y="0" width="40" height="40"></rect>
                            <g id="#b00505ff" transform="translate(5.666667, 0.000000)" fill="#B00505" fill-rule="nonzero">
                                <path d="M7.52,0.213333333 C10.0566667,-0.486666667 12.6033333,0.94 15.15,0.283333333 C16.3033333,0.546666667 17.54,0.77 18.4866667,1.53 C19.1266667,2.05666667 19.1366667,3.03 18.7466667,3.71 C18.0966667,4.97666667 16.7266667,5.56666667 15.5233333,6.17 C14.78,5.38 14.1033333,4.35 12.9766667,4.10333333 C11.99,3.85333333 11.0533333,4.37666667 10.1533333,4.71 C10.97,4.8 11.82,4.77 12.6066667,5.04 C13.0666667,5.45333333 13.39,5.99 13.76,6.47666667 C12.2366667,6.29333333 10.3566667,6.33333333 9.30666667,5.01333333 C8.60666667,4.01 9.78666667,2.96666667 10.7,2.69333333 C12.69,1.90666667 14.6733333,3.03666667 16.4533333,3.83666667 C15.48,2.70666667 14.3866667,1.53666667 12.88,1.16 C11.1166667,0.686666667 8.91666667,0.846666667 7.62333333,2.27666667 C6.83333333,3.11333333 7.18,4.38 7.86,5.15666667 C9.46,7.05 12.1133333,7.81 14.52,7.49333333 C16.6233333,7.20333333 18.9366667,6.37333333 19.94,4.35 C20.2566667,4.2 20.5766667,4.06 20.9033333,3.93 C22.3,3.80333333 23.81,3.61333333 25.1233333,4.22666667 C26.2233333,4.79333333 26.3366667,6.22666667 25.94,7.27 C25.1266667,9.64333333 23.17,11.47 21.0066667,12.6466667 C19.34,13.4933333 17.6966667,14.4033333 16.31,15.6733333 C17.1733333,16.8466667 18.15,18.0166667 18.5133333,19.4633333 C18.7966667,20.73 18.5133333,22.0266667 18.3366667,23.2866667 C18.04,23.3633333 17.7433333,23.43 17.4433333,23.4866667 C17.6733333,21.9133333 17.8566667,20.1766667 16.8966667,18.79 C14.81,15.3366667 10.8233333,13.9433333 7.36,12.3066667 C4.52,10.95 1.33333333,9.15333333 0.46,5.89 C0.00333333333,4.35666667 0.796666667,2.80333333 2.08,1.95666667 C3.06333333,1.70666667 4.08666667,1.71666667 5.09333333,1.7 C3.75,3.73666667 3.91333333,6.62666667 5.57666667,8.43333333 C8.30666667,11.53 12.41,12.7666667 15.6533333,15.1933333 C16.75,14.1 17.9133333,13.0666667 19.2133333,12.2166667 C20.2333333,11.4833333 21.4033333,10.8466667 22.09,9.75333333 C22.5766667,8.90333333 21.6633333,8.04 20.92,7.75666667 C19.3133333,7.23666667 17.6166667,7.72666667 16.01,8 C13.22,8.56333333 10.15,9.14333333 7.46333333,7.86666667 C6,7.23666667 4.80333333,5.71 5.10333333,4.05 C5.28,2.39666667 6.7,1.36333333 7.88333333,0.393333333 C7.79333333,0.346666667 7.61,0.256666667 7.52,0.213333333 Z" id="Shape"></path>
                            </g>
                            <g id="#e81c27ff" transform="translate(5.000000, 0.000000)" fill="#E81C27" fill-rule="nonzero">
                                <path d="M5.76,1.7 C6.38333333,0.963333333 7.25,0.45 8.18666667,0.213333333 C8.27666667,0.256666667 8.46,0.346666667 8.55,0.393333333 C7.36666667,1.36333333 5.94666667,2.39666667 5.77,4.05 C5.47,5.71 6.66666667,7.23666667 8.13,7.86666667 C10.8166667,9.14333333 13.8866667,8.56333333 16.6766667,8 C18.2833333,7.72666667 19.98,7.23666667 21.5866667,7.75666667 C22.33,8.04 23.2433333,8.90333333 22.7566667,9.75333333 C22.07,10.8466667 20.9,11.4833333 19.88,12.2166667 C18.58,13.0666667 17.4166667,14.1 16.32,15.1933333 C13.0766667,12.7666667 8.97333333,11.53 6.24333333,8.43333333 C4.58,6.62666667 4.41666667,3.73666667 5.76,1.7 Z" id="Shape"></path>
                                <path d="M15.8166667,0.283333333 C17.25,0.146666667 18.87,0.313333333 19.9366667,1.38666667 C20.7433333,2.12333333 20.9766667,3.33666667 20.6066667,4.35 C19.6033333,6.37333333 17.29,7.20333333 15.1866667,7.49333333 C12.78,7.81 10.1266667,7.05 8.52666667,5.15666667 C7.84666667,4.38 7.5,3.11333333 8.29,2.27666667 C9.58333333,0.846666667 11.7833333,0.686666667 13.5466667,1.16 C15.0533333,1.53666667 16.1466667,2.70666667 17.12,3.83666667 C15.34,3.03666667 13.3566667,1.90666667 11.3666667,2.69333333 C10.4533333,2.96666667 9.27333333,4.01 9.97333333,5.01333333 C11.0233333,6.33333333 12.9033333,6.29333333 14.4266667,6.47666667 C14.0566667,5.99 13.7333333,5.45333333 13.2733333,5.04 C12.4866667,4.77 11.6366667,4.8 10.82,4.71 C11.72,4.37666667 12.6566667,3.85333333 13.6433333,4.10333333 C14.77,4.35 15.4466667,5.38 16.19,6.17 C17.3933333,5.56666667 18.7633333,4.97666667 19.4133333,3.71 C19.8033333,3.03 19.7933333,2.05666667 19.1533333,1.53 C18.2066667,0.77 16.97,0.546666667 15.8166667,0.283333333 Z" id="Shape"></path>
                                <path d="M0.16,4.68666667 C0.47,3.38666667 1.56666667,2.47666667 2.74666667,1.95666667 C1.46333333,2.80333333 0.67,4.35666667 1.12666667,5.89 C2,9.15333333 5.18666667,10.95 8.02666667,12.3066667 C11.49,13.9433333 15.4766667,15.3366667 17.5633333,18.79 C18.5233333,20.1766667 18.34,21.9133333 18.11,23.4866667 C16.7766667,23.6966667 15.4266667,23.7066667 14.08,23.7533333 C11.4566667,23.67 8.81,22.9 6.70333333,21.2933333 C4.8,19.8333333 3.32666667,17.8066667 2.55666667,15.5333333 C2.29333333,13.5966667 2.03666667,11.6233333 1.17333333,9.84666667 C0.41,8.25666667 -0.333333333,6.47666667 0.16,4.68666667 Z" id="Shape"></path>
                                <path d="M21.57,3.93 C23.5066667,3.18 25.8433333,3.16666667 27.6,4.37333333 C28.7766667,5.17333333 29.3833333,6.62 29.3166667,8.02 C29.2466667,10.4033333 28.0366667,12.5433333 26.8266667,14.53 C26.0233333,15.8333333 25.4733333,17.2633333 24.9,18.6766667 C23.9266667,21.1533333 21.4833333,22.65 19.0033333,23.2866667 C19.18,22.0266667 19.4633333,20.73 19.18,19.4633333 C18.8166667,18.0166667 17.84,16.8466667 16.9766667,15.6733333 C18.3633333,14.4033333 20.0066667,13.4933333 21.6733333,12.6466667 C23.8366667,11.47 25.7933333,9.64333333 26.6066667,7.27 C27.0033333,6.22666667 26.89,4.79333333 25.79,4.22666667 C24.4766667,3.61333333 22.9666667,3.80333333 21.57,3.93 Z" id="Shape"></path>
                            </g>
                            <g id="#7ab51dff" transform="translate(5.000000, 15.333333)" fill="#7AB51D" fill-rule="nonzero">
                                <path d="M2.55666667,0.2 C3.32666667,2.47333333 4.8,4.5 6.70333333,5.96 C8.81,7.56666667 11.4566667,8.33666667 14.08,8.42 C12.0033333,8.66 9.77333333,9.07 8.31333333,10.7133333 C6.12666667,10.13 3.97666667,8.86333333 2.92333333,6.78333333 C1.85666667,4.76 1.96,2.35 2.55666667,0.2 Z" id="Shape"></path>
                                <path d="M0,11.1366667 C0.176666667,11.1433333 0.526666667,11.1533333 0.703333333,11.1566667 C3.05666667,13.25 5.88666667,14.6933333 8.30666667,16.7 C10.31,18.25 12.09,20.07 13.6033333,22.1 C12.99,22.2633333 12.3766667,22.4333333 11.76,22.5833333 C9.09,23.29 5.96666667,23.0633333 3.83666667,21.1433333 C1.03666667,18.6566667 0.2,14.7233333 0,11.1366667 Z" id="Shape"></path>
                            </g>
                            <g id="#92c932ff" transform="translate(5.666667, 18.666667)" fill="#92C932" fill-rule="nonzero">
                                <path d="M18.3366667,4.62 C20.8166667,3.98333333 23.26,2.48666667 24.2333333,0.01 C24.2066667,2.16666667 23.5,4.38333333 21.9433333,5.92666667 C20.37,7.51666667 18.1166667,8.29 15.9166667,8.41333333 C15.8566667,8.41 15.7333333,8.41 15.6733333,8.40666667 C14.46,8.34666667 13.2433333,8.43666667 12.0333333,8.35666667 C10.54,8.2 9.08333333,7.81 7.64666667,7.38 C9.10666667,5.73666667 11.3366667,5.32666667 13.4133333,5.08666667 C14.76,5.04 16.11,5.03 17.4433333,4.82 C17.7433333,4.76333333 18.04,4.69666667 18.3366667,4.62 Z" id="Shape"></path>
                                <path d="M0.0366666667,7.82333333 C4.11666667,8.11 8.60666667,8.61333333 11.82,11.4 C12.59,12.1766667 13.29,13.0966667 13.5066667,14.1933333 C13.84,15.74 13.35,17.2866667 12.9366667,18.7666667 C11.4233333,16.7366667 9.64333333,14.9166667 7.64,13.3666667 C5.22,11.36 2.39,9.91666667 0.0366666667,7.82333333 Z" id="Shape"></path>
                            </g>
                            <g id="#5c832aff" transform="translate(16.666667, 27.000000)" fill="#5C832A" fill-rule="nonzero">
                                <path d="M1.03333333,0.0233333333 C2.24333333,0.103333333 3.46,0.0133333333 4.67333333,0.0733333333 C4.73333333,0.0766666667 4.85666667,0.0766666667 4.91666667,0.08 C4.80333333,0.116666667 4.57666667,0.19 4.46333333,0.226666667 C4.29,0.273333333 3.94,0.363333333 3.76333333,0.406666667 C3.45,1.17666667 3.87,2.03666667 3.87333333,2.84 C5.26,3.40666667 6.68666667,3.89666667 7.98333333,4.66333333 C6.73,5.37333333 5.37333333,5.86666667 4.03666667,6.39 C4.15333333,8.59333333 4.27,10.7966667 4.34,13 C3,13 1.66333333,13 0.326666667,13 C0.353333333,12.29 0.383333333,11.58 0.413333333,10.87 L0.0933333333,10.9166667 C0.71,10.7666667 1.32333333,10.5966667 1.93666667,10.4333333 C2.35,8.95333333 2.84,7.40666667 2.50666667,5.86 C2.29,4.76333333 1.59,3.84333333 0.82,3.06666667 C0.873333333,2.05 0.95,1.03666667 1.03333333,0.0233333333 Z" id="Shape"></path>
                            </g>
                        </g>
                    </g>
                </g>
            </g>
        </g>
    </g>
</svg>
