<svg width="40px" height="40px" viewBox="0 0 40 40" version="1.1" xmlns="http://www.w3.org/2000/svg" xmlns:xlink="http://www.w3.org/1999/xlink">
    <!-- Generator: Sketch 48.1 (47250) - http://www.bohemiancoding.com/sketch -->
    <desc>Created with Sketch.</desc>
    <defs></defs>
    <g id="Extras" stroke="none" stroke-width="1" fill="none" fill-rule="evenodd">
        <g id="icebreaker-overlay" transform="translate(-41.000000, -115.000000)">
            <g id="Group-13">
                <g id="Group-11" transform="translate(41.000000, 40.000000)">
                    <g id="Group-7" transform="translate(0.000000, 75.000000)">
                        <g id="flower1">
                            <rect id="Rectangle-2" x="0" y="0" width="40" height="40"></rect>
                            <g id="#ffe463ff" transform="translate(3.305785, 0.000000)" fill="#FFE463" fill-rule="nonzero">
                                <path d="M14.0826446,3.41818182 C14.3735537,2.18512397 15.1041322,1.12396694 15.6661157,0.00661157025 C16.2082645,1.12396694 16.8561983,2.19504132 17.2760331,3.36859504 C17.646281,4.28760331 17.9371901,5.23636364 18.168595,6.19834711 C17.9471074,6.48264463 17.7289256,6.76694215 17.5107438,7.05454545 C17.0545455,6.9785124 16.5983471,6.91900826 16.138843,6.87603306 C15.5669421,5.65950413 14.9057851,4.48595041 14.0826446,3.41818182 Z" id="Shape"></path>
                                <path d="M4.61818182,4.58512397 C5.78842975,4.95867769 6.98842975,5.26942149 8.10247934,5.80165289 C9.21983471,6.40330579 10.9322314,6.70413223 11.0016529,8.26115702 C10.585124,8.54214876 10.1785124,8.83966942 9.79834711,9.16694215 C8.55206612,8.61487603 7.22644628,8.26446281 5.87768595,8.07272727 C5.25619835,6.99504132 5.01487603,5.7553719 4.61818182,4.58512397 Z" id="Shape"></path>
                                <path d="M23.2132231,5.80165289 C24.3239669,5.26942149 25.5140496,4.93884298 26.6942149,4.60165289 C26.3041322,5.76859504 26.0033058,6.96859504 25.4677686,8.08264463 C24.8661157,9.22644628 24.5520661,10.8661157 23.014876,11.0446281 C22.7338843,10.614876 22.4330579,10.1983471 22.1090909,9.80165289 C22.6677686,8.52892562 23.0247934,7.1768595 23.2132231,5.80165289 Z" id="Shape"></path>
                                <path d="M3.42809917,13.9735537 C4.64132231,13.5834711 6.16528926,12.6413223 7.21652893,13.8446281 C7.14710744,14.2743802 7.09090909,14.7041322 7.05123967,15.1371901 C5.72561983,15.6528926 4.49917355,16.3834711 3.37190083,17.2429752 C2.2214876,16.8099174 1.16033058,16.185124 0.0561983471,15.646281 C1.14710744,15.0280992 2.25123967,14.4198347 3.42809917,13.9735537 Z" id="Shape"></path>
                                <path d="M24.2280992,16.168595 C25.477686,15.6099174 26.6644628,14.922314 27.7818182,14.1355372 L28.0231405,13.9801653 C29.1140496,14.4991736 30.1884298,15.0578512 31.2595041,15.6165289 C30.1652893,16.1884298 29.0876033,16.8099174 27.9305785,17.2528926 C27.0181818,17.6198347 26.0694215,17.8876033 25.1173554,18.1256198 C24.7603306,17.8909091 24.4033058,17.6528926 24.0429752,17.4214876 C24.1190083,17.0049587 24.1785124,16.585124 24.2280992,16.168595 Z" id="Shape"></path>
                                <path d="M7.27933884,20.4661157 C7.72231405,20.4297521 8.16528926,20.3900826 8.60826446,20.3504132 C8.83305785,20.6545455 9.06115702,20.9553719 9.30578512,21.246281 C8.67107438,22.5719008 8.29421488,24 8.09917355,25.4545455 C6.98181818,25.9735537 5.78512397,26.2743802 4.6214876,26.661157 C4.99173554,25.4975207 5.29586777,24.307438 5.80495868,23.1900826 C6.21487603,22.2413223 6.70413223,21.3256198 7.27933884,20.4661157 Z" id="Shape"></path>
                                <path d="M20.3041322,22.6909091 C20.6049587,22.4727273 20.8991736,22.2479339 21.1867769,22.0099174 C22.5785124,22.5421488 24.0099174,22.9884298 25.4942149,23.1834711 C26,24.3041322 26.3107438,25.4975207 26.6942149,26.661157 C25.5239669,26.2743802 24.3239669,25.9702479 23.2,25.461157 C22.2876033,25.0710744 21.4115702,24.5983471 20.5652893,24.0793388 C20.4793388,23.6165289 20.3900826,23.153719 20.3041322,22.6909091 Z" id="Shape"></path>
                                <path d="M13.2165289,25.1404959 C13.3785124,24.6909091 13.6760331,24.3041322 13.9239669,23.9008264 C14.3206612,23.9669421 14.7173554,24.0198347 15.1140496,24.0595041 C15.6363636,25.4512397 16.3603306,26.7603306 17.2727273,27.9338843 C17.1041322,28.3173554 16.9322314,28.7008264 16.7636364,29.0842975 C16.4231405,29.8082645 16.0264463,30.5057851 15.6264463,31.2 C15.1801653,30.3173554 14.7107438,29.4512397 14.2644628,28.568595 C14.2082645,28.4033058 14.092562,28.0727273 14.0363636,27.9107438 C13.7256198,26.9983471 13.3057851,26.1090909 13.2165289,25.1404959 Z" id="Shape"></path>
                            </g>
                            <g id="#f9c402ff" transform="translate(3.636364, 0.330579)" fill="#F9C402" fill-rule="nonzero">
                                <path d="M11.2793388,0.204958678 C12.1289256,1.14380165 13.0380165,2.03636364 13.7520661,3.08760331 C14.5752066,4.1553719 15.2363636,5.32892562 15.8082645,6.54545455 C14,6.46942149 12.1884298,6.93553719 10.6710744,7.93057851 C10.6016529,6.37355372 8.8892562,6.07272727 7.77190083,5.47107438 C7.58677686,4.24793388 7.52727273,3.00826446 7.5107438,1.77190083 C8.54214876,2.42975207 9.60991736,3.04132231 10.5454545,3.83471074 C10.7239669,2.61157025 11.0115702,1.41157025 11.2793388,0.204958678 Z" id="Shape"></path>
                                <path d="M16.9454545,3.03801653 C17.6363636,2 18.538843,1.1338843 19.3586777,0.204958678 C19.6198347,1.41487603 19.9438017,2.61487603 20.0727273,3.84793388 C21.0214876,3.0446281 22.1024793,2.4231405 23.1471074,1.75867769 C23.1107438,2.99834711 23.0644628,4.24132231 22.8826446,5.47107438 C22.6942149,6.84628099 22.3371901,8.19834711 21.7785124,9.47107438 C20.5487603,8.13884298 18.9421488,7.16033058 17.1801653,6.72396694 C17.3983471,6.43636364 17.6165289,6.15206612 17.8380165,5.8677686 C17.6066116,4.90578512 17.3157025,3.95702479 16.9454545,3.03801653 Z" id="Shape"></path>
                                <path d="M1.79173554,7.46446281 C3.04793388,7.51404959 4.30743802,7.54710744 5.54710744,7.74214876 C6.89586777,7.9338843 8.2214876,8.28429752 9.4677686,8.83636364 C8.20165289,10.1190083 7.21983471,11.7256198 6.88595041,13.5140496 C5.83471074,12.3107438 4.3107438,13.2528926 3.09752066,13.6429752 C2.01322314,13.0181818 1.18347107,12.0628099 0.244628099,11.2528926 C1.45123967,10.9884298 2.64793388,10.6842975 3.87768595,10.538843 C3.07438017,9.59008264 2.45619835,8.50909091 1.79173554,7.46446281 Z" id="Shape"></path>
                                <path d="M25.1371901,7.75206612 C26.3603306,7.55041322 27.6,7.50413223 28.8330579,7.47438017 C28.185124,8.51570248 27.5702479,9.58347107 26.7702479,10.5190083 C27.9768595,10.7338843 29.2198347,10.8661157 30.3603306,11.3355372 C29.3818182,12.1487603 28.4892562,13.0644628 27.4512397,13.8049587 C26.3338843,14.5917355 25.1471074,15.2793388 23.8975207,15.8380165 C24.0099174,14.0528926 23.6066116,12.2512397 22.6842975,10.7140496 C24.2214876,10.5355372 24.5355372,8.89586777 25.1371901,7.75206612 Z" id="Shape"></path>
                                <path d="M3.04132231,16.9123967 C4.16859504,16.0528926 5.39504132,15.322314 6.72066116,14.8066116 C6.68429752,16.6578512 7.21983471,18.4958678 8.27768595,20.0198347 C7.83471074,20.0595041 7.39173554,20.0991736 6.94876033,20.1355372 C6.37355372,20.9950413 5.88429752,21.9107438 5.47438017,22.8595041 C4.25123967,23.0082645 3.0214876,23.0909091 1.79173554,23.1041322 C2.48264463,22.0727273 3.08760331,20.9752066 3.90082645,20.0330579 C2.6677686,19.9206612 1.47107438,19.5966942 0.26446281,19.3322314 C1.15371901,18.4859504 2.03305785,17.6198347 3.04132231,16.9123967 Z" id="Shape"></path>
                                <path d="M24.7867769,17.7950413 C25.738843,17.5570248 26.6876033,17.2892562 27.6,16.922314 C28.6214876,17.6231405 29.4876033,18.5123967 30.4033058,19.338843 C29.1966942,19.5867769 28,19.8942149 26.7768595,20.0495868 C27.5636364,21.0049587 28.185124,22.0760331 28.8495868,23.1173554 C27.6165289,23.077686 26.3834711,23.0380165 25.1636364,22.8528926 C23.6793388,22.6578512 22.2479339,22.2115702 20.8561983,21.6793388 C22.2479339,20.4826446 23.2330579,18.8561983 23.7123967,17.0909091 C24.0727273,17.322314 24.4297521,17.5603306 24.7867769,17.7950413 Z" id="Shape"></path>
                                <path d="M8.97520661,20.9157025 C10.2280992,22.2082645 11.8347107,23.1702479 13.5933884,23.5702479 C13.3454545,23.9735537 13.0479339,24.3603306 12.8859504,24.8099174 C12.9752066,25.7785124 13.3950413,26.6677686 13.7057851,27.5801653 C12.9652893,28.5719008 12.1090909,29.4644628 11.2793388,30.3801653 C11.0214876,29.1867769 10.753719,27.9933884 10.5586777,26.7900826 C9.6661157,27.431405 8.76033058,28.0528926 7.81157025,28.6115702 C7.73884298,28.568595 7.59669421,28.4859504 7.52396694,28.446281 C7.52727273,27.3355372 7.60330579,26.2214876 7.76859504,25.1239669 C7.96363636,23.6694215 8.34049587,22.2413223 8.97520661,20.9157025 Z" id="Shape"></path>
                                <path d="M14.7834711,23.7289256 C16.6082645,23.8082645 18.4198347,23.3157025 19.9735537,22.3603306 C20.0595041,22.8231405 20.1487603,23.2859504 20.2347107,23.7487603 C21.0809917,24.2677686 21.9570248,24.7404959 22.8694215,25.1305785 C23.0347107,26.3041322 23.1239669,27.4909091 23.1305785,28.677686 C23.1041322,28.6909091 23.0512397,28.7239669 23.0247934,28.7371901 C22.0198347,28.1256198 21.0380165,27.477686 20.0859504,26.7834711 C19.8942149,27.9900826 19.6297521,29.1801653 19.368595,30.3735537 C18.538843,29.4677686 17.6793388,28.585124 16.9421488,27.6033058 C16.0297521,26.4297521 15.3057851,25.1206612 14.7834711,23.7289256 Z" id="Shape"></path>
                            </g>
                            <g id="#ab5c10ff" transform="translate(10.247934, 6.611570)" fill="#AB5C10" fill-rule="nonzero">
                                <path d="M4.05950413,1.64958678 C5.5768595,0.654545455 7.38842975,0.188429752 9.19669421,0.26446281 C9.65619835,0.307438017 10.1123967,0.366942149 10.568595,0.442975207 C12.3305785,0.879338843 13.9371901,1.85785124 15.1669421,3.19008264 C15.4909091,3.58677686 15.7917355,4.00330579 16.0727273,4.43305785 C16.9950413,5.97024793 17.3983471,7.77190083 17.2859504,9.55702479 C17.2363636,9.97355372 17.1768595,10.3933884 17.1008264,10.8099174 C16.6214876,12.5752066 15.6363636,14.2016529 14.2446281,15.3983471 C13.9570248,15.6363636 13.6628099,15.861157 13.3619835,16.0793388 C11.8082645,17.0347107 9.99669421,17.5272727 8.17190083,17.4479339 C7.77520661,17.4082645 7.3785124,17.3553719 6.98181818,17.2892562 C5.2231405,16.8892562 3.61652893,15.9272727 2.36363636,14.6347107 C2.11900826,14.3438017 1.89090909,14.0429752 1.6661157,13.738843 C0.608264463,12.214876 0.0727272727,10.3768595 0.109090909,8.52561983 C0.148760331,8.09256198 0.204958678,7.66280992 0.274380165,7.23305785 C0.608264463,5.4446281 1.59008264,3.83801653 2.85619835,2.5553719 C3.23636364,2.22809917 3.64297521,1.93057851 4.05950413,1.64958678 Z M7.0677686,2.45950413 C4.20495868,3.16033058 2.02975207,5.96694215 2.12231405,8.92561983 C2.11570248,11.4347107 3.69586777,13.8512397 5.99338843,14.8528926 C8.45619835,15.9900826 11.6033058,15.4280992 13.4545455,13.4247934 C15.1966942,11.6661157 15.7619835,8.89917355 14.9090909,6.58512397 C13.8280992,3.48099174 10.2446281,1.57355372 7.0677686,2.45950413 Z" id="Shape"></path>
                            </g>
                            <g id="#594640ff" transform="translate(12.231405, 8.595041)" fill="#594640" fill-rule="nonzero">
                                <path d="M5.08429752,0.476033058 C8.26115702,-0.409917355 11.8446281,1.49752066 12.9256198,4.60165289 C13.7785124,6.91570248 13.2132231,9.68264463 11.4710744,11.4413223 C9.61983471,13.4446281 6.47272727,14.0066116 4.00991736,12.8694215 C1.71239669,11.8677686 0.132231405,9.45123967 0.138842975,6.94214876 C0.0462809917,3.98347107 2.2214876,1.1768595 5.08429752,0.476033058 Z M5.40165289,1.76528926 C2.63140496,2.37355372 0.780165289,5.58016529 1.64958678,8.28429752 C2.2677686,10.8760331 5.13057851,12.6380165 7.72231405,12.0528926 C10.5884298,11.6165289 12.6082645,8.44297521 11.8512397,5.65289256 C11.322314,2.80991736 8.1553719,0.965289256 5.40165289,1.76528926 Z" id="Shape"></path>
                            </g>
                            <g id="#45332cff" transform="translate(13.553719, 9.917355)" fill="#45332C" fill-rule="nonzero">
                                <path d="M4.07933884,0.442975207 C6.83305785,-0.357024793 10,1.48760331 10.5289256,4.33057851 C11.2859504,7.12066116 9.2661157,10.2942149 6.4,10.7305785 C3.80826446,11.3157025 0.945454545,9.55371901 0.327272727,6.96198347 C-0.54214876,4.25785124 1.30909091,1.05123967 4.07933884,0.442975207 Z" id="Shape"></path>
                            </g>
                            <g id="#92c932ff" transform="translate(0.000000, 24.793388)" fill="#92C932" fill-rule="nonzero">
                                <path d="M26.7669421,4.21487603 C30.7239669,1.99008264 35.1669421,0.760330579 39.6495868,0.181818182 C32.6975207,3.92396694 25.8842975,8.38016529 20.9322314,14.6380165 C20.8297521,14.7107438 20.6280992,14.8561983 20.5289256,14.9289256 C20.4595041,13.7652893 20.4,12.6016529 20.3404959,11.4380165 C21.553719,8.42644628 23.8545455,5.88760331 26.661157,4.27438017 C26.6876033,4.26115702 26.7404959,4.22809917 26.7669421,4.21487603 Z" id="Shape"></path>
                                <path d="M0.208264463,1.3785124 C3.98677686,1.2892562 7.80826446,2.25454545 11.1603306,3.98347107 C11.2330579,4.0231405 11.3752066,4.10578512 11.4479339,4.14876033 C13.9636364,5.53057851 15.814876,7.84793388 17.2099174,10.307438 C17.9206612,11.7619835 18.3900826,13.3090909 18.8,14.8694215 C18.1917355,14.8760331 17.5867769,14.8760331 16.9785124,14.8760331 C13.0876033,8.69421488 6.99173554,3.99008264 0.208264463,1.3785124 Z" id="Shape"></path>
                            </g>
                            <g id="#529320ff" transform="translate(17.190083, 28.429752)" fill="#529320" fill-rule="nonzero">
                                <path d="M0.380165289,0.138842975 C0.826446281,1.0214876 1.29586777,1.88760331 1.74214876,2.77024793 C2.14214876,2.07603306 2.53884298,1.3785124 2.87933884,0.654545455 C2.74710744,3.03471074 3.09421488,5.41818182 3.15041322,7.80165289 C3.20991736,8.96528926 3.26942149,10.1289256 3.33884298,11.292562 C2.76363636,11.2396694 2.18512397,11.2330579 1.60991736,11.2330579 C1.2,9.67272727 0.730578512,8.12561983 0.0198347107,6.67107438 C0.132231405,4.49586777 0.254545455,2.31735537 0.380165289,0.138842975 Z" id="Shape"></path>
                            </g>
                        </g>
                    </g>
                </g>
            </g>
        </g>
    </g>
</svg>
