<svg width="40px" height="40px" viewBox="0 0 40 40" version="1.1" xmlns="http://www.w3.org/2000/svg" xmlns:xlink="http://www.w3.org/1999/xlink">
    <!-- Generator: Sketch 48.1 (47250) - http://www.bohemiancoding.com/sketch -->
    <desc>Created with Sketch.</desc>
    <defs></defs>
    <g id="Extras" stroke="none" stroke-width="1" fill="none" fill-rule="evenodd">
        <g id="icebreaker-overlay" transform="translate(-168.000000, -179.000000)">
            <g id="Group-13">
                <g id="Group-11" transform="translate(41.000000, 40.000000)">
                    <g id="Group-8" transform="translate(0.000000, 139.000000)">
                        <g id="heart3" transform="translate(127.000000, 0.000000)">
                            <rect id="Rectangle" x="0" y="0" width="40" height="40"></rect>
                            <g id="#e81c27ff" fill="#E81C27" fill-rule="nonzero">
                                <path d="M20.0131148,3.63278689 C21.3836066,-0.239344262 27.3606557,-0.809836066 29.5377049,2.63934426 C30.8491803,0.629508197 33.4295082,-0.0393442623 35.6819672,0.508196721 L35.7377049,0.583606557 C36.895082,1.95737705 38.0295082,3.64262295 37.6065574,5.53770492 C36.9442623,8.61967213 34.5901639,10.9409836 32.452459,13.1016393 C31.4819672,13.9639344 30.6819672,15.0918033 29.4819672,15.6459016 C28.7803279,15.5737705 28.1114754,15.3377049 27.4557377,15.0918033 C25.0852459,13.0360656 22.4098361,11.1967213 20.6459016,8.55081967 C20.4295082,8.18688525 20.2262295,7.81311475 20.0393443,7.43278689 C19.7245902,6.55737705 19.6491803,5.61639344 19.7016393,4.68852459 C19.7934426,4.33442623 19.8983607,3.98360656 20.0131148,3.63278689 Z M30.3508197,3.4557377 C31.4393443,2.86885246 32.3508197,2.02295082 33.1704918,1.10819672 C31.8098361,0.898360656 30.0131148,1.8852459 30.3508197,3.4557377 Z M20.8786885,5.07868852 C22.7901639,4.39016393 24.042623,2.63934426 25.5836066,1.39344262 C23.4360656,0.747540984 20.3245902,2.58032787 20.8786885,5.07868852 Z" id="Shape"></path>
                                <path d="M1.07213115,19.1114754 C3.18688525,15.5737705 8.23934426,14.3901639 11.7901639,16.4065574 C12.9213115,16.9409836 13.7606557,17.8983607 14.4491803,18.9147541 C16.2590164,15.9442623 20.1147541,14.7704918 23.3737705,15.7508197 C24.6786885,17.1409836 26.0163934,18.695082 26.2754098,20.6590164 C26.6918033,22.7344262 26.0360656,24.8590164 25.0065574,26.6557377 C23.0098361,30.1934426 20.0655738,33.052459 17.1737705,35.8590164 C16.3147541,36.6754098 15.5180328,37.6098361 14.4393443,38.1442623 C13.3344262,37.9114754 12.295082,37.4590164 11.242623,37.0721311 C7.9147541,34.2786885 4.35737705,31.6163934 1.72786885,28.104918 C-0.190163934,25.5672131 -0.62295082,21.8721311 1.07213115,19.1114754 Z M3.07868852,18.4754098 C1.93114754,19.3803279 1.55081967,20.8786885 1.72459016,22.2786885 C2.1442623,22.2557377 2.59344262,22.2754098 2.9442623,22.0065574 C4.19672131,21.2 5.22295082,20.1016393 6.3442623,19.1311475 C7.13114754,18.3901639 8.07213115,17.7737705 8.6,16.8032787 C6.63278689,16.4295082 4.60655738,17.2688525 3.07868852,18.4754098 Z M15.7180328,19.9737705 C17.2622951,19.1311475 18.5704918,17.8983607 19.7081967,16.5737705 C17.8065574,16.347541 15.1180328,17.7114754 15.7180328,19.9737705 Z" id="Shape"></path>
                            </g>
                            <g id="#c21413ff" transform="translate(11.147541, 0.327869)" fill="#C21413" fill-rule="nonzero">
                                <path d="M24.5901639,0.255737705 C26.6229508,0.829508197 28.252459,2.77377049 28.2098361,4.92459016 C28.3803279,6.84918033 27.242623,8.56721311 25.9868852,9.91147541 C23.6688525,12.3442623 20.9311475,14.3213115 18.3606557,16.4688525 C17.6688525,15.9081967 16.9737705,15.3540984 16.3081967,14.7639344 C16.9639344,15.0098361 17.6327869,15.2459016 18.3344262,15.3180328 C19.5344262,14.7639344 20.3344262,13.6360656 21.304918,12.7737705 C23.442623,10.6131148 25.7967213,8.29180328 26.4590164,5.20983607 C26.8819672,3.3147541 25.747541,1.6295082 24.5901639,0.255737705 Z" id="Shape"></path>
                                <path d="M12.2262295,15.4229508 C14.3540984,16.0032787 16.2262295,17.5377049 17.1114754,19.5737705 C17.8032787,21.1016393 17.8688525,22.8688525 17.5540984,24.4983607 C17.3737705,25.104918 17.1737705,25.7081967 16.9377049,26.2983607 C16.0557377,27.9803279 14.7868852,29.4131148 13.4393443,30.7377049 C12.3147541,31.8131148 11.1704918,32.8688525 10.0098361,33.9081967 C7.75737705,35.7344262 5.51803279,37.5770492 3.27868852,39.4229508 C2.22295082,38.5245902 1.10163934,37.7016393 0.0950819672,36.7442623 C1.14754098,37.1311475 2.18688525,37.5836066 3.29180328,37.8163934 C4.3704918,37.2819672 5.16721311,36.347541 6.02622951,35.5311475 C8.91803279,32.7245902 11.8622951,29.8655738 13.8590164,26.3278689 C14.8885246,24.5311475 15.5442623,22.4065574 15.1278689,20.3311475 C14.8688525,18.3672131 13.5311475,16.8131148 12.2262295,15.4229508 Z" id="Shape"></path>
                            </g>
                            <g id="#f36259ff" transform="translate(30.163934, 0.983607)" fill="#F36259" fill-rule="nonzero">
                                <path d="M0.186885246,2.47213115 C-0.150819672,0.901639344 1.64590164,-0.0852459016 3.00655738,0.124590164 C2.18688525,1.03934426 1.27540984,1.8852459 0.186885246,2.47213115 Z" id="Shape"></path>
                            </g>
                            <g id="#f46c60ff" transform="translate(0.000000, 0.983607)" fill="#F46C60" fill-rule="nonzero">
                                <path d="M20.8786885,4.09508197 C20.3245902,1.59672131 23.4360656,-0.236065574 25.5836066,0.409836066 C24.042623,1.6557377 22.7901639,3.40655738 20.8786885,4.09508197 Z" id="Shape"></path>
                                <path d="M7.09836066,5.8295082 C11.2032787,4.09508197 15.6163934,3.25901639 20.0131148,2.64918033 C19.8983607,3 19.7934426,3.35081967 19.7016393,3.70491803 C15.852459,4.17377049 12.0032787,4.96065574 8.41639344,6.47868852 C6.29508197,7.40983607 4.12786885,8.52459016 2.75737705,10.4655738 C8.01639344,7.5704918 14.1147541,6.67868852 20.0393443,6.44918033 C20.2262295,6.8295082 20.4295082,7.20327869 20.6459016,7.56721311 C15.5704918,7.92786885 10.4098361,8.59016393 5.70491803,10.6360656 C3.47868852,11.6557377 1.13114754,13.1180328 0.367213115,15.5934426 C-0.190163934,13.9672131 -0.0950819672,12.1213115 0.826229508,10.642623 C2.22295082,8.31147541 4.67540984,6.89180328 7.09836066,5.8295082 Z" id="Shape"></path>
                                <path d="M35.3540984,14.1311475 C36.652459,14.0590164 38.0557377,14.5180328 38.704918,15.7245902 C39.9704918,17.8622951 39.1344262,20.504918 37.8688525,22.4327869 C35.5377049,25.9344262 31.895082,28.2754098 28.2491803,30.2229508 C25.947541,31.3737705 23.5967213,32.4295082 21.157377,33.252459 C22.3180328,32.2131148 23.4622951,31.157377 24.5868852,30.0819672 C26.1180328,29.9114754 27.4754098,29.147541 28.8229508,28.4557377 C32.1737705,26.6721311 35.4688525,24.347541 37.3344262,20.9508197 C38,19.8262295 38.1770492,18.5114754 38.0721311,17.2295082 C37.3409836,18.5868852 36.6885246,20.0262295 35.5836066,21.1377049 C33.5311475,23.2557377 30.9081967,24.7967213 28.0852459,25.642623 C28.3213115,25.052459 28.5213115,24.4491803 28.7016393,23.842623 C31.7606557,22.6852459 35.1508197,21.0983607 36.5114754,17.9081967 C37.1639344,16.5245902 36.5770492,14.957377 35.3540984,14.1311475 Z" id="Shape"></path>
                                <path d="M3.07868852,17.4918033 C4.60655738,16.2852459 6.63278689,15.4459016 8.6,15.8196721 C8.07213115,16.7901639 7.13114754,17.4065574 6.3442623,18.147541 C5.22295082,19.1180328 4.19672131,20.2163934 2.9442623,21.0229508 C2.59344262,21.2918033 2.1442623,21.2721311 1.72459016,21.295082 C1.55081967,19.895082 1.93114754,18.3967213 3.07868852,17.4918033 Z" id="Shape"></path>
                                <path d="M15.7180328,18.9901639 C15.1180328,16.7278689 17.8065574,15.3639344 19.7081967,15.5901639 C18.5704918,16.9147541 17.2622951,18.147541 15.7180328,18.9901639 Z" id="Shape"></path>
                            </g>
                            <g id="#f89987ff" transform="translate(2.622951, 4.590164)" fill="#F89987" fill-rule="nonzero">
                                <path d="M5.79344262,2.87213115 C9.38032787,1.35409836 13.2295082,0.567213115 17.0786885,0.0983606557 C17.0262295,1.02622951 17.1016393,1.96721311 17.4163934,2.84262295 C11.4918033,3.07213115 5.39344262,3.96393443 0.13442623,6.85901639 C1.50491803,4.91803279 3.67213115,3.80327869 5.79344262,2.87213115 Z" id="Shape"></path>
                                <path d="M35.4491803,13.6229508 C35.5540984,14.904918 35.3770492,16.2196721 34.7114754,17.3442623 C32.8459016,20.7409836 29.5508197,23.0655738 26.2,24.8491803 C24.852459,25.5409836 23.495082,26.304918 21.9639344,26.4754098 C23.3114754,25.1508197 24.5803279,23.7180328 25.4622951,22.0360656 C28.2852459,21.1901639 30.9081967,19.6491803 32.9606557,17.5311475 C34.0655738,16.4196721 34.7180328,14.9803279 35.4491803,13.6229508 Z" id="Shape"></path>
                            </g>
                        </g>
                    </g>
                </g>
            </g>
        </g>
    </g>
</svg>
