<svg width="40px" height="40px" viewBox="0 0 40 40" version="1.1" xmlns="http://www.w3.org/2000/svg" xmlns:xlink="http://www.w3.org/1999/xlink">
    <!-- Generator: Sketch 48.1 (47250) - http://www.bohemiancoding.com/sketch -->
    <desc>Created with Sketch.</desc>
    <defs></defs>
    <g id="Extras" stroke="none" stroke-width="1" fill="none" fill-rule="evenodd">
        <g id="icebreaker-overlay" transform="translate(-297.000000, -48.000000)">
            <g id="Group-13">
                <g id="Group-11" transform="translate(41.000000, 40.000000)">
                    <g id="Group-10">
                        <g id="Group-5" transform="translate(0.000000, 8.000000)">
                            <g id="unicorn" transform="translate(276.000000, 20.000000) scale(-1, 1) translate(-276.000000, -20.000000) translate(256.000000, 0.000000)">
                                <rect id="Rectangle" x="0" y="0" width="40" height="40"></rect>
                                <g id="#d05e51da" transform="translate(35.483871, 0.000000)" fill="#D05E51" fill-rule="nonzero" opacity="0.85">
                                    <path d="M0.0258064516,2.59677419 C1.17741935,1.73548387 2.31935484,0.861290323 3.50322581,0.0451612903 C2.61290323,1.33548387 1.66129032,2.57741935 0.709677419,3.82258065 C0.480645161,3.41290323 0.251612903,3.00322581 0.0258064516,2.59677419 Z" id="Shape"></path>
                                </g>
                                <g id="#ffe12cff" transform="translate(32.903226, 2.580645)" fill="#FFE12C" fill-rule="nonzero">
                                    <path d="M0.216129032,1.82258065 C1.02258065,1.23225806 1.81612903,0.629032258 2.60645161,0.0161290323 C2.83225806,0.422580645 3.06129032,0.832258065 3.29032258,1.24193548 C2.71935484,1.99354839 2.14516129,2.74193548 1.58064516,3.5 C1.12258065,2.94193548 0.670967742,2.38387097 0.216129032,1.82258065 Z" id="Shape"></path>
                                </g>
                                <g id="#e6ebefff" transform="translate(3.870968, 3.548387)" fill="#E6EBEF" fill-rule="nonzero">
                                    <path d="M17.7935484,3.39354839 C18.5967742,2.15483871 19.6806452,1.12580645 20.8967742,0.293548387 C21.6096774,2.37741935 21.716129,4.60645161 21.6225806,6.79032258 C20.3193548,11.2612903 17.1903226,15.1322581 13.1483871,17.4258065 C14.8806452,17.0193548 16.5612903,16.4419355 18.2193548,15.8129032 C19.0580645,17.2387097 21.1870968,17.5580645 21.3032258,19.4322581 C21.4774194,18.9419355 21.6193548,18.4387097 21.7967742,17.9516129 C22.4096774,18.4387097 22.8903226,19.0548387 23.2387097,19.7548387 C23.6258065,19.1548387 23.5419355,18.4419355 23.4645161,17.7677419 C24.0516129,18.2612903 24.6096774,18.783871 25.1645161,19.3129032 C25.1,18.6806452 25.0193548,18.0483871 24.883871,17.4290323 C25.1483871,17.4870968 25.6806452,17.6064516 25.9483871,17.6677419 C24.9709677,16.3129032 23.3129032,16.9967742 21.9483871,16.9677419 C20.6741935,16.9774194 19.5612903,16.3032258 18.4806452,15.716129 C20.6096774,14.7774194 22.7354839,13.5548387 23.9419355,11.4806452 C27.3096774,15.2225806 30.8612903,18.7935484 34.4032258,22.3677419 C34.7967742,22.7806452 35.3129032,23.2322581 35.1516129,23.8709677 C34.7967742,25.6677419 33.6096774,27.1451613 32.5193548,28.5580645 C31.3677419,28.8225806 30.4354839,29.5645161 29.3870968,30.0548387 C28.2354839,29.7580645 27.2709677,29.0129032 26.2419355,28.4516129 C23.6,26.6290323 19.9354839,26.983871 17.4870968,24.7516129 C16.3096774,23.8419355 16.0741935,22.3064516 16.0225806,20.9129032 C15.7032258,22.6483871 14.5774194,24.083871 14.2258065,25.8064516 C13.4193548,29.3322581 13.9709677,33.0064516 14.9032258,36.4516129 L0.277419355,36.4516129 C0.132258065,35.2677419 0.177419355,34.0741935 0.261290323,32.8903226 L0.293548387,32.6 C0.751612903,26.4806452 2.28387097,20.2709677 5.84516129,15.1806452 C7.45483871,12.8967742 9.45806452,10.8612903 11.8258065,9.36129032 L11.6741935,9.92903226 C10.3129032,12.1741935 9.17741935,14.5548387 7.66451613,16.7064516 C6.35806452,18.6483871 4.73225806,20.3354839 3.12258065,22.0225806 C7.96129032,20.2483871 11.4709677,16.1225806 14.0645161,11.8258065 C15.2,9.80967742 16.4225806,7.76451613 16.8387097,5.45483871 C17.0580645,4.72903226 17.3903226,4.03870968 17.7935484,3.39354839 Z M17.3967742,8.39032258 C17.4741935,9.05806452 17.5483871,10.0225806 18.4064516,10.1032258 C18.4612903,9.42258065 18.4806452,8.73870968 18.4645161,8.05806452 C18.5483871,8.20967742 18.716129,8.51290323 18.8,8.66451613 C18.9258065,8.62258065 19.1806452,8.53225806 19.3096774,8.49032258 C19.3322581,8.93548387 19.3580645,9.38387097 19.3870968,9.82903226 C21.2806452,8.07096774 20.5774194,5.17096774 20.2258065,2.91935484 C18.2,3.8516129 17.2032258,6.25483871 17.3967742,8.39032258 Z M31.5903226,21.8774194 C31.0709677,22.4612903 30.8516129,23.1870968 30.9903226,23.9645161 C31.2451613,23.5419355 31.4806452,23.1096774 31.7741935,22.7096774 C32.3225806,22.4258065 32.9935484,22.5548387 33.5935484,22.4677419 C32.9870968,22.0903226 32.316129,21.8516129 31.5903226,21.8774194 Z M32.3225806,23.6 C31.5741935,24.6806452 33.1225806,25.2064516 33.9580645,24.916129 C33.9741935,24.0870968 33.2193548,22.9709677 32.3225806,23.6 Z M26.3096774,23.6322581 C26.6677419,26.2225806 29.0193548,28.3129032 31.6,28.5258065 C30.9,27.7354839 29.7645161,27.5709677 29.0096774,26.8387097 C27.8612903,25.9870968 27.216129,24.6967742 26.3096774,23.6322581 Z" id="Shape"></path>
                                </g>
                                <g id="#e84d88ff" transform="translate(0.000000, 4.193548)" fill="#E84D88" fill-rule="nonzero">
                                    <path d="M5.35806452,0.283870968 C9.95483871,-0.167741935 14.883871,-0.0709677419 19.0258065,2.22258065 C18.6774194,2.98064516 18.3612903,3.7516129 18.1032258,4.54516129 C14.4451613,1.77096774 9.82258065,0.816129032 5.35806452,0.283870968 Z" id="Shape"></path>
                                    <path d="M4.04193548,3.28709677 C8.72580645,2.9483871 13.516129,3.58064516 17.8645161,5.39354839 C17.7741935,5.76129032 17.6774194,6.12903226 17.5806452,6.49677419 C14.8193548,5.93225806 12,5.65806452 9.18064516,5.76774194 C7.44516129,4.99354839 5.75806452,4.10967742 4.04193548,3.28709677 Z" id="Shape"></path>
                                    <path d="M17.4774194,6.83548387 C18.4677419,6.03225806 19.5677419,5.37741935 20.7096774,4.80967742 C20.2935484,7.11935484 19.0709677,9.16451613 17.9354839,11.1806452 C15.3419355,15.4774194 11.8322581,19.6032258 6.99354839,21.3774194 C8.60322581,19.6903226 10.2290323,18.0032258 11.5354839,16.0612903 C13.0483871,13.9096774 14.183871,11.5290323 15.5451613,9.28387097 C16.1387097,8.42903226 16.8032258,7.62580645 17.4774194,6.83548387 Z" id="Shape"></path>
                                    <path d="M25.4935484,6.14516129 L25.5548387,5.98064516 C26.7935484,7.29677419 28.1225806,8.8 27.8645161,10.7645161 L27.8129032,10.8354839 C26.6064516,12.9096774 24.4806452,14.1322581 22.3516129,15.0709677 L22.0903226,15.1677419 C20.4322581,15.7967742 18.7516129,16.3741935 17.0193548,16.7806452 C21.0612903,14.4870968 24.1903226,10.616129 25.4935484,6.14516129 Z" id="Shape"></path>
                                    <path d="M11.1709677,8.22580645 C12.2129032,8.41290323 13.2451613,8.6483871 14.2806452,8.86129032 C11.416129,9.30322581 8.51612903,9.69677419 5.79677419,10.7580645 C4.1,10.2516129 2.43548387,9.65483871 0.74516129,9.13225806 C4.21935484,8.82903226 7.69677419,8.54193548 11.1709677,8.22580645 Z" id="Shape"></path>
                                    <path d="M6.53870968,12.6709677 C7.38709677,12.6548387 8.23870968,12.6741935 9.08709677,12.6935484 C7.37419355,13.4548387 5.56451613,14.1225806 4.19032258,15.4516129 C3.06774194,15.2903226 1.94516129,15.1225806 0.825806452,14.9322581 C2.75806452,14.2451613 4.6516129,13.4709677 6.53870968,12.6709677 Z" id="Shape"></path>
                                    <path d="M0.303225806,19.7032258 C0.858064516,18.5967742 1.61612903,17.5903226 2.66129032,16.9032258 C4.02580645,17.3096774 5.42903226,16.8612903 6.80967742,16.8032258 C5.36451613,17.7258065 3.85806452,18.5903226 2.63870968,19.8129032 L2.94516129,19.5096774 C2.06451613,19.583871 1.18387097,19.6483871 0.303225806,19.7032258 Z" id="Shape"></path>
                                    <path d="M1.92580645,28.6354839 C2.84516129,27.2870968 3.31612903,25.6935484 4.27096774,24.3645161 C4.14193548,26.0483871 3.68387097,27.683871 3.11935484,29.2677419 C2.19032258,29.5483871 1.25806452,29.8193548 0.322580645,30.083871 C0.75483871,29.1548387 1.21612903,28.2387097 1.65806452,27.3129032 C1.73870968,27.7548387 1.82903226,28.1967742 1.92580645,28.6354839 Z" id="Shape"></path>
                                    <path d="M2.37096774,32.0483871 C2.96774194,32.016129 3.56451613,31.9870968 4.16451613,31.9548387 L4.13225806,32.2451613 C3.97419355,32.4548387 3.80967742,32.6612903 3.64516129,32.8645161 C2.76129032,33.5709677 1.77096774,34.1225806 0.725806452,34.5451613 C1.29677419,33.7290323 1.85483871,32.9032258 2.37096774,32.0483871 Z" id="Shape"></path>
                                </g>
                                <g id="#99a8aeff" transform="translate(17.419355, 3.870968)" fill="#99A8AE" fill-rule="nonzero">
                                    <path d="M1.60645161,2.54516129 C2.01612903,1.68387097 2.51935484,0.867741935 3.06129032,0.0806451613 C3.50322581,1.05806452 3.89032258,2.05806452 4.24516129,3.07096774 C3.84193548,3.71612903 3.50967742,4.40645161 3.29032258,5.13225806 C2.1483871,5.7 1.0483871,6.35483871 0.0580645161,7.15806452 L0.161290323,6.81935484 C0.258064516,6.4516129 0.35483871,6.08387097 0.44516129,5.71612903 C0.519354839,5.43225806 0.6,5.1483871 0.683870968,4.86774194 C0.941935484,4.07419355 1.25806452,3.30322581 1.60645161,2.54516129 Z" id="Shape"></path>
                                    <path d="M3.8483871,8.06774194 C3.65483871,5.93225806 4.6516129,3.52903226 6.67741935,2.59677419 C7.02903226,4.8483871 7.73225806,7.7483871 5.83870968,9.50645161 C5.80967742,9.06129032 5.78387097,8.61290323 5.76129032,8.16774194 C5.63225806,8.20967742 5.37741935,8.3 5.2516129,8.34193548 C5.16774194,8.19032258 5,7.88709677 4.91612903,7.73548387 C4.93225806,8.41612903 4.91290323,9.1 4.85806452,9.78064516 C4,9.7 3.92580645,8.73548387 3.8483871,8.06774194 Z" id="Shape"></path>
                                    <path d="M0.677419355,25.483871 C1.02903226,23.7612903 2.15483871,22.3258065 2.47419355,20.5903226 C2.52580645,21.983871 2.76129032,23.5193548 3.93870968,24.4290323 C6.38709677,26.6612903 10.0516129,26.3064516 12.6935484,28.1290323 C10.3806452,27.3419355 7.87741935,27.2483871 5.63548387,26.2548387 C4.00322581,25.5903226 2.67419355,24.2774194 2.13225806,22.5806452 C1.87419355,24.4096774 1.91290323,26.2903226 2.42580645,28.0741935 C3.2516129,30.9419355 4.51612903,33.7064516 6.27096774,36.1290323 L1.35483871,36.1290323 C0.422580645,32.683871 -0.129032258,29.0096774 0.677419355,25.483871 Z" id="Shape"></path>
                                    <path d="M18.7741935,23.2774194 C19.6709677,22.6483871 20.4258065,23.7645161 20.4096774,24.5935484 C19.5741935,24.883871 18.0258065,24.3580645 18.7741935,23.2774194 Z" id="Shape"></path>
                                </g>
                                <g id="#d3ff75ff" transform="translate(30.645161, 4.193548)" fill="#D3FF75" fill-rule="nonzero">
                                    <path d="M0.0483870968,2.02580645 C0.861290323,1.42903226 1.66774194,0.819354839 2.47419355,0.209677419 C2.92903226,0.770967742 3.38064516,1.32903226 3.83870968,1.88709677 C3.29354839,2.62258065 2.7483871,3.36129032 2.19677419,4.09354839 C2.0516129,3.95806452 1.76451613,3.68709677 1.61935484,3.5516129 C1.1,3.03870968 0.577419355,2.53225806 0.0483870968,2.02580645 Z" id="Shape"></path>
                                </g>
                                <g id="#59ffbaff" transform="translate(28.064516, 6.129032)" fill="#59FFBA" fill-rule="nonzero">
                                    <path d="M0.132258065,1.95806452 C0.964516129,1.33870968 1.79677419,0.712903226 2.62903226,0.0903225806 C3.15806452,0.596774194 3.68064516,1.10322581 4.2,1.61612903 C4.33870968,1.76451613 4.61612903,2.06451613 4.75483871,2.21290323 C4.18387097,2.89032258 3.7516129,3.92903226 2.7483871,4.01290323 C1.84193548,3.37096774 0.993548387,2.65483871 0.132258065,1.95806452 Z" id="Shape"></path>
                                </g>
                                <g id="#75d6ffff" transform="translate(25.483871, 8.064516)" fill="#75D6FF" fill-rule="nonzero">
                                    <path d="M0.0709677419,2.10967742 C0.870967742,1.31935484 1.81935484,0.7 2.71290323,0.0225806452 C3.57419355,0.719354839 4.42258065,1.43548387 5.32903226,2.07741935 C5.38064516,2.3516129 5.43548387,2.62258065 5.48387097,2.9 C5.06774194,3.32903226 4.67419355,3.78387097 4.33548387,4.28064516 C2.94516129,3.5 1.53548387,2.74193548 0.0709677419,2.10967742 Z" id="Shape"></path>
                                </g>
                                <g id="#ff8fa8ff" transform="translate(0.000000, 9.677419)" fill="#FF8FA8" fill-rule="nonzero">
                                    <path d="M2.86129032,1.13870968 C4.94193548,0.687096774 7.05483871,0.393548387 9.18064516,0.283870968 C12,0.174193548 14.8193548,0.448387097 17.5806452,1.01290323 L17.4774194,1.3516129 C16.8032258,2.14193548 16.1387097,2.94516129 15.5451613,3.8 L15.6967742,3.23225806 C13.3290323,4.73225806 11.3258065,6.76774194 9.71612903,9.0516129 C6.15483871,14.1419355 4.62258065,20.3516129 4.16451613,26.4709677 C3.56451613,26.5032258 2.96774194,26.5322581 2.37096774,26.5645161 L1.55806452,26.6096774 C2.2,25.7419355 2.75483871,24.8064516 3.11935484,23.783871 C3.68387097,22.2 4.14193548,20.5645161 4.27096774,18.8806452 C3.31612903,20.2096774 2.84516129,21.8032258 1.92580645,23.1516129 C1.82903226,22.7129032 1.73870968,22.2709677 1.65806452,21.8290323 C1.84193548,20.8225806 2.01290323,19.8129032 2.27419355,18.8225806 C1.63870968,19.2096774 0.996774194,19.583871 0.364516129,19.9709677 C1.38064516,18.7903226 2.13225806,17.4225806 2.9483871,16.1032258 C2.07096774,16.5483871 1.19677419,17 0.316129032,17.4387097 C0.951612903,16.3064516 1.68064516,15.216129 2.63870968,14.3290323 C3.85806452,13.1064516 5.36451613,12.2419355 6.80967742,11.3193548 C5.42903226,11.3774194 4.02580645,11.8258065 2.66129032,11.4193548 C3.20645161,10.9709677 3.67741935,10.4483871 4.19032258,9.96774194 C5.56451613,8.63870968 7.37419355,7.97096774 9.08709677,7.20967742 C8.23870968,7.19032258 7.38709677,7.17096774 6.53870968,7.18709677 C5.01290323,7.17741935 3.48387097,7.18387097 1.95806452,7.16451613 C3.15806452,6.38387097 4.45483871,5.76451613 5.79677419,5.27419355 C8.51612903,4.21290323 11.416129,3.81935484 14.2806452,3.37741935 C13.2451613,3.16451613 12.2129032,2.92903226 11.1709677,2.74193548 C8.39354839,2.24193548 5.62903226,1.67741935 2.86129032,1.13870968 Z" id="Shape"></path>
                                    <path d="M3.64516129,27.3806452 C3.80967742,27.1774194 3.97419355,26.9709677 4.13225806,26.7612903 C4.0483871,27.9451613 4.00322581,29.1387097 4.1483871,30.3225806 L2.32580645,30.3225806 C2.72903226,29.3258065 3.07096774,28.2967742 3.64516129,27.3806452 Z" id="Shape"></path>
                                </g>
                                <g id="#c28fefff" transform="translate(25.483871, 10.000000)" fill="#C28FEF" fill-rule="nonzero">
                                    <path d="M0.0709677419,0.174193548 C1.53548387,0.806451613 2.94516129,1.56451613 4.33548387,2.34516129 C3.70645161,3.22903226 3.01935484,4.07741935 2.38064516,4.95806452 C2.63870968,2.99354839 1.30967742,1.49032258 0.0709677419,0.174193548 Z" id="Shape"></path>
                                </g>
                                <g id="#302c3bff" transform="translate(21.935484, 19.032258)" fill="#302C3B" fill-rule="nonzero">
                                    <path d="M0.15483871,0.329032258 L0.416129032,0.232258065 C1.49677419,0.819354839 2.60967742,1.49354839 3.88387097,1.48387097 C5.2483871,1.51290323 6.90645161,0.829032258 7.88387097,2.18387097 C7.61612903,2.12258065 7.08387097,2.00322581 6.81935484,1.94516129 C6.95483871,2.56451613 7.03548387,3.19677419 7.1,3.82903226 C6.54516129,3.3 5.98709677,2.77741935 5.4,2.28387097 C5.47741935,2.95806452 5.56129032,3.67096774 5.17419355,4.27096774 C4.82580645,3.57096774 4.34516129,2.95483871 3.73225806,2.46774194 C3.55483871,2.95483871 3.41290323,3.45806452 3.23870968,3.9483871 C3.12258065,2.07419355 0.993548387,1.75483871 0.15483871,0.329032258 Z" id="Shape"></path>
                                </g>
                                <g id="#afbac0ff" transform="translate(34.516129, 25.161290)" fill="#AFBAC0" fill-rule="nonzero">
                                    <path d="M0.94516129,0.264516129 C1.67096774,0.238709677 2.34193548,0.477419355 2.9483871,0.85483871 C2.3483871,0.941935484 1.67741935,0.812903226 1.12903226,1.09677419 C0.835483871,1.49677419 0.6,1.92903226 0.34516129,2.3516129 C0.206451613,1.57419355 0.425806452,0.848387097 0.94516129,0.264516129 Z" id="Shape"></path>
                                </g>
                                <g id="#a6b2b8ff" transform="translate(30.000000, 27.096774)" fill="#A6B2B8" fill-rule="nonzero">
                                    <path d="M0.180645161,0.0838709677 C1.08709677,1.1483871 1.73225806,2.43870968 2.88064516,3.29032258 C3.63548387,4.02258065 4.77096774,4.18709677 5.47096774,4.97741935 C2.89032258,4.76451613 0.538709677,2.67419355 0.180645161,0.0838709677 Z" id="Shape"></path>
                                </g>
                            </g>
                        </g>
                    </g>
                </g>
            </g>
        </g>
    </g>
</svg>
