<svg width="34px" height="40px" viewBox="0 0 34 40" version="1.1" xmlns="http://www.w3.org/2000/svg" xmlns:xlink="http://www.w3.org/1999/xlink">
    <!-- Generator: Sketch 48.1 (47250) - http://www.bohemiancoding.com/sketch -->
    <desc>Created with Sketch.</desc>
    <defs></defs>
    <g id="Extras" stroke="none" stroke-width="1" fill="none" fill-rule="evenodd">
        <g id="icebreaker-overlay" transform="translate(-109.000000, -115.000000)">
            <g id="Group-13">
                <g id="Group-11" transform="translate(41.000000, 40.000000)">
                    <g id="Group-7" transform="translate(0.000000, 75.000000)">
                        <g id="flower2" transform="translate(64.000000, 0.000000)">
                            <rect id="Rectangle" x="0" y="0" width="40" height="40"></rect>
                            <g id="#feec9aff" transform="translate(4.000000, 0.000000)" fill="#FEEC9A" fill-rule="nonzero">
                                <path d="M13.2266667,1.6 C14.8666667,-0.506666667 18.4533333,-0.513333333 20.1,1.59 C21.1666667,2.88333333 21.2,4.67 20.9966667,6.25333333 C20.72,8.01333333 20.21,9.72333333 19.5566667,11.3766667 C17.7533333,10.4666667 15.5766667,10.4666667 13.7766667,11.3766667 C13.1233333,9.72333333 12.6133333,8.01 12.3366667,6.25333333 C12.1366667,4.67333333 12.1633333,2.89 13.2266667,1.6 Z" id="Shape"></path>
                                <path d="M1.59333333,13.23 C2.88666667,12.1633333 4.67,12.1366667 6.25,12.3366667 C8.01,12.6166667 9.72333333,13.12 11.3766667,13.7766667 C10.4666667,15.5766667 10.47,17.7566667 11.3766667,19.5566667 C9.72333333,20.21 8.01333333,20.72 6.25333333,20.9966667 C4.67333333,21.1966667 2.89,21.17 1.59666667,20.1066667 C-0.51,18.4633333 -0.51,14.8766667 1.59333333,13.23 Z" id="Shape"></path>
                                <path d="M21.9566667,13.7766667 C23.61,13.12 25.3233333,12.6166667 27.0833333,12.3333333 C28.67,12.1333333 30.46,12.1666667 31.75,13.24 C33.8466667,14.89 33.8366667,18.4666667 31.7333333,20.1066667 C30.4433333,21.1666667 28.6633333,21.1966667 27.0833333,20.9966667 C25.3233333,20.7166667 23.61,20.21 21.9566667,19.5566667 C22.8633333,17.7566667 22.8666667,15.5766667 21.9566667,13.7766667 Z" id="Shape"></path>
                                <path d="M13.7766667,21.9566667 C15.5766667,22.8666667 17.7566667,22.8666667 19.5566667,21.9566667 C20.2066667,23.61 20.72,25.32 20.9966667,27.08 C21.1466667,28.4333333 21.2,29.9033333 20.51,31.1266667 C19.9733333,32.1566667 18.96,32.8733333 17.86,33.1833333 C17.24,33.2533333 16.6233333,33.3133333 16,33.3266667 C13.9166667,32.99 12.3333333,31.1866667 12.2233333,29.0833333 C12.2366667,28.42 12.2733333,27.7533333 12.3366667,27.09 C12.61,25.3266667 13.1233333,23.6133333 13.7766667,21.9566667 Z" id="Shape"></path>
                            </g>
                            <g id="#ffe12cff" transform="translate(7.333333, 3.333333)" fill="#FFE12C" fill-rule="nonzero">
                                <path d="M0.236666667,5.00666667 C-0.01,2.42333333 2.41666667,-0.01 5,0.236666667 C6.70333333,0.353333333 8.06,1.59 9.00333333,2.92 C9.28,4.67666667 9.79,6.39 10.4433333,8.04333333 C9.48,8.66 8.65666667,9.48 8.04333333,10.4433333 C6.39,9.78666667 4.67666667,9.28333333 2.91666667,9.00333333 C1.59,8.06333333 0.356666667,6.70666667 0.236666667,5.00666667 Z" id="Shape"></path>
                                <path d="M17.6633333,2.92 C18.6066667,1.59 19.9633333,0.356666667 21.6633333,0.236666667 C24.2433333,-0.01 26.67,2.41333333 26.43,4.99333333 C26.3133333,6.69666667 25.08,8.06 23.75,9 C21.99,9.28333333 20.2766667,9.78666667 18.6233333,10.4433333 C18.01,9.48 17.1866667,8.65666667 16.2233333,8.04333333 C16.8766667,6.39 17.3866667,4.68 17.6633333,2.92 Z" id="Shape"></path>
                                <path d="M2.92,17.6633333 C4.68,17.3866667 6.39,16.8766667 8.04333333,16.2233333 C8.65666667,17.1866667 9.48,18.01 10.4433333,18.6233333 C9.79,20.28 9.27666667,21.9933333 9.00333333,23.7566667 C8.58333333,24.3066667 8.12,24.8266667 7.62333333,25.3033333 C6.60333333,26.0966667 5.31,26.6466667 4,26.3866667 C2.94666667,26.2666667 2.10666667,25.5766667 1.31666667,24.93 C0.533333333,23.9066667 0.03,22.59 0.286666667,21.2866667 C0.543333333,19.7433333 1.69333333,18.54 2.92,17.6633333 Z" id="Shape"></path>
                                <path d="M16.2233333,18.6233333 C17.1866667,18.01 18.01,17.1866667 18.6233333,16.2233333 C20.2766667,16.8766667 21.99,17.3833333 23.75,17.6633333 C25.0766667,18.6033333 26.3066667,19.96 26.43,21.66 C26.68,24.25 24.24,26.6833333 21.6533333,26.4266667 C19.9566667,26.3033333 18.6033333,25.0733333 17.6633333,23.7466667 C17.3866667,21.9866667 16.8733333,20.2766667 16.2233333,18.6233333 Z" id="Shape"></path>
                            </g>
                            <g id="#eb8b00ff" transform="translate(14.666667, 10.666667)" fill="#EB8B00" fill-rule="nonzero">
                                <path d="M3.11,0.71 C4.91,-0.2 7.08666667,-0.2 8.89,0.71 C9.85333333,1.32333333 10.6766667,2.14666667 11.29,3.11 C12.2,4.91 12.1966667,7.09 11.29,8.89 C10.6766667,9.85333333 9.85333333,10.6766667 8.89,11.29 C7.09,12.2 4.91,12.2 3.11,11.29 C2.14666667,10.6766667 1.32333333,9.85333333 0.71,8.89 C-0.196666667,7.09 -0.2,4.91 0.71,3.11 C1.32333333,2.14666667 2.14666667,1.32666667 3.11,0.71 Z" id="Shape"></path>
                            </g>
                            <g id="#92c932ff" transform="translate(5.666667, 28.000000)" fill="#92C932" fill-rule="nonzero">
                                <path d="M0.07,0.41 C1.01333333,0.25 2.06666667,-0.07 2.98333333,0.263333333 C3.77333333,0.91 4.61333333,1.6 5.66666667,1.72 C6.97666667,1.98 8.27,1.43 9.29,0.636666667 C9.71,0.786666667 10.1333333,0.936666667 10.5566667,1.08333333 C10.6666667,3.18666667 12.25,4.99 14.3333333,5.32666667 C14.34,6.44333333 14.3333333,7.56 14.3033333,8.67666667 C12.7333333,7.45333333 11.1966667,6.17333333 9.45333333,5.2 C6.54333333,3.44 3.32333333,2.31333333 0.283333333,0.813333333 C0.23,0.713333333 0.123333333,0.51 0.07,0.41 Z" id="Shape"></path>
                                <path d="M16.6366667,5.56 C19.2066667,3.15 22.96,2.66666667 26.3333333,2.51666667 C22.7266667,5.14 18.8866667,7.54 16.0066667,11.01 C15.5266667,9.64666667 15.2633333,8.12 15.9333333,6.76666667 C16.2133333,6.48666667 16.6233333,6.23333333 16.6,5.78 L16.6366667,5.56 Z" id="Shape"></path>
                            </g>
                            <g id="#78b41dff" transform="translate(4.666667, 28.666667)" fill="#78B41D" fill-rule="nonzero">
                                <path d="M0.05,0.176666667 C0.456666667,0.0866666667 0.87,0.116666667 1.28333333,0.146666667 C4.32333333,1.64666667 7.54333333,2.77333333 10.4533333,4.53333333 C12.1966667,5.50666667 13.7333333,6.78666667 15.3033333,8.01 C15.3333333,6.89333333 15.34,5.77666667 15.3333333,4.66 C15.9566667,4.64666667 16.5733333,4.58666667 17.1933333,4.51666667 L16.8433333,5.41333333 C17.0866667,5.29333333 17.34,5.19333333 17.6,5.11333333 C17.6233333,5.56666667 17.2133333,5.82 16.9333333,6.1 C16.2633333,7.45333333 16.5266667,8.98 17.0066667,10.3433333 C19.8866667,6.87333333 23.7266667,4.47333333 27.3333333,1.85 C27.4766667,1.81333333 27.77,1.73666667 27.9166667,1.7 C27.7666667,4.68666667 27.0733333,8.00666667 24.66,10.0133333 C22.6366667,11.6666667 19.7866667,11.57 17.44,10.7333333 C17.39,10.87 17.2866667,11.1466667 17.2333333,11.2833333 C16.3833333,11.34 15.5333333,11.3 14.6833333,11.3133333 C14.7266667,10.3433333 14.7533333,9.37666667 14.7966667,8.41 C12.11,9.85333333 8.67666667,10.7233333 5.85333333,9.15333333 C2.55666667,7.34666667 0.973333333,3.63666667 0.05,0.176666667 Z" id="Shape"></path>
                            </g>
                        </g>
                    </g>
                </g>
            </g>
        </g>
    </g>
</svg>
