<svg width="40px" height="40px" viewBox="0 0 40 40" version="1.1" xmlns="http://www.w3.org/2000/svg" xmlns:xlink="http://www.w3.org/1999/xlink">
    <!-- Generator: Sketch 48.1 (47250) - http://www.bohemiancoding.com/sketch -->
    <desc>Created with Sketch.</desc>
    <defs></defs>
    <g id="Extras" stroke="none" stroke-width="1" fill="none" fill-rule="evenodd">
        <g id="icebreaker-overlay" transform="translate(-105.000000, -179.000000)">
            <g id="Group-13">
                <g id="Group-11" transform="translate(41.000000, 40.000000)">
                    <g id="Group-8" transform="translate(0.000000, 139.000000)">
                        <g id="heart2" transform="translate(64.000000, 0.000000)">
                            <rect id="Rectangle" x="0" y="0" width="40" height="40"></rect>
                            <g id="#cfd8ddff" fill="#CFD8DD" fill-rule="nonzero">
                                <path d="M0.00983606557,0.301639344 C0.321311475,0.445901639 0.944262295,0.73442623 1.2557377,0.875409836 L1.35081967,0.983606557 C2.28196721,2.07540984 3.68852459,2.59016393 4.73114754,3.56065574 C3.83606557,3.37704918 2.98688525,3.0295082 2.20327869,2.56065574 C2.84590164,3.51803279 3.43278689,4.55409836 3.44918033,5.73770492 C3.69508197,5.55409836 3.91147541,5.33442623 4.16721311,5.15737705 C4.2557377,5.18360656 4.43278689,5.23278689 4.52131148,5.25901639 C4.46885246,5.69180328 4.41967213,6.12459016 4.37377049,6.55737705 C3.80327869,6.42295082 3.09180328,6.58032787 2.60655738,6.25901639 C1.6852459,4.30163934 0.862295082,2.29508197 0.00983606557,0.301639344 Z" id="Shape"></path>
                            </g>
                            <g id="#6e8189ff" transform="translate(1.311475, 0.983607)" fill="#6E8189" fill-rule="nonzero">
                                <path d="M0.0393442623,0 C1.72786885,0.436065574 3.28196721,1.29180328 4.86885246,2 C4.89836066,2.8295082 4.92131148,3.65901639 4.96721311,4.4852459 C4.59672131,4.86557377 4.22622951,5.24590164 3.83278689,5.6 C3.63934426,5.59344262 3.2557377,5.58032787 3.06229508,5.57377049 C3.10819672,5.14098361 3.15737705,4.70819672 3.20983607,4.27540984 L3.9442623,4.50819672 C3.78360656,4.23934426 3.46557377,3.69508197 3.30491803,3.42622951 C3.61311475,3.2295082 3.92131148,3.03606557 4.2295082,2.84262295 C3.96065574,2.75737705 3.68852459,2.66885246 3.41967213,2.57704918 C2.37704918,1.60655738 0.970491803,1.09180328 0.0393442623,0 Z" id="Shape"></path>
                            </g>
                            <g id="#e6ebefff" transform="translate(1.967213, 2.295082)" fill="#E6EBEF" fill-rule="nonzero">
                                <path d="M0.236065574,0.26557377 C1.01967213,0.73442623 1.86885246,1.08196721 2.76393443,1.26557377 C3.03278689,1.35737705 3.30491803,1.44590164 3.57377049,1.53114754 C3.26557377,1.72459016 2.95737705,1.91803279 2.64918033,2.1147541 C2.80983607,2.38360656 3.12786885,2.92786885 3.28852459,3.19672131 L2.55409836,2.96393443 C2.46557377,2.93770492 2.28852459,2.88852459 2.2,2.86229508 C1.9442623,3.03934426 1.72786885,3.25901639 1.48196721,3.44262295 C1.46557377,2.25901639 0.878688525,1.22295082 0.236065574,0.26557377 Z" id="Shape"></path>
                            </g>
                            <g id="#014d87ff" transform="translate(4.918033, 5.245902)" fill="#014D87" fill-rule="nonzero">
                                <path d="M0.226229508,1.33770492 C0.619672131,0.983606557 0.990163934,0.603278689 1.36065574,0.22295082 C2.04262295,0.901639344 2.73114754,1.57377049 3.43278689,2.22622951 C2.91147541,2.47540984 2.4,2.75081967 1.90819672,3.05901639 C1.33442623,2.50163934 0.773770492,1.92786885 0.226229508,1.33770492 Z" id="Shape"></path>
                                <path d="M16.1770492,17.3672131 C16.7278689,17.1409836 17.2655738,16.8885246 17.8065574,16.6360656 C19.6098361,18.5213115 21.4721311,20.347541 23.3311475,22.1803279 C23.347541,22.1934426 23.3836066,22.2262295 23.4,22.242623 C25.147541,23.9016393 26.8590164,25.6 28.5147541,27.3540984 C28.8065574,27.6622951 29.104918,27.9672131 29.4065574,28.2721311 C29.6229508,28.4918033 29.8393443,28.7081967 30.0590164,28.9278689 C30.495082,29.3639344 30.9278689,29.8032787 31.3672131,30.2393443 C31.1213115,30.7540984 30.7278689,31.1442623 30.2,31.3737705 C29.7770492,30.9442623 29.3540984,30.5180328 28.9278689,30.0918033 C28.7081967,29.8688525 28.4885246,29.6459016 28.2655738,29.4262295 C27.9639344,29.1213115 27.6557377,28.8229508 27.3442623,28.5278689 C25.5803279,26.8786885 23.8918033,25.1540984 22.2295082,23.4032787 C22.2065574,23.3836066 22.1672131,23.3377049 22.147541,23.3147541 C20.1672131,21.3213115 18.2065574,19.3081967 16.1770492,17.3672131 Z" id="Shape"></path>
                            </g>
                            <g id="#e81c27ff" transform="translate(2.295082, 6.557377)" fill="#E81C27" fill-rule="nonzero">
                                <path d="M6.0557377,0.914754098 C10.4,-1.07213115 16.2,0.252459016 18.7180328,4.46557377 C19.9868852,2.49180328 21.9540984,0.960655738 24.242623,0.370491803 C26.1409836,-0.183606557 28.1606557,-0.0327868852 30.0655738,0.409836066 C31.1737705,1.81967213 32.6065574,3.03606557 33.2295082,4.76721311 C34.347541,7.44590164 34.0360656,10.5344262 32.7737705,13.104918 C31.504918,15.7245902 29.7409836,18.0885246 27.8032787,20.2491803 C27.3770492,20.8754098 26.6262295,20.842623 25.9540984,20.8688525 C24.095082,19.0360656 22.2327869,17.2098361 20.4295082,15.3245902 C20.2819672,15.1606557 19.9868852,14.8295082 19.8393443,14.6622951 C20.8655738,14.1278689 21.9901639,13.8393443 23.0819672,13.4721311 C21.2098361,12.7114754 18.6983607,13.1344262 17.3770492,14.7377049 C16.6491803,15.6262295 16.6131148,16.8196721 16.6131148,17.9114754 C17.2393443,17.2065574 17.8163934,16.4590164 18.442623,15.7540984 L18.8,16.0557377 C20.8295082,17.9967213 22.7901639,20.0098361 24.7704918,22.0032787 C25.1737705,23.6557377 23.642623,24.5967213 22.6229508,25.5770492 C21.4557377,26.5934426 20.4590164,27.8131148 19.1770492,28.6885246 C18.5245902,29.1606557 17.7213115,28.7803279 17.095082,28.4688525 C16.1606557,27.9606557 15.2,27.5081967 14.1967213,27.1639344 C10.8754098,24.4852459 7.56393443,21.7442623 4.58688525,18.6688525 C2.40327869,16.3442623 0.475409836,13.4786885 0.347540984,10.1868852 C0.104918033,6.88852459 1.75409836,3.54754098 4.53114754,1.74754098 C5.02295082,1.43934426 5.53442623,1.16393443 6.0557377,0.914754098 Z M4.59016393,3.59672131 C3,4.75737705 2.03278689,6.87868852 2.67868852,8.81639344 C4.00327869,8.73770492 4.98688525,7.75081967 5.94098361,6.9442623 C7.59016393,5.41639344 9.3147541,3.96721311 10.9344262,2.40983607 C11.3639344,2.07868852 10.9737705,1.53442623 10.4918033,1.63606557 C8.38032787,1.52459016 6.27213115,2.35081967 4.59016393,3.59672131 Z M20.2819672,5.7147541 C21.5213115,5.41639344 22.3606557,4.41311475 23.2885246,3.61967213 C24.0131148,2.9442623 24.8557377,2.36393443 25.3737705,1.49836066 C22.9803279,1.16721311 19.6852459,2.90163934 20.2819672,5.7147541 Z" id="Shape"></path>
                            </g>
                            <g id="#c21413ff" transform="translate(16.393443, 6.885246)" fill="#C21413" fill-rule="nonzero">
                                <path d="M15.9672131,0.0819672131 C18.9770492,0.931147541 21.5672131,3.26557377 22.5278689,6.26557377 C23.5836066,9.51803279 22.7934426,13.1704918 20.7704918,15.8852459 C19.5704918,17.4459016 18.3508197,19.104918 16.6983607,20.2032787 C15.147541,20.642623 13.5213115,20.6327869 11.9245902,20.6032787 C11.9081967,20.5868852 11.8721311,20.5540984 11.8557377,20.5409836 C12.5278689,20.5147541 13.2786885,20.547541 13.704918,19.9213115 C15.642623,17.7606557 17.4065574,15.3967213 18.6754098,12.7770492 C19.9377049,10.2065574 20.2491803,7.11803279 19.1311475,4.43934426 C18.5081967,2.70819672 17.0754098,1.49180328 15.9672131,0.0819672131 Z" id="Shape"></path>
                                <path d="M10.6721311,21.6754098 C10.6918033,21.6983607 10.7311475,21.7442623 10.7540984,21.7639344 C10.7836066,23.0786885 10.7639344,24.4 10.5639344,25.7016393 C8.5704918,27.3245902 6.59344262,28.9704918 4.59016393,30.5868852 C3.09180328,29.3377049 1.5147541,28.1803279 0.0983606557,26.8360656 C1.10163934,27.1803279 2.06229508,27.6327869 2.99672131,28.1409836 C3.62295082,28.452459 4.42622951,28.8327869 5.07868852,28.3606557 C6.36065574,27.4852459 7.35737705,26.2655738 8.52459016,25.2491803 C9.5442623,24.2688525 11.0754098,23.3278689 10.6721311,21.6754098 Z" id="Shape"></path>
                            </g>
                            <g id="#f46c60ff" transform="translate(4.590164, 7.868852)" fill="#F46C60" fill-rule="nonzero">
                                <path d="M2.29508197,2.2852459 C3.97704918,1.03934426 6.0852459,0.213114754 8.19672131,0.324590164 C8.67868852,0.22295082 9.06885246,0.767213115 8.63934426,1.09836066 C7.01967213,2.6557377 5.29508197,4.10491803 3.64590164,5.63278689 C2.69180328,6.43934426 1.70819672,7.42622951 0.383606557,7.50491803 C-0.262295082,5.56721311 0.704918033,3.44590164 2.29508197,2.2852459 Z" id="Shape"></path>
                                <path d="M17.9868852,4.40327869 C17.3901639,1.59016393 20.6852459,-0.144262295 23.0786885,0.186885246 C22.5606557,1.05245902 21.7180328,1.63278689 20.9934426,2.30819672 C20.0655738,3.10163934 19.2262295,4.10491803 17.9868852,4.40327869 Z" id="Shape"></path>
                            </g>
                            <g id="#b00505ff" transform="translate(18.688525, 19.344262)" fill="#B00505" fill-rule="nonzero">
                                <path d="M0.983606557,1.95081967 C2.30491803,0.347540984 4.81639344,-0.0754098361 6.68852459,0.685245902 C5.59672131,1.05245902 4.47213115,1.34098361 3.44590164,1.87540984 C2.95409836,2.20327869 2.48196721,2.56393443 2.04918033,2.96721311 C1.42295082,3.67213115 0.845901639,4.41967213 0.219672131,5.12459016 C0.219672131,4.03278689 0.255737705,2.83934426 0.983606557,1.95081967 Z" id="Shape"></path>
                            </g>
                            <g id="#0c3262fe" transform="translate(20.655738, 20.983607)" fill="#0C3262" fill-rule="nonzero">
                                <path d="M0.0819672131,1.32786885 C0.514754098,0.924590164 0.986885246,0.563934426 1.47868852,0.236065574 C1.62622951,0.403278689 1.92131148,0.73442623 2.06885246,0.898360656 C1.52786885,1.15081967 0.990163934,1.40327869 0.439344262,1.6295082 L0.0819672131,1.32786885 Z" id="Shape"></path>
                            </g>
                            <g id="#018bc9ff" transform="translate(26.557377, 26.885246)" fill="#018BC9" fill-rule="nonzero">
                                <path d="M1.76065574,0.603278689 C3.35737705,0.632786885 4.98360656,0.642622951 6.53442623,0.203278689 L6.95409836,0.0950819672 C7.27213115,0.413114754 7.59344262,0.737704918 7.90819672,1.06229508 C7.44262295,1.49180328 6.86229508,1.74098361 6.26557377,1.92131148 C7.01311475,1.8295082 7.76721311,1.67868852 8.52131148,1.76065574 C9.05245902,1.9147541 9.29508197,2.44262295 9.58360656,2.85901639 C9.18688525,3.06229508 8.78688525,3.26229508 8.38360656,3.45901639 C8.98032787,3.40983607 9.58032787,3.38032787 10.1803279,3.3704918 C10.8065574,4.01639344 11.4918033,4.60327869 12.1180328,5.25245902 C11.9704918,5.12459016 11.6754098,4.87540984 11.5278689,4.74754098 C10.0098361,5.21639344 8.44262295,5.48196721 6.87540984,5.7147541 C5.21967213,3.96065574 3.50819672,2.26229508 1.76065574,0.603278689 Z" id="Shape"></path>
                                <path d="M0.590163934,1.76393443 C2.25245902,3.5147541 3.94098361,5.23934426 5.70491803,6.88852459 C5.46229508,8.4557377 5.19672131,10.0262295 4.74098361,11.5508197 C4.86557377,11.6983607 5.11803279,11.9967213 5.24262295,12.147541 C4.59672131,11.5016393 3.99344262,10.8196721 3.3442623,10.1803279 C3.36721311,9.59344262 3.40655738,9.00655738 3.46557377,8.42295082 C3.25901639,8.82295082 3.04262295,9.21967213 2.82622951,9.61639344 C1.4295082,9.06229508 1.67868852,7.50491803 1.88852459,6.30819672 C1.69836066,6.8557377 1.47213115,7.39672131 1.19672131,7.90819672 C0.783606557,7.6557377 0.416393443,7.33114754 0.0786885246,6.98360656 C0.160655738,6.66229508 0.321311475,6.02295082 0.4,5.70163934 C0.6,4.4 0.619672131,3.07868852 0.590163934,1.76393443 Z" id="Shape"></path>
                                <path d="M12.4,5.49180328 C12.5508197,5.73114754 12.7016393,5.97377049 12.852459,6.21639344 C11.5147541,7.00655738 9.92786885,7.13114754 8.41967213,7.28852459 C8.2,7.06885246 7.98360656,6.85245902 7.76721311,6.63278689 C9.33114754,6.35081967 10.9278689,6.13770492 12.4,5.49180328 Z" id="Shape"></path>
                                <path d="M6.62622951,7.78688525 C6.84918033,8.00655738 7.06885246,8.2295082 7.28852459,8.45245902 C7.11803279,9.95409836 6.98360656,11.5180328 6.23278689,12.8655738 C6.04262295,12.7540984 5.66557377,12.5344262 5.47540984,12.4229508 C6.12131148,10.9540984 6.33114754,9.35409836 6.62622951,7.78688525 Z" id="Shape"></path>
                            </g>
                            <g id="#ffe12cff" transform="translate(31.147541, 31.475410)" fill="#FFE12C" fill-rule="nonzero">
                                <path d="M2.2852459,1.12459016 C3.85245902,0.891803279 5.41967213,0.626229508 6.93770492,0.157377049 C7.0852459,0.285245902 7.38032787,0.53442623 7.52786885,0.662295082 L7.80983607,0.901639344 C6.33770492,1.54754098 4.74098361,1.76065574 3.17704918,2.04262295 C2.87540984,1.73770492 2.57704918,1.43278689 2.2852459,1.12459016 Z" id="Shape"></path>
                                <path d="M1.1147541,2.29836066 C1.42622951,2.59344262 1.73442623,2.89180328 2.03606557,3.19672131 C1.74098361,4.76393443 1.53114754,6.36393443 0.885245902,7.83278689 C0.826229508,7.76393443 0.71147541,7.62622951 0.652459016,7.55737705 C0.527868852,7.40655738 0.275409836,7.10819672 0.150819672,6.96065574 C0.606557377,5.43606557 0.872131148,3.86557377 1.1147541,2.29836066 Z" id="Shape"></path>
                            </g>
                        </g>
                    </g>
                </g>
            </g>
        </g>
    </g>
</svg>
