<svg width="27px" height="40px" viewBox="0 0 27 40" version="1.1" xmlns="http://www.w3.org/2000/svg" xmlns:xlink="http://www.w3.org/1999/xlink">
    <!-- Generator: Sketch 48.1 (47250) - http://www.bohemiancoding.com/sketch -->
    <desc>Created with Sketch.</desc>
    <defs></defs>
    <g id="Extras" stroke="none" stroke-width="1" fill="none" fill-rule="evenodd">
        <g id="icebreaker-overlay" transform="translate(-240.000000, -48.000000)">
            <g id="Group-13">
                <g id="Group-11" transform="translate(41.000000, 40.000000)">
                    <g id="Group-10">
                        <g id="Group-5" transform="translate(0.000000, 8.000000)">
                            <g id="ballon" transform="translate(191.000000, 0.000000)">
                                <g id="#e81c27ff" transform="translate(0.330579, 0.000000)">
                                    <rect id="Rectangle" x="0.669421488" y="0" width="40" height="40"></rect>
                                    <path d="M12.568595,3.58016529 C15.4247934,0.79338843 19.6429752,-0.525619835 23.5735537,0.201652893 C27.7785124,0.902479339 31.4347107,3.89752066 33.1867769,7.74876033 C33.2066116,9.68264463 33.5173554,11.6330579 33.1107438,13.5504132 C32.0066116,19.477686 27.7057851,24.7239669 22.1256198,26.9983471 C19.9272727,27.9504132 17.477686,28.0198347 15.1669421,27.4876033 C11.3057851,24.4661157 8.87603306,19.768595 8.39338843,14.9157025 C7.99008264,10.7636364 9.52396694,6.44958678 12.568595,3.58016529 Z M11.2793388,9.23305785 C11.2628099,10.0066116 11.031405,11.0247934 11.6859504,11.6 C13.0280992,11.3090909 13.953719,10.1421488 14.892562,9.2231405 C16.7735537,7.12727273 18.8595041,5.18016529 20.4991736,2.89586777 C20.1752066,2.12892562 19.2099174,2.3107438 18.5454545,2.38016529 C15.0942149,2.94876033 11.6396694,5.55702479 11.2793388,9.23305785 Z" id="Shape" fill="#E81C27" fill-rule="nonzero"></path>
                                    <path d="M19.2793388,31.338843 C19.0809917,30.8396694 19.5702479,30.2115702 20.1289256,30.4396694 C20.9785124,30.4561983 21.831405,30.4595041 22.6809917,30.4297521 C22.4561983,30.9752066 22.0429752,31.3884298 21.5570248,31.7057851 C21.3983471,31.7057851 21.0876033,31.7090909 20.9289256,31.7090909 C20.3834711,31.6363636 19.6165289,31.9305785 19.2793388,31.338843 Z" id="Shape" fill="#E81C27" fill-rule="nonzero"></path>
                                </g>
                                <g id="#f46c60ff" transform="translate(11.305785, 1.983471)" fill="#F46C60" fill-rule="nonzero">
                                    <path d="M0.304132231,7.24958678 C0.66446281,3.57355372 4.11900826,0.965289256 7.57024793,0.396694215 C8.23471074,0.327272727 9.2,0.145454545 9.52396694,0.912396694 C7.88429752,3.19669421 5.79834711,5.14380165 3.91735537,7.23966942 C2.9785124,8.15867769 2.05289256,9.32561983 0.710743802,9.61652893 C0.0561983471,9.04132231 0.287603306,8.0231405 0.304132231,7.24958678 Z" id="Shape"></path>
                                </g>
                                <g id="#b00505ff" transform="translate(15.272727, 7.603306)" fill="#B00505" fill-rule="nonzero">
                                    <path d="M18.2446281,0.145454545 C20.0892562,3.84132231 19.8247934,8.31735537 18.3702479,12.1057851 C16.5917355,16.707438 12.9057851,21.2132231 7.80826446,22.0198347 C6.84958678,21.9768595 5.89090909,21.9768595 4.9322314,22.0297521 C3.22644628,21.7024793 1.57355372,20.9884298 0.224793388,19.8842975 C2.53553719,20.4165289 4.98512397,20.3471074 7.18347107,19.3950413 C12.7636364,17.1206612 17.0644628,11.8743802 18.168595,5.94710744 C18.5752066,4.02975207 18.2644628,2.07933884 18.2446281,0.145454545 Z" id="Shape"></path>
                                </g>
                                <g id="#302c3bff" transform="translate(8.000000, 29.421488)" fill="#302C3B" fill-rule="nonzero">
                                    <path d="M12.2049587,0.211570248 C13.1636364,0.158677686 14.122314,0.158677686 15.0809917,0.201652893 C15.0677686,0.403305785 15.0380165,0.80661157 15.0247934,1.00826446 L15.0115702,1.00826446 C14.1619835,1.03801653 13.3090909,1.03471074 12.4595041,1.01818182 C12.3867769,0.743801653 12.3008264,0.476033058 12.2049587,0.211570248 Z" id="Shape"></path>
                                    <path d="M13.2595041,2.28760331 C13.4181818,2.28760331 13.7289256,2.28429752 13.8876033,2.28429752 L14.2115702,2.30413223 C14.2743802,4.0661157 13.2528926,5.87438017 11.5404959,6.46280992 C9.31239669,7.34876033 6.83966942,5.9338843 4.64793388,6.98181818 C3.09421488,7.65950413 2.07272727,9.05123967 0.955371901,10.261157 C0.485950413,10.2842975 0.280991736,10.0661157 0.333884298,9.60330579 C1.82809917,7.72231405 3.76528926,5.93057851 6.25785124,5.64958678 C7.98677686,5.41157025 9.80495868,6.29752066 11.4677686,5.54049587 C12.677686,4.93553719 13.1404959,3.54710744 13.2595041,2.28760331 Z" id="Shape"></path>
                                </g>
                                <g id="#b50809fb" transform="translate(21.884298, 30.082645)" fill="#B50809" fill-rule="nonzero">
                                    <path d="M1.12727273,0.347107438 L1.14049587,0.347107438 C1.95041322,0.0429752066 2.3338843,1.29917355 1.63305785,1.63636364 C1.19669421,1.65950413 0.763636364,1.66280992 0.327272727,1.64297521 L0.00330578512,1.6231405 C0.489256198,1.30578512 0.902479339,0.892561983 1.12727273,0.347107438 Z" id="Shape"></path>
                                </g>
                            </g>
                        </g>
                    </g>
                </g>
            </g>
        </g>
    </g>
</svg>
