<svg width="40px" height="40px" viewBox="0 0 40 40" version="1.1" xmlns="http://www.w3.org/2000/svg" xmlns:xlink="http://www.w3.org/1999/xlink">
    <!-- Generator: Sketch 48.1 (47250) - http://www.bohemiancoding.com/sketch -->
    <desc>Created with Sketch.</desc>
    <defs></defs>
    <g id="Extras" stroke="none" stroke-width="1" fill="none" fill-rule="evenodd">
        <g id="icebreaker-overlay" transform="translate(-297.000000, -115.000000)">
            <g id="Group-13">
                <g id="Group-11" transform="translate(41.000000, 40.000000)">
                    <g id="Group-7" transform="translate(0.000000, 75.000000)">
                        <g id="flower5" transform="translate(256.000000, 0.000000)">
                            <rect id="Rectangle" x="0" y="0" width="40" height="40"></rect>
                            <g id="#e84d88ff" fill="#E84D88" fill-rule="nonzero">
                                <path d="M4.67540984,0.291803279 C7.88852459,0.636065574 11.2786885,1.65901639 13.3967213,4.2557377 C15.5311475,6.63606557 16.3311475,10.4983607 14.5508197,13.2852459 C14.1639344,13.7803279 13.7213115,14.2295082 13.2622951,14.6590164 C12.9081967,14.8295082 12.5409836,14.9704918 12.1704918,15.095082 C10.9836066,14.8918033 9.77704918,14.7540984 8.57377049,14.842623 C7.68852459,14.052459 6.62622951,13.295082 6.29836066,12.0918033 C5.84918033,10.5147541 6.18032787,8.86229508 6.21639344,7.2557377 C5.21311475,8.97377049 4.9704918,10.957377 5.09836066,12.9114754 C4.06557377,12.1836066 2.99672131,11.4983607 2.00655738,10.7114754 C0.947540984,8.87540984 0.57704918,6.74754098 0.28852459,4.67540984 C0.967213115,5.15081967 1.66557377,5.61967213 2.44262295,5.92786885 C3.75081967,6.53114754 5.21639344,6.53114754 6.62295082,6.64262295 C6.52459016,5.2295082 6.54754098,3.75081967 5.92786885,2.43934426 C5.61639344,1.66557377 5.15409836,0.967213115 4.67540984,0.291803279 Z M8.78688525,1.90163934 C10.3409836,3.59016393 12.3409836,5.07540984 12.9344262,7.41311475 C13.6819672,9.68852459 12.8655738,12.0098361 12.1311475,14.1606557 C14.0065574,13.1737705 15.442623,11.0622951 14.9967213,8.8852459 C14.3737705,5.66557377 11.7737705,3.07540984 8.78688525,1.90163934 Z" id="Shape"></path>
                                <path d="M1.60983607,1.60983607 C2.86557377,1.73114754 4.10163934,1.97704918 5.35737705,2.09180328 C5.66229508,3.32131148 5.78032787,4.58360656 5.83278689,5.84590164 C4.57704918,5.77704918 3.32459016,5.64590164 2.09508197,5.37377049 C1.98032787,4.1147541 1.73114754,2.86885246 1.60983607,1.60983607 Z" id="Shape"></path>
                            </g>
                            <g id="#f9c802ff" transform="translate(15.737705, 0.000000)" fill="#F9C802" fill-rule="nonzero">
                                <path d="M6.37377049,0.308196721 C7.32459016,1.41967213 8.09836066,2.66557377 9,3.81639344 C9.17704918,3.06885246 9.35081967,2.32131148 9.48852459,1.56721311 C11.6459016,4.19016393 13.3836066,7.56393443 12.7704918,11.0557377 C12.3967213,12.0885246 12.0754098,13.1409836 11.8360656,14.2131148 C11.3967213,14.8622951 10.9278689,15.4918033 10.3967213,16.0688525 C10.2557377,16.1672131 9.98032787,16.3639344 9.84262295,16.4622951 C9.68196721,16.547541 9.36065574,16.7114754 9.2,16.7934426 L9.06557377,16.5737705 C10.052459,15.5868852 11.1081967,14.5770492 11.5836066,13.2295082 C12.5344262,10.7081967 12.1934426,7.89836066 11.2491803,5.4295082 C11.1967213,7.59672131 11.4754098,9.88196721 10.5836066,11.9245902 C10.0852459,13.1278689 9.1147541,14.0295082 8.20327869,14.9213115 C6.68852459,11.695082 5.52131148,8.3147541 4.6557377,4.86229508 C4.45245902,5.92459016 4.2295082,6.98688525 4.04262295,8.0557377 C2.93114754,8.83934426 1.9147541,9.73770492 0.914754098,10.652459 C0.6,9.64262295 0.357377049,8.60983607 0.173770492,7.56721311 C0.495081967,5.30491803 1.93114754,3.35409836 3.29508197,1.5704918 C3.43606557,2.32459016 3.60983607,3.06885246 3.78360656,3.81639344 C4.67213115,2.66557377 5.46885246,1.44590164 6.37377049,0.308196721 Z" id="Shape"></path>
                                <path d="M1.86885246,13.4360656 C1.57704918,11.6688525 2.74098361,10.1934426 3.9147541,9.03278689 C3.62622951,11.7639344 3.67868852,14.5442623 4.27213115,17.2327869 C3.24262295,16.1442623 1.94754098,15.0590164 1.86885246,13.4360656 Z" id="Shape"></path>
                            </g>
                            <g id="#ff669fff" transform="translate(8.524590, 1.639344)" fill="#FF669F" fill-rule="nonzero">
                                <path d="M0.262295082,0.262295082 C3.24918033,1.43606557 5.84918033,4.02622951 6.47213115,7.24590164 C6.91803279,9.42295082 5.48196721,11.5344262 3.60655738,12.5213115 C4.34098361,10.3704918 5.15737705,8.04918033 4.40983607,5.77377049 C3.81639344,3.43606557 1.81639344,1.95081967 0.262295082,0.262295082 Z" id="Shape"></path>
                            </g>
                            <g id="#cb2b68ff" transform="translate(1.967213, 1.967213)" fill="#CB2B68" fill-rule="nonzero">
                                <path d="M3.39016393,0.124590164 C3.53114754,0.209836066 3.81639344,0.386885246 3.96065574,0.472131148 C4.58032787,1.78360656 4.55737705,3.26229508 4.6557377,4.67540984 C3.24918033,4.56393443 1.78360656,4.56393443 0.475409836,3.96065574 C0.386885246,3.82295082 0.213114754,3.5442623 0.127868852,3.40655738 C1.35737705,3.67868852 2.60983607,3.80983607 3.86557377,3.87868852 C3.81311475,2.61639344 3.69508197,1.35409836 3.39016393,0.124590164 Z" id="Shape"></path>
                            </g>
                            <g id="#92c932ff" transform="translate(5.573770, 2.295082)" fill="#92C932" fill-rule="nonzero">
                                <path d="M22.9344262,8.76065574 C24.1409836,5.76065574 25.7803279,2.95737705 27.6098361,0.298360656 C26.8491803,3.69836066 26.3081967,7.15081967 26.0655738,10.6262295 C24.5639344,11.242623 23.1278689,12.0196721 21.7770492,12.9180328 C21.8327869,12.6655738 21.9442623,12.1672131 22,11.9180328 C22.2393443,10.8459016 22.5606557,9.79344262 22.9344262,8.76065574 Z" id="Shape"></path>
                                <path d="M14.2065574,5.76065574 C14.3934426,4.69180328 14.6163934,3.6295082 14.8196721,2.56721311 C15.6852459,6.01967213 16.852459,9.4 18.3672131,12.6262295 C18.6327869,13.1868852 18.9180328,13.7377049 19.2295082,14.2786885 L19.3639344,14.4983607 C19.5245902,14.4163934 19.8459016,14.252459 20.0065574,14.1672131 C18.6327869,15.1409836 17.3081967,16.1803279 16.0262295,17.2688525 C15.9114754,17.1147541 15.6852459,16.8 15.5704918,16.642623 C15.2327869,16.1737705 14.9245902,15.6852459 14.6131148,15.2032787 L14.4360656,14.9377049 C13.842623,12.2491803 13.7901639,9.46885246 14.0786885,6.73770492 C14.1114754,6.49180328 14.1737705,6.00327869 14.2065574,5.76065574 Z" id="Shape"></path>
                                <path d="M4.45245902,14.1836066 C4.85901639,14.3344262 5.2557377,14.5147541 5.65245902,14.6918033 C6.67868852,15.5147541 7.75737705,16.2655738 8.9147541,16.8918033 C9.67540984,17.3737705 10.4622951,17.8098361 11.2688525,18.2098361 C11.6196721,18.3836066 11.9704918,18.557377 12.3213115,18.7344262 C13.0163934,19.0918033 13.7245902,19.4262295 14.4360656,19.757377 C13.9606557,21.5311475 12.7114754,22.9344262 11.4163934,24.1737705 C9.58032787,25.9147541 7.53770492,27.4196721 5.70819672,29.1672131 C3.83934426,30.2360656 1.91147541,31.2065574 0.068852459,32.3311475 C2.15737705,29.7770492 4.32786885,27.2655738 6.92786885,25.2163934 C8.02295082,24.3934426 9.12131148,23.557377 10.3409836,22.9180328 L10.4885246,22.8557377 C7.65245902,20.6360656 5.85245902,17.4360656 4.45245902,14.1836066 Z" id="Shape"></path>
                                <path d="M31.2065574,33.7540984 C31.8032787,33.1934426 32.3508197,32.5803279 32.8360656,31.9213115 C33.2655738,32.3442623 33.6918033,32.7704918 34.1213115,33.2 C33.7836066,33.5081967 33.4459016,33.8163934 33.1081967,34.1245902 C32.8295082,34.3770492 32.5540984,34.6327869 32.2786885,34.8885246 C31.9180328,34.5114754 31.5606557,34.1344262 31.2065574,33.7540984 Z" id="Shape"></path>
                                <path d="M28.1311475,35.5836066 C28.7508197,35.3508197 29.3540984,35.0688525 29.9245902,34.7344262 C30.3508197,35.1770492 30.7770492,35.6229508 31.2065574,36.0688525 C30.7770492,36.504918 30.347541,36.9409836 29.9147541,37.3770492 C29.3180328,36.7803279 28.7245902,36.1836066 28.1311475,35.5836066 Z" id="Shape"></path>
                            </g>
                            <g id="#ffe12bff" transform="translate(23.934426, 5.245902)" fill="#FFE12B" fill-rule="nonzero">
                                <path d="M3.05245902,0.183606557 C3.99672131,2.65245902 4.33770492,5.46229508 3.38688525,7.98360656 C2.91147541,9.33114754 1.8557377,10.3409836 0.868852459,11.3278689 C0.557377049,10.7868852 0.272131148,10.2360656 0.00655737705,9.67540984 C0.918032787,8.78360656 1.88852459,7.88196721 2.38688525,6.67868852 C3.27868852,4.63606557 3,2.35081967 3.05245902,0.183606557 Z" id="Shape"></path>
                            </g>
                            <g id="#c82865ff" transform="translate(1.967213, 7.213115)" fill="#C82865" fill-rule="nonzero">
                                <path d="M3.13114754,5.69836066 C3.00327869,3.7442623 3.24590164,1.76065574 4.24918033,0.0426229508 C4.21311475,1.64918033 3.88196721,3.30163934 4.33114754,4.87868852 C4.65901639,6.08196721 5.72131148,6.83934426 6.60655738,7.6295082 C6.1147541,7.7147541 5.6295082,7.82295082 5.14098361,7.93114754 C2.86229508,7.39344262 1.14098361,5.48196721 0.0393442623,3.49836066 C1.0295082,4.2852459 2.09836066,4.9704918 3.13114754,5.69836066 Z" id="Shape"></path>
                            </g>
                            <g id="#f59e01ff" transform="translate(15.409836, 7.213115)" fill="#F59E01" fill-rule="nonzero">
                                <path d="M0.449180328,0.0590163934 L0.501639344,0.354098361 C0.685245902,1.39672131 0.927868852,2.4295082 1.24262295,3.43934426 C2.24262295,2.52459016 3.25901639,1.62622951 4.3704918,0.842622951 C4.33770492,1.0852459 4.27540984,1.57377049 4.24262295,1.81967213 C3.06885246,2.98032787 1.90491803,4.4557377 2.19672131,6.22295082 C2.27540984,7.84590164 3.5704918,8.93114754 4.6,10.0196721 L4.77704918,10.2852459 C2.31803279,9.26229508 0.563934426,6.85901639 0.219672131,4.23606557 C-0.0327868852,2.84262295 0.140983607,1.42622951 0.449180328,0.0590163934 Z" id="Shape"></path>
                            </g>
                            <g id="#0fb4d4ff" transform="translate(9.508197, 12.459016)" fill="#0FB4D4" fill-rule="nonzero">
                                <path d="M17.842623,2.75409836 C19.1934426,1.8557377 20.6295082,1.07868852 22.1311475,0.462295082 L22.6360656,0.252459016 C24.2491803,2.58360656 23.8819672,5.53114754 24.1016393,8.20983607 C24.1803279,10.2819672 24.6065574,12.3278689 25.2819672,14.2852459 C22.8196721,15.6655738 21.747541,18.4590164 19.7803279,20.3639344 C16.2196721,17.0196721 13.052459,13.242623 10.5803279,9.01967213 C10.5213115,8.91147541 10.4065574,8.69508197 10.3508197,8.58688525 C10.9311475,8.09508197 11.5081967,7.59672131 12.0918033,7.10491803 C13.3737705,6.01639344 14.6983607,4.97704918 16.0721311,4.00327869 C16.2098361,3.90491803 16.4852459,3.70819672 16.6262295,3.60983607 C17.0295082,3.32459016 17.4360656,3.03934426 17.842623,2.75409836 Z" id="Shape"></path>
                                <path d="M1.77377049,19.0032787 C3.60327869,17.2557377 5.64590164,15.7508197 7.48196721,14.0098361 C11.6655738,15.7278689 15.1803279,18.6459016 18.9639344,21.0590164 C18.6721311,21.2819672 18.3737705,21.504918 18.0786885,21.7213115 C15.0688525,20.1147541 11.5868852,19.6 8.21311475,19.895082 C5.55081967,20.0557377 2.96721311,20.8491803 0.295081967,20.9442623 C0.740983607,20.2622951 1.20655738,19.5901639 1.77377049,19.0032787 Z" id="Shape"></path>
                                <path d="M21.4163934,24.4065574 C24.4393443,23.4360656 25.5442623,20.1868852 27.2229508,17.8196721 C27.8852459,18.704918 28.6819672,19.4819672 29.3540984,20.3606557 C29.5311475,20.8590164 29.1147541,21.3311475 28.9016393,21.757377 C28.4163934,22.4163934 27.8688525,23.0295082 27.2721311,23.5901639 C26.8688525,23.9442623 26.4327869,24.2622951 25.9901639,24.5704918 C25.4196721,24.904918 24.8163934,25.1868852 24.1967213,25.4196721 C23.1180328,25.7770492 22.147541,25.1311475 21.4163934,24.4065574 Z" id="Shape"></path>
                            </g>
                            <g id="#529320ff" transform="translate(13.114754, 13.114754)" fill="#529320" fill-rule="nonzero">
                                <path d="M0.147540984,1.5442623 C0.606557377,1.1147541 1.04918033,0.66557377 1.43606557,0.170491803 C3.64918033,2.27868852 5.82622951,4.42295082 7.99016393,6.58032787 L8.0295082,5.82295082 C8.1442623,5.98032787 8.3704918,6.29508197 8.4852459,6.44918033 C7.90163934,6.94098361 7.32459016,7.43934426 6.7442623,7.93114754 C6.8,8.03934426 6.9147541,8.2557377 6.97377049,8.36393443 L6.89508197,8.93770492 C6.18360656,8.60655738 5.47540984,8.27213115 4.78032787,7.9147541 L4.59672131,7.32786885 C4.96065574,7.29508197 5.32786885,7.26229508 5.69180328,7.22622951 C5.10163934,6.61639344 4.51147541,6.00327869 3.95409836,5.36393443 C3.30819672,4.58688525 2.60327869,3.85901639 1.84262295,3.19672131 C1.2557377,2.66885246 0.698360656,2.10819672 0.147540984,1.5442623 Z" id="Shape"></path>
                                <path d="M22.3836066,23.9147541 C22.8262295,23.6065574 23.2622951,23.2885246 23.6655738,22.9344262 C24.0196721,23.3147541 24.3770492,23.6918033 24.7377049,24.0688525 C25.0131148,23.8131148 25.2885246,23.557377 25.5672131,23.304918 C26.104918,24.4131148 24.6721311,24.9770492 24.1245902,25.7278689 C24.0098361,25.6098361 23.7803279,25.3672131 23.6655738,25.2491803 C23.2360656,24.8032787 22.8098361,24.357377 22.3836066,23.9147541 Z" id="Shape"></path>
                            </g>
                            <g id="#e81c27ff" transform="translate(0.000000, 14.754098)" fill="#E81C27" fill-rule="nonzero">
                                <path d="M7.10819672,0.390163934 C7.59672131,0.281967213 8.08196721,0.173770492 8.57377049,0.0885245902 C9.77704918,4.16333634e-16 10.9836066,0.137704918 12.1704918,0.340983607 C13.1377049,0.649180328 14.0721311,1.05901639 14.957377,1.55737705 C15.7180328,2.21967213 16.4229508,2.94754098 17.0688525,3.72459016 C17.3016393,4.3704918 17.5114754,5.0295082 17.7114754,5.68852459 L17.895082,6.27540984 C17.5442623,6.09836066 17.1934426,5.92459016 16.842623,5.75081967 C16.557377,4.63934426 16.3114754,3.40327869 15.3606557,2.65245902 C12.8065574,0.46557377 9.00327869,0.370491803 5.98688525,1.58032787 C7.33114754,1.7147541 8.68196721,1.63278689 10.0262295,1.72459016 C11.4262295,4.97704918 13.2262295,8.17704918 16.0622951,10.3967213 L15.9147541,10.4590164 C14.4327869,10.8983607 12.7508197,11.4622951 11.2622951,10.757377 C9.59016393,10.0098361 8.64918033,8.3442623 7.4557377,7.04590164 C7.9704918,9.09508197 9.2295082,10.8229508 10.8491803,12.1442623 C9.4,12.347541 7.9442623,12.5672131 6.47540984,12.5606557 C4.66557377,11.9213115 3.07213115,10.8262295 1.54754098,9.67868852 C2.29180328,9.52131148 3.04590164,9.4 3.76065574,9.13114754 C5.16065574,8.57704918 6.30819672,7.58032787 7.40655738,6.57704918 C6.32131148,5.54754098 5.17377049,4.52459016 3.75409836,3.99016393 C3.03606557,3.72786885 2.28196721,3.59672131 1.53770492,3.43934426 C3.23934426,2.16721311 5.03606557,0.954098361 7.10819672,0.390163934 Z" id="Shape"></path>
                                <path d="M0.295081967,6.56065574 C1.27868852,5.78688525 2.30491803,5.07540984 3.31803279,4.34098361 C4.40327869,4.9147541 5.36721311,5.6852459 6.2295082,6.55409836 C5.37377049,7.44262295 4.40655738,8.21967213 3.30819672,8.78360656 C2.29836066,8.04918033 1.27540984,7.33114754 0.295081967,6.56065574 Z" id="Shape"></path>
                            </g>
                            <g id="#ff3d3dff" transform="translate(5.901639, 15.409836)" fill="#FF3D3D" fill-rule="nonzero">
                                <path d="M0.0852459016,0.924590164 C3.10163934,-0.285245902 6.90491803,-0.190163934 9.45901639,1.99672131 C10.4098361,2.74754098 10.6557377,3.98360656 10.9409836,5.09508197 C10.1344262,4.69508197 9.34754098,4.25901639 8.58688525,3.77704918 C7.78360656,2.67540984 6.63278689,1.94098361 5.32459016,1.57704918 C4.92786885,1.4 4.53114754,1.21967213 4.12459016,1.06885246 C2.78032787,0.97704918 1.4295082,1.05901639 0.0852459016,0.924590164 Z" id="Shape"></path>
                            </g>
                            <g id="#e4302bff" transform="translate(11.147541, 16.721311)" fill="#E4302B" fill-rule="nonzero">
                                <path d="M0.0786885246,0.26557377 C1.38688525,0.629508197 2.53770492,1.36393443 3.34098361,2.46557377 C2.18360656,1.83934426 1.10491803,1.08852459 0.0786885246,0.26557377 Z" id="Shape"></path>
                            </g>
                            <g id="#b8080afe" transform="translate(3.278689, 18.688525)" fill="#B8080A" fill-rule="nonzero">
                                <path d="M0.475409836,0.0557377049 C1.89508197,0.590163934 3.04262295,1.61311475 4.12786885,2.64262295 C3.0295082,3.64590164 1.88196721,4.64262295 0.481967213,5.19672131 C0.367213115,5.11147541 0.140983607,4.93770492 0.0295081967,4.84918033 C1.12786885,4.2852459 2.09508197,3.50819672 2.95081967,2.61967213 C2.08852459,1.75081967 1.12459016,0.980327869 0.0393442623,0.406557377 C0.147540984,0.321311475 0.363934426,0.144262295 0.475409836,0.0557377049 Z" id="Shape"></path>
                            </g>
                            <g id="#006daeff" transform="translate(16.721311, 21.311475)" fill="#006DAE" fill-rule="nonzero">
                                <path d="M3.36721311,0.167213115 C5.83934426,4.39016393 9.00655738,8.16721311 12.5672131,11.5114754 C12.304918,11.7540984 12.0327869,11.9868852 11.7508197,12.2065574 C7.96721311,9.79344262 4.45245902,6.87540984 0.268852459,5.15737705 C1.56393443,3.91803279 2.81311475,2.5147541 3.28852459,0.740983607 L3.36721311,0.167213115 Z" id="Shape"></path>
                            </g>
                            <g id="#b10505ff" transform="translate(6.229508, 21.639344)" fill="#B10505" fill-rule="nonzero">
                                <path d="M1.22622951,0.160655738 C2.41967213,1.45901639 3.36065574,3.12459016 5.03278689,3.87213115 C6.52131148,4.57704918 8.20327869,4.01311475 9.6852459,3.57377049 C8.46557377,4.21311475 7.36721311,5.04918033 6.27213115,5.87213115 C4.3442623,6.56721311 2.16065574,6.32131148 0.245901639,5.67540984 C1.7147541,5.68196721 3.1704918,5.46229508 4.61967213,5.25901639 C3,3.93770492 1.74098361,2.20983607 1.22622951,0.160655738 Z" id="Shape"></path>
                            </g>
                            <g id="#f0525cff" transform="translate(26.885246, 26.557377)" fill="#F0525C" fill-rule="nonzero">
                                <path d="M2.40327869,6.26557377 C4.3704918,4.36065574 5.44262295,1.56721311 7.90491803,0.186885246 C9.29836066,0.518032787 10.5311475,2.36721311 9.84590164,3.72131148 C8.16721311,6.08852459 7.06229508,9.33770492 4.03934426,10.3081967 C2.58032787,9.92786885 1.23278689,9.1147541 0.318032787,7.90819672 L0.701639344,7.62295082 C0.996721311,7.40655738 1.29508197,7.18360656 1.58688525,6.96065574 C1.86885246,6.74098361 2.14098361,6.50819672 2.40327869,6.26557377 Z" id="Shape"></path>
                            </g>
                        </g>
                    </g>
                </g>
            </g>
        </g>
    </g>
</svg>
