<svg width="40px" height="33px" viewBox="0 0 40 33" version="1.1" xmlns="http://www.w3.org/2000/svg" xmlns:xlink="http://www.w3.org/1999/xlink">
    <!-- Generator: Sketch 48.1 (47250) - http://www.bohemiancoding.com/sketch -->
    <desc>Created with Sketch.</desc>
    <defs></defs>
    <g id="Extras" stroke="none" stroke-width="1" fill="none" fill-rule="evenodd">
        <g id="icebreaker-overlay" transform="translate(-41.000000, -182.000000)">
            <g id="Group-13">
                <g id="Group-11" transform="translate(41.000000, 40.000000)">
                    <g id="Group-8" transform="translate(0.000000, 139.000000)">
                        <g id="heart1">
                            <rect id="Rectangle" x="0" y="0" width="40" height="40"></rect>
                            <g id="#e81c27ff" transform="translate(0.000000, 3.000000)" fill="#E81C27" fill-rule="nonzero">
                                <path d="M3.72131148,2.72459016 C7.53770492,-0.636065574 13.7114754,-0.918032787 17.7508197,2.21311475 C18.6491803,2.92131148 19.3737705,3.81967213 20.0360656,4.75081967 C21.5344262,2.41639344 23.9770492,0.71147541 26.7180328,0.22295082 C28.5180328,-0.160655738 30.3704918,0.0491803279 32.1508197,0.426229508 C33.6590164,2.09508197 35.3606557,3.75737705 35.9180328,6.01967213 C36.9278689,9.2557377 35.9540984,12.7245902 34.2491803,15.5377049 C31.0196721,20.8852459 26.3934426,25.1704918 21.895082,29.4229508 C21.1540984,30.0360656 20.295082,31.0098361 19.2262295,30.6360656 C17.852459,30.1114754 16.5901639,29.3344262 15.1901639,28.8819672 C11.6262295,25.9967213 8.03606557,23.095082 4.83934426,19.7868852 C2.69508197,17.4819672 0.744262295,14.7377049 0.409836066,11.5180328 C-0.0229508197,8.27540984 1.21639344,4.84590164 3.72131148,2.72459016 Z M8.31803279,2.12131148 C5.8557377,2.86885246 3.20655738,4.50491803 2.70163934,7.2295082 C2.64918033,7.94754098 2.36065574,9.09180328 3.24262295,9.40655738 C4.81967213,8.87868852 6.00655738,7.6557377 7.24918033,6.60983607 C8.87868852,5.14754098 10.5606557,3.73770492 12.0688525,2.15409836 C10.9704918,1.33770492 9.51803279,1.82295082 8.31803279,2.12131148 Z M22.2163934,3.53442623 C21.6163934,4.23934426 21.6819672,5.20327869 21.6590164,6.06557377 C22.9180328,5.84262295 23.7836066,4.8557377 24.704918,4.05901639 C25.5836066,3.2852459 26.5016393,2.5442623 27.2,1.59344262 C25.3737705,1.41967213 23.3737705,2.06557377 22.2163934,3.53442623 Z" id="Shape"></path>
                            </g>
                            <g id="#c21413ff" transform="translate(15.081967, 3.327869)" fill="#C21413" fill-rule="nonzero">
                                <path d="M17.0688525,0.0983606557 C19.4918033,0.809836066 21.704918,2.33114754 23.0721311,4.47213115 C24.852459,7.18688525 25.0590164,10.757377 23.947541,13.7672131 C23.0754098,16.0786885 21.504918,18.0491803 19.8098361,19.8131148 C15.2131148,24.4721311 9.93114754,28.3606557 4.9147541,32.5409836 C3.32786885,31.1901639 1.63934426,29.9672131 0.108196721,28.5540984 C1.50819672,29.0065574 2.7704918,29.7836066 4.1442623,30.3081967 C5.21311475,30.6819672 6.07213115,29.7081967 6.81311475,29.095082 C11.3114754,24.842623 15.9377049,20.557377 19.1672131,15.2098361 C20.8721311,12.3967213 21.8459016,8.92786885 20.8360656,5.69180328 C20.2786885,3.4295082 18.5770492,1.76721311 17.0688525,0.0983606557 Z" id="Shape"></path>
                            </g>
                            <g id="#f46c60ff" transform="translate(2.295082, 4.311475)" fill="#F46C60" fill-rule="nonzero">
                                <path d="M6.02295082,0.809836066 C7.22295082,0.51147541 8.67540984,0.0262295082 9.77377049,0.842622951 C8.26557377,2.42622951 6.58360656,3.83606557 4.95409836,5.29836066 C3.71147541,6.3442623 2.52459016,7.56721311 0.947540984,8.09508197 C0.0655737705,7.78032787 0.354098361,6.63606557 0.406557377,5.91803279 C0.91147541,3.19344262 3.56065574,1.55737705 6.02295082,0.809836066 Z" id="Shape"></path>
                                <path d="M19.9213115,2.22295082 C21.0786885,0.754098361 23.0786885,0.108196721 24.904918,0.281967213 C24.2065574,1.23278689 23.2885246,1.97377049 22.4098361,2.74754098 C21.4885246,3.5442623 20.6229508,4.53114754 19.3639344,4.75409836 C19.3868852,3.89180328 19.3213115,2.92786885 19.9213115,2.22295082 Z" id="Shape"></path>
                            </g>
                        </g>
                    </g>
                </g>
            </g>
        </g>
    </g>
</svg>
