<svg width="40px" height="40px" viewBox="0 0 40 40" version="1.1" xmlns="http://www.w3.org/2000/svg" xmlns:xlink="http://www.w3.org/1999/xlink">
    <!-- Generator: Sketch 48.1 (47250) - http://www.bohemiancoding.com/sketch -->
    <desc>Created with Sketch.</desc>
    <defs></defs>
    <g id="Extras" stroke="none" stroke-width="1" fill="none" fill-rule="evenodd">
        <g id="icebreaker-overlay" transform="translate(-41.000000, -48.000000)" fill-rule="nonzero">
            <g id="Group-13">
                <g id="Group-11" transform="translate(41.000000, 40.000000)">
                    <g id="Group-10">
                        <g id="Group-5" transform="translate(0.000000, 8.000000)">
                            <g id="smile2">
                                <g id="#fdca47ff" fill="#FDCA47">
                                    <path d="M13.0280992,1.21322314 C20.2578512,-1.52396694 28.9950413,0.525619835 34.2280992,6.20495868 C34.7338843,7.48429752 35.4115702,8.67768595 36.0066116,9.91404959 C37.8842975,14.1487603 38.2016529,19.0710744 36.8264463,23.5008264 C37.1206612,21.7785124 36.4628099,19.8380165 34.8429752,19.0115702 C32.7834711,17.7917355 29.8347107,18.9520661 29.1669421,21.2528926 C28.3570248,23.5041322 30.0396694,26.1719008 32.4198347,26.4 C33.9933884,26.677686 35.3983471,25.722314 36.4330579,24.6446281 C34.7702479,29.477686 31.031405,33.5041322 26.446281,35.7157025 C21.8710744,37.9338843 16.4330579,38.2809917 11.6099174,36.6677686 C9.71570248,36.0859504 8.06280992,34.9553719 6.22479339,34.2413223 C1.01487603,29.4380165 -1.20330579,21.6694215 0.654545455,14.8231405 C2.22479339,8.62479339 7.01157025,3.37190083 13.0280992,1.21322314 Z M10.0264463,3.71570248 C6.50247934,5.56033058 3.76198347,8.87272727 2.79338843,12.753719 C4.03305785,11.7024793 5.01157025,10.3933884 6.18842975,9.27933884 C5.89090909,9.79834711 6.71735537,10.1322314 6.90578512,10.5553719 C8.02975207,9.74214876 9.20991736,8.95867769 10.5619835,8.59173554 C12.0595041,8.11239669 13.6495868,8.2214876 15.1966942,8.30413223 C15.2495868,7.84793388 15.292562,7.38842975 15.3289256,6.92892562 C12.2280992,6.37024793 9.0214876,7.2 6.46280992,9.00495868 C8.34710744,7.03140496 10.4628099,5.25619835 12.8264463,3.88099174 C13.8809917,3.23966942 15.1107438,2.89586777 16.0561983,2.07933884 C13.9305785,1.94049587 11.8842975,2.76033058 10.0264463,3.71570248 Z M24.3404959,7.25950413 C24.3603306,7.54049587 24.3966942,8.10909091 24.4132231,8.39008264 C25.9603306,8.34049587 27.5504132,8.19834711 29.0479339,8.67768595 C30.4231405,9.03801653 31.6198347,9.83140496 32.7636364,10.6446281 C33.0710744,10.2909091 33.368595,9.93057851 33.6694215,9.57355372 C31.5041322,7.72231405 28.6446281,6.68429752 25.7884298,6.87933884 C25.322314,6.99173554 24.6413223,6.80330579 24.3404959,7.25950413 Z M5.9768595,17.3917355 C6.1553719,17.5206612 6.51900826,17.7752066 6.69752066,17.9041322 C9.58677686,15.831405 13.7256198,15.8512397 16.6181818,17.907438 C16.8595041,17.7256198 17.1008264,17.5438017 17.3454545,17.3619835 C16.2479339,15.322314 14.3669421,13.4115702 11.9206612,13.2991736 C9.27272727,13.1404959 7.09421488,15.1636364 5.9768595,17.3917355 Z M22.3272727,17.4082645 C22.5123967,17.5305785 22.8826446,17.7752066 23.0677686,17.8975207 C25.9504132,15.8214876 30.0859504,15.861157 32.9752066,17.9041322 C33.153719,17.7752066 33.5140496,17.5206612 33.692562,17.3917355 C32.6115702,15.2661157 30.614876,13.3190083 28.0958678,13.292562 C25.5107438,13.2363636 23.4181818,15.2231405 22.3272727,17.4082645 Z M5.70578512,18.6578512 C3.90743802,19.107438 2.60495868,20.9487603 2.79669421,22.7966942 C2.89917355,24.8760331 4.88264463,26.5983471 6.9553719,26.4264463 C9.1107438,26.3735537 10.9289256,24.2876033 10.677686,22.138843 C10.5586777,19.7652893 7.98347107,17.9636364 5.70578512,18.6578512 Z M10.7107438,26.9586777 C11.8578512,28.8760331 13.6628099,30.3768595 15.7190083,31.2396694 C19.8842975,33.0347107 25.0909091,31.7917355 27.9867769,28.3041322 C28.4363636,27.6661157 29.2396694,27.0280992 29.0413223,26.168595 C28.6280992,25.4677686 27.907438,26.1454545 27.4380165,26.3933884 C25.0082645,28.0132231 22.0694215,28.9123967 19.1404959,28.7371901 C16.2214876,28.6280992 13.5107438,27.3454545 11.1371901,25.7256198 C10.7504132,26 10.3636364,26.4892562 10.7107438,26.9586777 Z" id="Shape"></path>
                                </g>
                                <g id="#ffe8bbff" transform="translate(2.644628, 1.983471)" fill="#FFE8BB">
                                    <path d="M7.38181818,1.7322314 C9.23966942,0.776859504 11.2859504,-0.0429752066 13.4115702,0.0958677686 C12.4661157,0.912396694 11.2363636,1.25619835 10.1818182,1.89752066 C7.81818182,3.27272727 5.70247934,5.04793388 3.81818182,7.0214876 C3.74876033,7.09090909 3.61322314,7.22644628 3.54380165,7.29586777 C2.36694215,8.40991736 1.38842975,9.71900826 0.148760331,10.7702479 C1.11735537,6.8892562 3.85785124,3.5768595 7.38181818,1.7322314 Z" id="Shape"></path>
                                </g>
                                <g id="#f9b700ff" transform="translate(5.950413, 5.950413)" fill="#F9B700">
                                    <path d="M28.277686,0.254545455 C31.9801653,3.97355372 33.953719,9.31900826 33.722314,14.5454545 C33.646281,19.2198347 31.7322314,23.8181818 28.5818182,27.2595041 C25.6991736,30.4429752 21.7586777,32.6644628 17.5272727,33.4214876 C11.4115702,34.5719008 4.70413223,32.7206612 0.274380165,28.2909091 C2.11239669,29.0049587 3.76528926,30.1355372 5.65950413,30.7173554 C10.4826446,32.3305785 15.9206612,31.9834711 20.4958678,29.7652893 C25.0809917,27.553719 28.8198347,23.5272727 30.4826446,18.6942149 C30.6280992,18.3173554 30.7603306,17.9371901 30.8760331,17.5504132 C32.2512397,13.1206612 31.9338843,8.19834711 30.0561983,3.96363636 C29.461157,2.72727273 28.7834711,1.5338843 28.277686,0.254545455 Z" id="Shape"></path>
                                </g>
                                <g id="#917524ff" transform="translate(5.950413, 6.611570)" fill="#917524">
                                    <path d="M0.512396694,2.39338843 C3.07107438,0.588429752 6.27768595,-0.241322314 9.3785124,0.317355372 C9.34214876,0.776859504 9.29917355,1.23636364 9.24628099,1.69256198 C7.69917355,1.60991736 6.10909091,1.50082645 4.61157025,1.98016529 C3.25950413,2.34710744 2.07933884,3.13057851 0.955371901,3.94380165 C0.766942149,3.52066116 -0.0595041322,3.18677686 0.238016529,2.6677686 C0.307438017,2.59834711 0.442975207,2.46280992 0.512396694,2.39338843 Z" id="Shape"></path>
                                    <path d="M18.3900826,0.647933884 C18.6909091,0.191735537 19.3719008,0.380165289 19.8380165,0.267768595 C22.6942149,0.0727272727 25.553719,1.1107438 27.7190083,2.96198347 C27.4181818,3.31900826 27.1206612,3.67933884 26.8132231,4.03305785 C25.6694215,3.21983471 24.4727273,2.42644628 23.0975207,2.0661157 C21.6,1.58677686 20.0099174,1.72892562 18.4628099,1.7785124 C18.446281,1.49752066 18.4099174,0.92892562 18.3900826,0.647933884 Z" id="Shape"></path>
                                </g>
                                <g id="#302c3bff" transform="translate(5.950413, 13.223140)" fill="#302C3B">
                                    <path d="M0.026446281,4.16859504 C1.14380165,1.94049587 3.32231405,-0.0826446281 5.97024793,0.0760330579 C8.41652893,0.188429752 10.2975207,2.09917355 11.3950413,4.13884298 C11.1504132,4.32066116 10.9090909,4.50247934 10.6677686,4.68429752 C7.77520661,2.62809917 3.63636364,2.60826446 0.747107438,4.68099174 C0.568595041,4.55206612 0.204958678,4.29752066 0.026446281,4.16859504 Z" id="Shape"></path>
                                    <path d="M16.3768595,4.18512397 C17.4677686,2 19.5603306,0.0132231405 22.1454545,0.0694214876 C24.6644628,0.0958677686 26.661157,2.04297521 27.7421488,4.16859504 C27.5636364,4.29752066 27.2033058,4.55206612 27.0247934,4.68099174 C24.1355372,2.63801653 20,2.59834711 17.1173554,4.67438017 C16.9322314,4.55206612 16.5619835,4.30743802 16.3768595,4.18512397 Z" id="Shape"></path>
                                    <path d="M4.76033058,13.7355372 C4.41322314,13.2661157 4.8,12.7768595 5.18677686,12.5024793 C7.56033058,14.122314 10.2710744,15.4049587 13.1900826,15.5140496 C16.1190083,15.6892562 19.0578512,14.7900826 21.4876033,13.1702479 C21.9570248,12.922314 22.677686,12.2446281 23.0909091,12.9454545 C23.2892562,13.8049587 22.4859504,14.4429752 22.0363636,15.0809917 C19.1404959,18.568595 13.9338843,19.8115702 9.76859504,18.0165289 C7.71239669,17.153719 5.90743802,15.6528926 4.76033058,13.7355372 Z" id="Shape"></path>
                                </g>
                                <g id="#f18d84ff" transform="translate(2.644628, 18.181818)" fill="#F18D84">
                                    <path d="M3.06115702,0.476033058 C5.33884298,-0.218181818 7.91404959,1.58347107 8.03305785,3.95702479 C8.28429752,6.10578512 6.4661157,8.19173554 4.3107438,8.2446281 C2.23801653,8.41652893 0.254545455,6.69421488 0.152066116,4.61487603 C-0.0396694215,2.76694215 1.26280992,0.925619835 3.06115702,0.476033058 Z" id="Shape"></path>
                                    <path d="M26.522314,3.07107438 C27.1900826,0.770247934 30.138843,-0.390082645 32.1983471,0.829752066 C33.8181818,1.65619835 34.4760331,3.59669421 34.1818182,5.31900826 C34.0661157,5.70578512 33.9338843,6.08595041 33.7884298,6.46280992 C32.753719,7.54049587 31.3487603,8.49586777 29.7752066,8.21818182 C27.3950413,7.99008264 25.7123967,5.32231405 26.522314,3.07107438 Z" id="Shape"></path>
                                </g>
                            </g>
                        </g>
                    </g>
                </g>
            </g>
        </g>
    </g>
</svg>
