<svg width="42px" height="48px" viewBox="0 0 42 48" version="1.1" xmlns="http://www.w3.org/2000/svg" xmlns:xlink="http://www.w3.org/1999/xlink">
    <desc></desc>
    <defs>
        <polygon id="path-1" points="20.63657 0.247700405 41.2729798 0.247700405 41.2729798 46.4939271 20.63657 46.4939271 0.000160323887 46.4939271 0.000160323887 0.247700405"></polygon>
    </defs>
    <g id="Profile" stroke="none" stroke-width="1" fill="none" fill-rule="evenodd">
        <g id="Profile-1440" transform="translate(-646.000000, -1387.000000)">
            <g id="Group-30" transform="translate(120.000000, 244.000000)">
                <g id="Group-14" transform="translate(510.000000, 1119.000000)">
                    <g id="Page-1" transform="translate(16.000000, 24.000000)">
                        <g id="Group-3" transform="translate(0.000000, 0.554240)">
                            <mask id="mask-2" fill="white">
                                <use xlink:href="#path-1"></use>
                            </mask>
                            <g id="Clip-2"></g>
                            <path d="M39.7933506,46.4939271 L7.38227368,46.4939271 C3.3116502,46.4939271 0.000160323887,43.1832389 0.000160323887,39.113417 L0.000160323887,7.631417 C0.000160323887,3.55919028 3.3116502,0.247700405 7.38227368,0.247700405 L39.7933506,0.247700405 C40.6110024,0.247700405 41.2731401,0.909838057 41.2731401,1.72668826 L41.2731401,39.8661377 C41.2731401,40.6837895 40.6110024,41.3459271 39.7933506,41.3459271 L7.09048421,41.3459271 C6.27363401,41.3459271 5.61069474,40.6837895 5.61069474,39.8661377 C5.61069474,39.0492874 6.27363401,38.3871498 7.09048421,38.3871498 L38.3135611,38.3871498 L38.3135611,3.20647773 L7.38227368,3.20647773 C4.94374737,3.20647773 2.95973927,5.19208907 2.95973927,7.631417 L2.95973927,39.113417 C2.95973927,41.5511417 4.94374737,43.5351498 7.38227368,43.5351498 L39.7933506,43.5351498 C40.6110024,43.5351498 41.2731401,44.1972874 41.2731401,45.0141377 C41.2731401,45.8317895 40.6110024,46.4939271 39.7933506,46.4939271" id="Fill-1" fill="#004B79" mask="url(#mask-2)"></path>
                        </g>
                        <path d="M20.6366502,33.2076462 C19.8189984,33.2076462 19.1568607,32.5455085 19.1568607,31.7278567 L19.1568607,11.2536947 C19.1568607,10.4368445 19.8189984,9.77470688 20.6366502,9.77470688 C21.454302,9.77470688 22.1164397,10.4368445 22.1164397,11.2536947 L22.1164397,31.7278567 C22.1164397,32.5455085 21.454302,33.2076462 20.6366502,33.2076462" id="Fill-4" fill="#004B79"></path>
                        <path d="M27.5098955,19.6067296 L13.7629239,19.6067296 C12.9452721,19.6067296 12.2823328,18.9445919 12.2823328,18.1269401 C12.2823328,17.3100899 12.9452721,16.6479522 13.7629239,16.6479522 L27.5098955,16.6479522 C28.3275474,16.6479522 28.989685,17.3100899 28.989685,18.1269401 C28.989685,18.9445919 28.3275474,19.6067296 27.5098955,19.6067296" id="Fill-6" fill="#004B79"></path>
                    </g>
                </g>
            </g>
        </g>
    </g>
</svg>
