<svg width="42px" height="40px" viewBox="0 0 42 40" version="1.1" xmlns="http://www.w3.org/2000/svg" xmlns:xlink="http://www.w3.org/1999/xlink">
    <!-- Generator: Sketch 48.1 (47250) - http://www.bohemiancoding.com/sketch -->
    <desc>Created with Sketch.</desc>
    <defs></defs>
    <g id="Profile" stroke="none" stroke-width="1" fill="none" fill-rule="evenodd">
        <g id="Profile-1440" transform="translate(-646.000000, -2349.000000)" fill="#004B79" fill-rule="nonzero">
            <g id="Group-30" transform="translate(120.000000, 244.000000)">
                <g id="Group-28" transform="translate(510.000000, 2081.000000)">
                    <g id="Group-24" transform="translate(16.000000, 24.000000)">
                        <path d="M10.4603697,39.9365465 C9.78347911,39.9365465 9.10658849,39.7109162 8.65532808,39.2596558 C7.75280725,38.5827652 7.07591664,37.4546142 7.30154684,36.100833 L8.88095828,25.2705831 L0.983901076,17.5991561 C0.0813802519,16.6966352 -0.144249954,15.5684842 0.0813802519,14.214703 C0.532640664,13.0865519 1.43516149,12.1840311 2.78894272,11.9584009 L13.6191926,10.3789895 L18.5830571,1.57941144 C19.2599478,0.676890618 20.1624686,0 21.2906196,0 C22.4187706,0 23.5469217,0.676890618 23.9981821,1.57941144 L29.1876768,10.8302499 C29.8645674,11.9584009 29.413307,13.3121822 28.285156,13.9890728 C27.157005,14.6659634 25.8032237,14.214703 25.1263331,13.0865519 L20.8393592,5.64075515 L17.0036457,13.5378124 C16.5523853,14.4403332 15.6498645,15.1172238 14.7473436,15.1172238 L5.7221354,16.2453748 L12.2654114,22.5630206 C12.942302,23.2399112 13.3935624,24.3680622 13.1679322,25.2705831 L11.814151,34.2957913 L19.485578,30.2344476 C20.3880988,29.7831872 21.5162498,29.7831872 22.4187706,30.2344476 L30.0901976,34.2957913 L28.7364164,25.2705831 C28.5107862,24.3680622 28.9620466,23.2399112 29.6389372,22.5630206 L36.1822132,16.2453748 L34.828432,16.0197446 C33.7002809,15.7941144 32.7977601,14.6659634 32.7977601,13.5378124 C33.0233903,12.4096613 34.1515414,11.5071405 35.2796924,11.5071405 L39.1154059,11.9584009 C40.2435569,12.1840311 41.3717079,13.0865519 41.8229684,14.214703 C42.2742288,15.342854 41.8229684,16.6966352 40.9204475,17.5991561 L33.0233903,25.2705831 L34.6028018,36.100833 C34.828432,37.228984 34.1515414,38.5827652 33.2490205,39.2596558 C32.3464997,39.9365465 30.9927185,39.9365465 29.8645674,39.485286 L20.613729,34.5214215 L11.3628905,39.485286 C11.3628905,39.9365465 10.9116301,39.9365465 10.4603697,39.9365465 Z" id="Shape"></path>
                    </g>
                </g>
            </g>
        </g>
    </g>
</svg>
