<svg width="20px" height="20px" viewBox="0 0 20 20" version="1.1" xmlns="http://www.w3.org/2000/svg" xmlns:xlink="http://www.w3.org/1999/xlink">
<defs></defs>
<g id="Dashboard" stroke="none" stroke-width="1" fill="none" fill-rule="evenodd">
<g id="Dashboard-Main-1440" transform="translate(-476.000000, -252.000000)" fill-rule="nonzero" fill="#004B79">
<g id="Group-31" transform="translate(120.000000, 244.000000)">
<g id="noun_1076053_cc" transform="translate(356.000000, 8.000000)">
<g id="Group">
<path d="M10,19.8918919 C15.4594595,19.8918919 19.8918919,15.4594595 19.8918919,10 C19.8918919,4.54054054 15.4594595,0.108108108 10,0.108108108 C4.54054054,0.108108108 0.108108108,4.54054054 0.108108108,10 C0.108108108,15.4594595 4.54054054,19.8918919 10,19.8918919 Z M10,1.72972973 C14.5675676,1.72972973 18.2702703,5.43243243 18.2702703,10 C18.2702703,14.5675676 14.5675676,18.2702703 10,18.2702703 C5.43243243,18.2702703 1.72972973,14.5675676 1.72972973,10 C1.72972973,5.43243243 5.43243243,1.72972973 10,1.72972973 Z" id="Shape"></path>
<path d="M6.18918919,13.8108108 C6.35135135,13.972973 6.56756757,14.0540541 6.75675676,14.0540541 C6.94594595,14.0540541 7.16216216,13.972973 7.32432432,13.8108108 L10,11.1351351 L12.6756757,13.8108108 C12.8378378,13.972973 13.0540541,14.0540541 13.2432432,14.0540541 C13.4324324,14.0540541 13.6486486,13.972973 13.8108108,13.8108108 C14.1351351,13.4864865 14.1351351,12.972973 13.8108108,12.6756757 L11.1351351,10 L13.8108108,7.32432432 C14.1351351,7 14.1351351,6.48648649 13.8108108,6.18918919 C13.4864865,5.86486486 12.972973,5.86486486 12.6756757,6.18918919 L10,8.86486486 L7.32432432,6.18918919 C7,5.86486486 6.48648649,5.86486486 6.18918919,6.18918919 C5.86486486,6.51351351 5.86486486,7.02702703 6.18918919,7.32432432 L8.86486486,10 L6.18918919,12.6756757 C5.86486486,13 5.86486486,13.5135135 6.18918919,13.8108108 Z" id="Shape"></path>
</g>
</g>
</g>
</g>
</g>
</svg>
