<svg width="43px" height="52px" viewBox="0 0 43 52" version="1.1" xmlns="http://www.w3.org/2000/svg" xmlns:xlink="http://www.w3.org/1999/xlink">
    <desc></desc>
    <defs></defs>
    <g id="Profile" stroke="none" stroke-width="1" fill="none" fill-rule="evenodd">
        <g id="Profile-1440" transform="translate(-642.000000, -799.000000)" stroke-width="1.2" stroke="#004B79" fill="#004B79">
            <g id="Group-30" transform="translate(120.000000, 244.000000)">
                <g id="Group-35" transform="translate(523.000000, 556.000000)">
                    <g id="Group-5">
                        <g id="Page-1">
                            <g id="Group-3" transform="translate(5.219417, 22.574784)">
                                <path d="M1.67519211,13.310438 L6.23816747,17.8730119 L7.56550548,16.5456738 C7.67872669,16.4324526 7.83169577,16.3690166 7.99149025,16.3690166 L23.0655694,16.3690166 L34.2034048,5.23158273 C34.6382224,4.79676511 34.8779141,4.21861425 34.8779141,3.60352597 C34.8779141,2.98803621 34.6382224,2.40948385 34.2030033,1.97426473 C33.7681857,1.53904562 33.1896333,1.29935391 32.5745451,1.29935391 C31.9594568,1.29935391 31.3809044,1.53904562 30.9456853,1.97426473 L23.817567,9.10238303 C23.4192853,10.4048284 22.172246,11.3583759 20.6995673,11.3583759 L12.500264,11.3567699 L12.5006655,10.1522889 L20.6999688,10.1538949 C21.828166,10.1538949 22.746382,9.2814492 22.746382,8.20905966 C22.746382,7.13707161 21.828166,6.26502739 20.6995673,6.26502739 L8.59573819,6.39029341 L1.67519211,13.310438 Z M6.23816747,19.3268204 C6.08399391,19.3268204 5.92982034,19.2682023 5.8121827,19.1505647 L0.397639313,13.7364228 C0.284819597,13.6232016 0.220982106,13.4702325 0.220982106,13.310438 C0.220982106,13.1506435 0.284819597,12.9976744 0.397639313,12.8844532 L7.91761541,5.36487863 C8.02923065,5.25326339 8.17979077,5.18982739 8.33717628,5.18862291 L20.6935449,5.06054644 C22.1951312,5.06054644 23.4594347,6.04500887 23.8364372,7.37997527 L30.0941173,1.1226967 C30.7565818,0.45983068 31.6374589,0.09487295 32.5745451,0.09487295 C33.5112298,0.09487295 34.3925083,0.45983068 35.0549728,1.1226967 C35.7174374,1.78516122 36.0823951,2.66643979 36.0823951,3.60352597 C36.0823951,4.54061216 35.7174374,5.42148923 35.0545714,6.08355226 L23.7404802,17.3972419 C23.6276605,17.5100616 23.4746914,17.5734976 23.314897,17.5734976 L8.2408178,17.5734976 L6.66375074,19.1505647 C6.5461131,19.2682023 6.39234103,19.3268204 6.23816747,19.3268204 L6.23816747,19.3268204 Z" id="Fill-1"></path>
                            </g>
                            <g id="Group-6" transform="translate(0.000000, 33.816606)">
                                <path d="M1.45404941,4.57522091 L11.4841638,14.6057368 L14.60658,11.4837222 L4.57646554,1.45400926 L1.45404941,4.57522091 Z M11.4841638,16.0595453 C11.3299903,16.0595453 11.1758167,16.0009273 11.0581791,15.8832896 L0.176496609,5.00120568 C0.0636768932,4.88798447 -0.000160597461,4.73501538 -0.000160597461,4.57522091 C-0.000160597461,4.41542644 0.0636768932,4.26245736 0.176496609,4.14923615 L4.15048078,0.176054966 C4.38575606,-0.05881882 4.76677353,-0.05881882 5.00204881,0.17645646 L15.8841328,11.0577374 C15.9969525,11.1709586 16.0603885,11.3239277 16.0603885,11.4837222 C16.0603885,11.6435167 15.9969525,11.7964857 15.8841328,11.9097069 L11.9097471,15.8832896 C11.7925109,16.0009273 11.6383374,16.0595453 11.4841638,16.0595453 L11.4841638,16.0595453 Z" id="Fill-4"></path>
                            </g>
                            <g id="Group-9" transform="translate(9.635848, 0.091139)">
                                <path d="M7.40667459,1.5146348 C5.76416406,1.5146348 4.21921649,2.15461568 3.05689237,3.31653831 C0.659573771,5.7146599 0.659573771,9.61637521 3.05689237,12.0136938 L12.1804341,21.1368341 L21.3043774,12.0136938 C23.7004915,9.61597371 23.7004915,5.71385691 21.3039759,3.31613682 C20.1424547,2.15421419 18.5979086,1.5146348 16.9553981,1.5146348 C15.3124861,1.5146348 13.7683415,2.15421419 12.6064189,3.31613682 C12.4931977,3.42935803 12.3402286,3.49279403 12.1804341,3.49279403 C12.0206396,3.49279403 11.8672691,3.42935803 11.7544494,3.31613682 C10.5933297,2.15421419 9.04918512,1.5146348 7.40667459,1.5146348 M12.1804341,22.5906426 C12.0262606,22.5906426 11.8724885,22.5320245 11.7548508,22.4143869 L2.20492284,12.8652618 C-0.661340344,9.99859716 -0.661340344,5.33283943 2.20492284,2.46456878 C3.59489386,1.07499925 5.44216615,0.310153846 7.40667459,0.310153846 C9.17645861,0.310153846 10.8506871,0.931264526 12.1808356,2.07030202 C13.5109841,0.931264526 15.1856141,0.310153846 16.9553981,0.310153846 C18.9195051,0.310153846 20.7663759,1.07540075 22.1559454,2.46456878 C25.0214056,5.33203645 25.0214056,9.99779417 22.1559454,12.8652618 L12.6064189,22.4143869 C12.4887812,22.5320245 12.3346077,22.5906426 12.1804341,22.5906426" id="Fill-7"></path>
                            </g>
                        </g>
                    </g>
                </g>
            </g>
        </g>
    </g>
</svg>
