
<svg width="186px" height="32px" viewBox="0 0 186 32" version="1.1" xmlns="http://www.w3.org/2000/svg" xmlns:xlink="http://www.w3.org/1999/xlink">
    <!-- Generator: Sketch 48.1 (47250) - http://www.bohemiancoding.com/sketch -->
    <desc>Created with Sketch.</desc>
    <defs>
        <polygon id="path-1" points="16.0344828 24.764831 6.12462742 32 9.62068956 19.875666 -3.33066907e-16 12.2229124 12.0705406 11.9648308 16.0344828 0 19.998425 11.9648308 32.0689655 12.2229124 22.448276 19.875666 25.9443381 32"></polygon>
        <polygon id="path-2" points="54.5172414 24.764831 44.607386 32 48.1034482 19.875666 38.4827586 12.2229124 50.5532992 11.9648308 54.5172414 0 58.4811836 11.9648308 70.5517241 12.2229124 60.9310346 19.875666 64.4270967 32"></polygon>
        <polygon id="path-3" points="93 23.5265895 83.0901447 30.4 86.5862068 18.8818827 76.9655172 11.6117667 89.0360578 11.3665893 93 0 96.9639422 11.3665893 109.034483 11.6117667 99.4137932 18.8818827 102.909855 30.4"></polygon>
        <polygon id="path-4" points="131.482759 23.5265895 121.572903 30.4 125.068965 18.8818827 115.448276 11.6117667 127.518816 11.3665893 131.482759 0 135.446701 11.3665893 147.517241 11.6117667 137.896552 18.8818827 141.392614 30.4"></polygon>
    </defs>
    <g id="Profile" stroke="none" stroke-width="1" fill="none" fill-rule="evenodd">
        <g id="Profile-1440" transform="translate(-713.000000, -2454.000000)">
            <g id="Group-30" transform="translate(120.000000, 244.000000)">
                <g id="Group-28" transform="translate(510.000000, 2081.000000)">
                    <g id="Group-24" transform="translate(16.000000, 24.000000)">
                        <g id="Group-21" transform="translate(67.000000, 1.000000)">
                            <g id="Group-20" transform="translate(0.000000, 72.000000)">
                                <g id="Ratings" transform="translate(0.000000, 32.000000)">
                                    <g id="Star">
                                        <g>
                                            <use fill="#ED1651" fill-rule="evenodd" xlink:href="#path-1"></use>
                                            <path stroke="#ED1651" stroke-width="1" d="M25.0590871,30.734599 L21.8751385,19.6926739 L30.6745393,12.6932123 L19.6348113,12.4571706 L16.0344828,1.58987749 L12.4341542,12.4571706 L1.39442617,12.6932123 L10.1938271,19.6926739 L7.00987844,30.734599 L16.0344828,24.1457503 L25.0590871,30.734599 Z"></path>
                                        </g>
                                        <g>
                                            <use fill="#ED1651" fill-rule="evenodd" xlink:href="#path-2"></use>
                                            <path stroke="#ED1651" stroke-width="1" d="M63.5418457,30.734599 L60.3578971,19.6926739 L69.157298,12.6932123 L58.1175699,12.4571706 L54.5172414,1.58987749 L50.9169128,12.4571706 L39.8771848,12.6932123 L48.6765857,19.6926739 L45.4926371,30.734599 L54.5172414,24.1457503 L63.5418457,30.734599 Z"></path>
                                        </g>
                                        <g>
                                            <use fill="#ED1651" fill-rule="evenodd" xlink:href="#path-3"></use>
                                            <path stroke="#ED1651" stroke-width="1" d="M102.014045,29.1701756 L98.8340259,18.6932918 L107.582384,12.0823748 L96.6062807,11.8594276 L93,1.51843131 L89.3937193,11.8594276 L78.4176157,12.0823748 L87.1659741,18.6932918 L83.9859547,29.1701756 L93,22.918093 L102.014045,29.1701756 Z"></path>
                                        </g>
                                        <g>
                                            <use fill="#ED1651" fill-rule="evenodd" xlink:href="#path-4"></use>
                                            <path stroke="#ED1651" stroke-width="1" d="M140.496804,29.1701756 L137.316785,18.6932918 L146.065143,12.0823748 L135.089039,11.8594276 L131.482759,1.51843131 L127.876478,11.8594276 L116.900374,12.0823748 L125.648733,18.6932918 L122.468713,29.1701756 L131.482759,22.918093 L140.496804,29.1701756 Z"></path>
                                        </g>
                                        <path d="M178.979563,29.1701756 L175.799543,18.6932918 L184.547902,12.0823748 L173.571798,11.8594276 L169.965517,1.51843131 L166.359237,11.8594276 L155.383133,12.0823748 L164.131491,18.6932918 L160.951472,29.1701756 L169.965517,22.918093 L178.979563,29.1701756 Z" stroke="#ED1651"></path>
                                    </g>
                                </g>
                            </g>
                        </g>
                    </g>
                </g>
            </g>
        </g>
    </g>
</svg>
