<?xml version="1.0" encoding="utf-8"?>
<!-- Generator: Adobe Illustrator 21.1.0, SVG Export Plug-In . SVG Version: 6.00 Build 0)  -->
<svg version="1.1" id="Capa_1" xmlns="http://www.w3.org/2000/svg" xmlns:xlink="http://www.w3.org/1999/xlink" x="0px" y="0px"
	 viewBox="0 0 512 512" style="enable-background:new 0 0 512 512;" xml:space="preserve">
<style type="text/css">
	.st0{fill:#004B79;}
</style>
<g>
	<g>
		<path class="st0" d="M325.3,418.8h-28.7c-8.7,0-15.9,7.1-15.9,15.9v19.9c0,14.7,13.5,26.7,30,26.7h0.5c16.5,0,30-12,30-26.7v-19.9
			C341.1,425.9,334,418.8,325.3,418.8z M326.1,454.6c0,6.4-6.9,11.7-15,11.7h-0.5c-8.1,0-15-5.4-15-11.7c0.4-19.1-0.8-20.8,0.9-20.8
			h28.7c0.5,0,0.9,0.4,0.9,0.9V454.6z"/>
	</g>
</g>
<g>
	<g>
		<path class="st0" d="M440,476.6l-8.4-42.3c-0.8-4.1-4.8-6.7-8.8-5.9c-4.1,0.8-6.7,4.8-5.9,8.8l8.4,42.1c0.4,2.9,0.8,9.5-2.6,13.5
			c-5.9,6.7-18.4,3.3-50.6,4.2v-70.7c0-4.1-3.4-7.5-7.5-7.5s-7.5,3.4-7.5,7.5V497H155.2v-70.7c0-4.1-3.4-7.5-7.5-7.5
			s-7.5,3.4-7.5,7.5V497h-37.9c-12.2,0-17.2-5.3-15.6-17.7l21.8-109.5c4.7-23.7,26.8-27.6,27.9-28.1l74.8-18.4
			c12.1,45.9,77.6,45.5,89.5-0.1l74.8,18.5c1.3,0.6,23.2,4.4,27.9,28.1l6.5,32.6c0.8,4.1,4.8,6.7,8.8,5.9c4.1-0.8,6.7-4.8,5.9-8.8
			l-6.5-32.6c-4.8-24.1-22.4-34-32.4-37.8c-5.3-1.9-29.7-7.5-83.5-21v-11.6c31.8-16.6,53.3-49.9,53.3-88.1V207
			c25.1-4.6,36.7-30,22.4-48.4v-53.2c0-0.6-0.1-16-7.8-33.3c-7.2-16.1-22.6-37.1-55.1-45.2c-24.7-6.1-38.2-15.1-45.2-21.5
			c-7.9-7.2-19.8-7.2-27.6,0c-7,6.4-20.6,15.3-45.2,21.5c-15.1,3.7-27.8,10.6-37.9,20.3c-3,2.9-3.1,7.6-0.2,10.6s7.6,3.1,10.6,0.2
			c8.2-7.9,18.6-13.5,31.1-16.6c27.7-6.9,43.4-17.4,51.7-24.9c2.1-1.9,5.3-1.9,7.4,0c8.3,7.6,24,18.1,51.7,24.9
			c50.7,12.6,51.5,61.9,51.5,63.9v42.2c-2.4-0.9-4.8-1.7-7.4-2.1c-0.6-3.2,3.9-22.9-14.4-32.4c0,0,0,0,0,0
			c-77-39.7-144.5-14.2-169.9-1.3c-9,4.5-14.5,13.6-14.5,23.6v10c-2.7,0.5-5.3,1.3-7.7,2.2c0.1-41-1.4-47.1,3.9-62.8
			c1.3-3.9-0.8-8.2-4.7-9.5c-3.9-1.3-8.2,0.8-9.5,4.7c-4.6,13.8-4.7,24.8-4.7,25.3V159c-14,18.5-2,43.4,22.7,48
			c0.1,0.6-2,41.5,31.3,73.3c6.6,6.3,13.9,11.6,21.7,15.8v12.1c-80.6,19.9-77,19-77.3,19.1c-0.4,0.2-31.8,6-38.6,39.6L72,476.6
			c0,0.1-0.1,0.3-0.1,0.4c-2.9,20.3,7.8,35,30.4,35h307.4c10.7,0,18.9-3.2,24.3-9.4C440.1,495.5,441.6,484.5,440,476.6z
			 M355.5,160.8c18.2,5.4,18.1,25.4,0,30.8V160.8z M156.7,191.6c-18.1-5.4-18.1-25.4,0-30.8V191.6z M287.2,313.4
			c-1,16.4-14.7,29.3-31.2,29.3c-16.4,0-30.1-12.8-31.2-29.1c-0.1-2.2-0.1-6.1-0.1-10.9c19.6,6.6,41.7,7,62.5,0.2
			C287.2,308,287.3,311.3,287.2,313.4z M171.7,207c0-16.5,0-55.1,0-71.6c0-4.4,2.4-8.3,6.3-10.3c14-7.1,42-18.4,77.4-18.4
			c23.6,0,50.5,5,78.9,19.6c3.9,2,6.3,5.9,6.3,10.3c0,22,0,50.7,0,71.7c0,31-16.9,61.6-49.2,76.6C234.1,311.4,171.7,267.9,171.7,207
			z"/>
	</g>
</g>
</svg>
