<svg width="35px" height="24px" viewBox="0 0 35 24" version="1.1" xmlns="http://www.w3.org/2000/svg" xmlns:xlink="http://www.w3.org/1999/xlink">
    <defs>
        <polygon id="path-1" points="22.8453056 0 0.000294194372 0 0.000294194372 23.999723 22.8453056 23.999723 22.8453056 3.55271368e-15"></polygon>
    </defs>
    <g id="Messages" stroke="none" stroke-width="1" fill="none" fill-rule="evenodd">
        <g id="Messages/Inbox-1440" transform="translate(-120.000000, -146.000000)">
            <g id="Group-9" transform="translate(0.000000, 120.000000)">
                <g id="Stacked-Group" transform="translate(120.000000, 26.000000)">
                    <g id="Stacked-Group-3">
                        <g id="Page-1">
                            <g id="Group-3" transform="translate(0.000000, 0.000100)">
                                <mask id="mask-2" fill="white">
                                    <use xlink:href="#path-1"></use>
                                </mask>
                                <g id="Clip-2"></g>
                                <path d="M18.5303,21.6997 L11.5273,21.6997 L4.4773,21.6997 L2.3653,21.6997 L2.3763,21.6047 C2.4703,20.9947 2.6163,20.3937 2.8163,19.8097 C2.8653,19.6647 2.9193,19.5207 2.9753,19.3787 L2.9943,19.3307 L3.0813,19.1357 C3.2213,18.8297 3.3793,18.5307 3.5493,18.2397 C3.7093,17.9647 3.8843,17.6987 4.0693,17.4387 L4.1573,17.3187 L4.1933,17.2727 C4.2973,17.1417 4.4053,17.0137 4.5143,16.8877 C4.9153,16.4287 5.3603,16.0087 5.8353,15.6277 C6.4793,15.1447 7.1763,14.7397 7.9133,14.4167 C8.6633,14.1187 9.4443,13.9107 10.2413,13.7937 C11.0493,13.7037 11.8633,13.7067 12.6693,13.8037 C13.2793,13.8967 13.8793,14.0437 14.4643,14.2427 C14.6083,14.2917 14.7523,14.3457 14.8943,14.4017 L14.9423,14.4217 L15.1363,14.5087 C15.4433,14.6487 15.7423,14.8057 16.0333,14.9747 C16.3083,15.1357 16.5753,15.3107 16.8343,15.4957 L16.9543,15.5837 L17.0003,15.6197 C17.1313,15.7237 17.2593,15.8317 17.3843,15.9417 C17.8443,16.3427 18.2643,16.7867 18.6453,17.2627 C19.1283,17.9067 19.5343,18.6027 19.8563,19.3397 C20.1543,20.0907 20.3633,20.8727 20.4793,21.6727 L20.4823,21.6997 L18.5303,21.6997 Z M7.2513,8.5377 C7.1093,8.1647 7.0063,7.7797 6.9433,7.3857 C6.9043,6.9797 6.9063,6.5727 6.9513,6.1667 C7.0043,5.8557 7.0823,5.5497 7.1843,5.2497 L7.2533,5.0637 L7.2813,4.9997 C7.3593,4.8307 7.4473,4.6667 7.5403,4.5067 C7.6253,4.3617 7.7183,4.2207 7.8163,4.0837 L7.8243,4.0717 L8.0143,3.8467 C8.2083,3.6277 8.4213,3.4257 8.6473,3.2397 C8.9733,3.0007 9.3213,2.7977 9.6883,2.6307 C10.0613,2.4887 10.4473,2.3857 10.8413,2.3227 C11.2463,2.2827 11.6533,2.2857 12.0583,2.3307 C12.3703,2.3837 12.6763,2.4617 12.9763,2.5637 L13.1623,2.6327 L13.2253,2.6607 C13.3943,2.7387 13.5583,2.8257 13.7193,2.9197 C13.8643,3.0047 14.0053,3.0977 14.1413,3.1957 L14.1543,3.2037 L14.3793,3.3937 C14.5973,3.5877 14.8003,3.8007 14.9853,4.0267 C15.2243,4.3527 15.4283,4.7007 15.5953,5.0687 C15.7383,5.4427 15.8413,5.8297 15.9033,6.2257 C15.9223,6.4147 15.9313,6.6037 15.9323,6.7947 C15.9313,7.0107 15.9193,7.2247 15.8953,7.4387 C15.8423,7.7507 15.7643,8.0557 15.6623,8.3557 L15.5923,8.5417 L15.5643,8.6057 C15.4873,8.7747 15.3993,8.9387 15.3053,9.0987 C15.2203,9.2437 15.1283,9.3847 15.0303,9.5217 L15.0213,9.5327 L14.8323,9.7587 C14.6373,9.9777 14.4253,10.1787 14.1993,10.3657 C13.8733,10.6047 13.5253,10.8077 13.1573,10.9747 C12.7843,11.1167 12.3993,11.2197 12.0053,11.2827 C11.5993,11.3217 11.1923,11.3197 10.7873,11.2747 C10.4753,11.2217 10.1693,11.1437 9.8693,11.0417 L9.6843,10.9727 L9.6203,10.9447 C9.4513,10.8667 9.2873,10.7787 9.1273,10.6847 C8.9823,10.6007 8.8423,10.5077 8.7043,10.4097 L8.6923,10.4007 L8.4673,10.2117 C8.2483,10.0177 8.0463,9.8037 7.8603,9.5787 C7.6213,9.2527 7.4183,8.9047 7.2513,8.5377 L7.2513,8.5377 Z M17.7783,13.3607 C17.0903,12.8887 16.3473,12.5017 15.5703,12.2017 C17.2223,10.9237 18.2223,8.9157 18.2323,6.8107 C18.2233,4.8417 17.3613,2.8987 15.8433,1.6277 C15.0653,0.9757 14.1723,0.4917 13.1903,0.2247 C12.1673,-0.0533 11.1053,-0.0603 10.0683,0.1307 C8.1573,0.4827 6.4553,1.7697 5.4983,3.4447 C4.5163,5.1617 4.3273,7.3507 5.0543,9.1967 C5.4273,10.1447 5.9663,10.9987 6.7023,11.7097 C6.8873,11.8887 7.0823,12.0547 7.2853,12.2087 L7.1623,12.2587 C5.4513,12.9697 3.9123,14.0357 2.7173,15.4607 C1.5233,16.8837 0.6593,18.5747 0.2673,20.3927 C0.0933,21.1947 0.0023,22.0217 0.0003,22.8417 C-0.0017,23.4647 0.5133,23.9997 1.1423,23.9997 L4.3163,23.9997 L11.3193,23.9997 L18.3693,23.9997 L21.6853,23.9997 L21.6873,23.9997 C22.3093,24.0037 22.8473,23.4847 22.8453,22.8577 C22.8413,20.9497 22.3613,19.0717 21.4583,17.3907 C20.5863,15.7657 19.2943,14.3987 17.7783,13.3607 L17.7783,13.3607 Z" id="Fill-1" fill="#004B79" mask="url(#mask-2)"></path>
                            </g>
                            <path d="M22.2715,5.4054 L27.0995,5.4054 L33.2685,5.4054 L33.5675,5.4054 C34.1945,5.4054 34.7215,4.8934 34.7255,4.2634 C34.7305,3.6404 34.2105,3.1054 33.5845,3.1054 L28.7555,3.1054 L22.5865,3.1054 L22.2885,3.1054 C21.6625,3.1054 21.1345,3.6174 21.1295,4.2464 C21.1255,4.8704 21.6455,5.4054 22.2715,5.4054" id="Fill-4" fill="#004B79"></path>
                            <g id="Group-8" transform="translate(23.000000, 10.000100)" fill="#004B79">
                                <path d="M10.584,0.8462 L5.261,0.8462 L1.236,0.8462 C0.609,0.8462 0.082,1.3582 0.078,1.9882 C0.073,2.6112 0.593,3.1462 1.22,3.1462 L6.543,3.1462 L10.567,3.1462 C11.194,3.1462 11.722,2.6342 11.726,2.0052 C11.73,1.3812 11.211,0.8462 10.584,0.8462" id="Fill-6"></path>
                            </g>
                            <g id="Group-11" transform="translate(26.000000, 18.000100)" fill="#004B79">
                                <path d="M7.584,0.5879 L2.198,0.5879 L2.131,0.5879 C1.505,0.5879 0.977,1.0999 0.973,1.7299 C0.969,2.3529 1.488,2.8879 2.114,2.8879 L7.501,2.8879 L7.567,2.8879 C8.194,2.8879 8.722,2.3759 8.726,1.7459 C8.73,1.1229 8.211,0.5879 7.584,0.5879" id="Fill-9"></path>
                            </g>
                        </g>
                    </g>
                </g>
            </g>
        </g>
    </g>
</svg>
