
<svg width="24px" height="24px" viewBox="0 0 24 24" version="1.1" xmlns="http://www.w3.org/2000/svg" xmlns:xlink="http://www.w3.org/1999/xlink">
    <!-- Generator: Sketch 48.1 (47250) - http://www.bohemiancoding.com/sketch -->
    <desc>Created with Sketch.</desc>
    <defs></defs>
    <g id="Dashboard" stroke="none" stroke-width="1" fill="none" fill-rule="evenodd">
        <g id="Dashboard-Main-1440" transform="translate(-926.000000, -146.000000)" fill="#004B79">
            <g id="Group-9" transform="translate(0.000000, 120.000000)">
                <g id="Stacked-Group" transform="translate(120.000000, 26.000000)">
                    <g id="Stacked-Group-6" transform="translate(806.000000, 0.000000)">
                        <g id="Page-1">
                            <g id="Group-6">
                                <path d="M12,2.0635 C17.102,2.0705 21.33,5.9325 21.867,10.9525 L17.278,10.9525 C16.878,10.9525 16.515,11.1835 16.345,11.5435 L16.345,11.5445 L15.481,13.3805 L14.617,11.5435 L12.525,7.0835 C12.35,6.7095 11.979,6.4895 11.591,6.4905 C11.444,6.4905 11.293,6.5225 11.153,6.5885 C10.935,6.6905 10.76,6.8655 10.658,7.0825 L8.566,11.5445 L7.704,13.3795 L6.838,11.5435 C6.668,11.1825 6.305,10.9525 5.905,10.9525 L2.133,10.9525 C2.669,5.9325 6.898,2.0705 12,2.0635 M12,21.9365 C6.885,21.9295 2.649,18.0485 2.128,13.0155 L5.25,13.0155 L6.775,16.2575 L6.775,16.2585 C6.952,16.6315 7.323,16.8515 7.709,16.8505 C7.856,16.8505 8.007,16.8185 8.147,16.7525 C8.367,16.6505 8.541,16.4745 8.643,16.2585 L8.644,16.2565 L10.44,12.4215 L11.597,9.9525 L12.755,12.4215 L14.554,16.2575 C14.729,16.6305 15.102,16.8515 15.488,16.8505 C15.635,16.8505 15.786,16.8185 15.926,16.7525 C16.145,16.6505 16.319,16.4755 16.422,16.2565 L17.947,13.0155 L21.872,13.0155 C21.351,18.0485 17.115,21.9295 12,21.9365 M12,0.0005 C5.373,0.0005 0,5.3735 0,12.0005 C0,18.6265 5.373,24.0005 12,24.0005 C18.627,24.0005 24,18.6265 24,12.0005 L24,11.9995 C23.992,5.3765 18.624,0.0075 12,0.0005" id="Fill-4"></path>
                            </g>
                        </g>
                    </g>
                </g>
            </g>
        </g>
    </g>
</svg>
