<svg width="23px" height="23px" viewBox="0 0 23 23" version="1.1" xmlns="http://www.w3.org/2000/svg" xmlns:xlink="http://www.w3.org/1999/xlink">
    <desc></desc>
    <defs></defs>
    <g id="Dashboard" stroke="none" stroke-width="1" fill="none" fill-rule="evenodd">
        <g id="Dashboard-Main-1440" transform="translate(-317.000000, -146.000000)" fill-rule="nonzero" fill="#004B79">
            <g id="Group-9" transform="translate(0.000000, 120.000000)">
                <g id="Stacked-Group" transform="translate(120.000000, 26.000000)">
                    <g id="Stacked-Group-4" transform="translate(197.000000, 0.000000)">
                        <path d="M8.54285714,5.83660104e-16 C13.2609469,2.33464042e-15 17.0857143,3.82476742 17.0857143,8.54285714 C17.0857143,10.6588571 16.3102857,12.604 15.0354286,14.1022857 L15.3902857,14.4571429 L16.4285714,14.4571429 L23,21.0285714 L21.0285714,23 L14.4571429,16.4285714 L14.4571429,15.3902857 L14.1022857,15.0354286 C12.604,16.3102857 10.6588571,17.0857143 8.54285714,17.0857143 C3.82476742,17.0857143 5.83660104e-16,13.2609469 0,8.54285714 C-2.91830052e-15,3.82476742 3.82476742,5.83660104e-16 8.54285714,0 L8.54285714,5.83660104e-16 Z M8.54285714,2.62857143 C5.25714286,2.62857143 2.62857143,5.25714286 2.62857143,8.54285714 C2.62857143,11.8285714 5.25714286,14.4571429 8.54285714,14.4571429 C11.8285714,14.4571429 14.4571429,11.8285714 14.4571429,8.54285714 C14.4571429,5.25714286 11.8285714,2.62857143 8.54285714,2.62857143 Z" id="Shape"></path>
                    </g>
                </g>
            </g>
        </g>
    </g>
</svg>
