<svg width="23px" height="24px" viewBox="0 0 23 24" version="1.1" xmlns="http://www.w3.org/2000/svg" xmlns:xlink="http://www.w3.org/1999/xlink">
    <desc></desc>
    <defs></defs>
    <g id="Dashboard" stroke="none" stroke-width="1" fill="none" fill-rule="evenodd">
        <g id="Dashboard-Main-1440" transform="translate(-1099.000000, -146.000000)" fill="#004B79">
            <g id="Group-9" transform="translate(0.000000, 120.000000)">
                <g id="Stacked-Group" transform="translate(120.000000, 26.000000)">
                    <g id="Stacked-Group-5" transform="translate(979.000000, 0.000000)">
                        <path d="M18.6557199,21.6999721 L11.6052091,21.6999721 L4.5073794,21.6999721 L2.38105084,21.6999721 L2.39212547,21.6049719 C2.4867632,20.9949706 2.63375371,20.3939693 2.83511058,19.8099681 C2.88444302,19.6649678 2.93880937,19.5209674 2.9951893,19.3789671 L3.0143182,19.330967 L3.10190844,19.1359666 C3.24285825,18.829966 3.40193018,18.5309653 3.57308352,18.2399647 C3.73416901,17.9649641 3.91035627,17.6989635 4.09661138,17.438963 L4.1852084,17.3189627 L4.22145264,17.2729626 C4.32615821,17.1419623 4.43489092,17.0139621 4.54463042,16.8879618 C4.94835094,16.4289608 5.39636998,16.0089599 5.87459255,15.6279591 C6.52296167,15.1449581 7.22469037,14.7399572 7.96669044,14.4169565 C8.7217787,14.1189559 9.50807728,13.9109554 10.3104844,13.7939552 C11.1239662,13.703955 11.9434886,13.706955 12.7549568,13.8039552 C13.3690953,13.8969554 13.9731659,14.0439557 14.5621347,14.2429561 C14.7071117,14.2919562 14.8520886,14.3459564 14.995052,14.4019565 L15.0433777,14.4219565 L15.2386938,14.5089567 C15.5477766,14.648957 15.8488051,14.8059573 16.1417794,14.9749577 C16.4186451,15.1359581 16.6874565,15.3109584 16.9482137,15.4959588 L17.0690278,15.583959 L17.1153399,15.6199591 C17.2472286,15.7239593 17.376097,15.8319595 17.501945,15.9419598 C17.9650659,16.3429606 18.3879153,16.7869616 18.7715001,17.2629626 C19.257777,17.906964 19.6665314,18.6029655 19.990716,19.3399671 C20.2907377,20.0909687 20.5011556,20.8729703 20.6179426,21.6729721 L20.620963,21.6999721 L18.6557199,21.6999721 Z M7.30019919,8.53794393 C7.15723582,8.16494313 7.05353703,7.77994231 6.99010961,7.38594146 C6.95084502,6.97994059 6.95285859,6.57293972 6.99816389,6.16693885 C7.05152346,5.85593819 7.13005264,5.54993753 7.23274464,5.24993689 L7.30221276,5.06393649 L7.33040272,4.99993635 C7.4089319,4.83093599 7.49752893,4.66693564 7.59115987,4.5069353 C7.67673654,4.36193499 7.77036749,4.22093469 7.86903235,4.08393439 L7.87708663,4.07193437 L8.06837566,3.84693389 C8.26369182,3.62793342 8.47813689,3.42593298 8.70567015,3.23993259 C9.03388185,3.00093207 9.38424281,2.79793164 9.75373266,2.63093128 C10.1292632,2.48893098 10.517882,2.38593076 10.914555,2.32293062 C11.3223027,2.28293054 11.7320639,2.28593054 12.1398116,2.33093064 C12.4539283,2.38393075 12.7620043,2.46193092 13.0640396,2.56393114 L13.2513015,2.63293129 L13.3147289,2.66093135 C13.4848755,2.73893151 13.6499881,2.8259317 13.8120804,2.9199319 C13.9580641,3.00493208 14.1000207,3.09793228 14.2369434,3.19593249 L14.2500316,3.20393251 L14.4765581,3.39393292 C14.6960371,3.58793333 14.9004143,3.80093379 15.0866694,4.02693427 C15.3272908,4.35293497 15.5326749,4.70093571 15.7008078,5.0689365 C15.844778,5.4429373 15.9484768,5.82993813 16.0108974,6.22593898 C16.0300263,6.41493938 16.0390874,6.60393979 16.0400942,6.7949402 C16.0390874,7.01094066 16.027006,7.22494112 16.0028431,7.43894158 C15.9494836,7.75094224 15.8709544,8.0559429 15.7682624,8.35594354 L15.6977875,8.54194394 L15.6695975,8.60594407 C15.5920751,8.77494444 15.5034781,8.93894479 15.4088404,9.09894513 C15.3232637,9.24394544 15.2306395,9.38494574 15.1319747,9.52194604 L15.1229136,9.53294606 L14.9326314,9.75894654 C14.7363084,9.97794701 14.5228701,10.1789474 14.2953369,10.3659478 C13.9671252,10.6049484 13.6167642,10.8079488 13.2462676,10.9749491 C12.870737,11.1169495 12.483125,11.2199497 12.086452,11.2829498 C11.6776976,11.3219499 11.2679363,11.3199499 10.8601887,11.2749498 C10.5460719,11.2219497 10.2379959,11.1439495 9.93596063,11.0419493 L9.74970553,10.9729491 L9.68527133,10.9449491 C9.51512477,10.8669489 9.35001214,10.7789487 9.18892664,10.6849485 C9.04294291,10.6009483 8.9019931,10.5079481 8.76305686,10.4099479 L8.75097545,10.4009479 L8.52444897,10.2119475 C8.30396319,10.0179471 8.10059275,9.80394664 7.91333086,9.57894616 C7.6727094,9.25294546 7.46833218,8.90494471 7.30019919,8.53794393 L7.30019919,8.53794393 Z M17.8986181,13.3609543 C17.2059504,12.8889532 16.4579097,12.5019524 15.6756382,12.2019518 C17.338846,10.923949 18.3456303,8.91594474 18.3556982,6.81094023 C18.3466371,4.84193602 17.478789,2.89893186 15.9504904,1.62792914 C15.1672121,0.975927739 14.2681537,0.491926703 13.2794915,0.224926131 C12.2495511,-0.0530744638 11.1803461,-0.0600744788 10.1363107,0.13092593 C8.21234582,0.482926684 6.49879885,1.76992944 5.53530622,3.44493303 C4.54664399,5.1619367 4.35636174,7.35094139 5.08829397,9.19694534 C5.46382453,10.1449474 6.0064813,10.9989492 6.74747458,11.7099507 C6.93372969,11.8889511 7.13005264,12.0549515 7.33442986,12.2089518 L7.21059539,12.2589519 C5.48798736,12.9699534 3.93854624,14.0359557 2.73543893,15.4609588 C1.53333842,16.8839618 0.663476734,18.5749654 0.268817267,20.3929693 C0.0936367899,21.194971 0.00201941372,22.0219728 5.84501497e-06,22.8419746 C-0.00200772369,23.4649759 0.516486218,23.999977 1.14975358,23.999977 L4.34528712,23.999977 L11.3957979,23.999977 L18.4936276,23.999977 L21.8321246,23.999977 L21.8341381,23.999977 C22.460358,24.003977 23.002008,23.4849759 22.9999944,22.8579746 C22.9959673,20.9499705 22.5127108,19.0719665 21.6035845,17.3909629 C20.7256685,15.7659594 19.4249032,14.3989565 17.8986181,13.3609543 L17.8986181,13.3609543 Z" id="Fill-1"></path>
                    </g>
                </g>
            </g>
        </g>
    </g>
</svg>
