<svg width="139px" height="24px" viewBox="0 0 139 24" version="1.1" xmlns="http://www.w3.org/2000/svg" xmlns:xlink="http://www.w3.org/1999/xlink">
    <!-- Generator: Sketch 48.1 (47250) - http://www.bohemiancoding.com/sketch -->
    <desc>Created with Sketch.</desc>
    <defs>
        <polygon id="path-1" points="11.9827586 18.5736233 4.57700651 24 7.1896551 14.9067495 -1.11022302e-16 9.16718427 9.02045773 8.97362313 11.9827586 0 14.9450595 8.97362313 23.9655172 9.16718427 16.7758621 14.9067495 19.3885107 24"></polygon>
        <polygon id="path-2" points="40.7413793 18.5736233 33.3356272 24 35.9482758 14.9067495 28.7586207 9.16718427 37.7790784 8.97362313 40.7413793 0 43.7036802 8.97362313 52.7241379 9.16718427 45.5344828 14.9067495 48.1471314 24"></polygon>
        <polygon id="path-3" points="69.5 17.6449421 62.0942479 22.8 64.7068965 14.161412 57.5172414 8.70882506 66.5376991 8.52494197 69.5 0 72.4623009 8.52494197 81.4827586 8.70882506 74.2931035 14.161412 76.9057521 22.8"></polygon>
        <polygon id="path-4" points="98.2586207 17.6449421 90.8528686 22.8 93.4655172 14.161412 86.2758621 8.70882506 95.2963198 8.52494197 98.2586207 0 101.220922 8.52494197 110.241379 8.70882506 103.051724 14.161412 105.664373 22.8"></polygon>
    </defs>
    <g id="Profile" stroke="none" stroke-width="1" fill="none" fill-rule="evenodd">
        <g id="Profile-1440" transform="translate(-713.000000, -2507.000000)">
            <g id="Group-30" transform="translate(120.000000, 244.000000)">
                <g id="Group-28" transform="translate(510.000000, 2081.000000)">
                    <g id="Group-24" transform="translate(16.000000, 24.000000)">
                        <g id="Group-21" transform="translate(67.000000, 1.000000)">
                            <g id="Group-20" transform="translate(0.000000, 72.000000)">
                                <g id="Group-12" transform="translate(0.000000, 80.000000)">
                                    <g id="Ratings" transform="translate(0.000000, 5.000000)">
                                        <g id="Star">
                                            <g>
                                                <use fill="#ED1651" fill-rule="evenodd" xlink:href="#path-1"></use>
                                                <path stroke="#ED1651" stroke-width="1" d="M18.5039691,22.7320187 L16.2031696,14.7241505 L22.5750004,9.63746163 L14.5810358,9.465927 L11.9827586,1.59503176 L9.38448147,9.465927 L1.39051685,9.63746163 L7.76234759,14.7241505 L5.46154816,22.7320187 L11.9827586,17.9537674 L18.5039691,22.7320187 Z"></path>
                                            </g>
                                            <g>
                                                <use fill="#ED1651" fill-rule="evenodd" xlink:href="#path-2"></use>
                                                <path stroke="#ED1651" stroke-width="1" d="M47.2625898,22.7320187 L44.9617903,14.7241505 L51.3336211,9.63746163 L43.3396565,9.465927 L40.7413793,1.59503176 L38.1431022,9.465927 L30.1491375,9.63746163 L36.5209683,14.7241505 L34.2201688,22.7320187 L40.7413793,17.9537674 L47.2625898,22.7320187 Z"></path>
                                            </g>
                                            <g>
                                                <use fill="#ED1651" fill-rule="evenodd" xlink:href="#path-3"></use>
                                                <path stroke="#ED1651" stroke-width="1" d="M76.0107077,21.5677617 L73.7138173,13.9732119 L80.0348105,9.17941234 L72.104217,9.01774627 L69.5,1.523302 L66.895783,9.01774627 L58.9651895,9.17941234 L65.2861827,13.9732119 L62.9892923,21.5677617 L69.5,17.0357338 L76.0107077,21.5677617 Z"></path>
                                            </g>
                                            <g>
                                                <use fill="#ED1651" fill-rule="evenodd" xlink:href="#path-4"></use>
                                                <path stroke="#ED1651" stroke-width="1" d="M104.769328,21.5677617 L102.472438,13.9732119 L108.793431,9.17941234 L100.862838,9.01774627 L98.2586207,1.523302 L95.6544037,9.01774627 L87.7238102,9.17941234 L94.0448034,13.9732119 L91.747913,21.5677617 L98.2586207,17.0357338 L104.769328,21.5677617 Z"></path>
                                            </g>
                                            <path d="M133.527949,21.5677617 L131.231059,13.9732119 L137.552052,9.17941234 L129.621458,9.01774627 L127.017241,1.523302 L124.413024,9.01774627 L116.482431,9.17941234 L122.803424,13.9732119 L120.506534,21.5677617 L127.017241,17.0357338 L133.527949,21.5677617 Z" stroke="#ED1651"></path>
                                        </g>
                                    </g>
                                </g>
                            </g>
                        </g>
                    </g>
                </g>
            </g>
        </g>
    </g>
</svg>
