<svg width="44px" height="64px" viewBox="0 0 44 64" version="1.1" xmlns="http://www.w3.org/2000/svg" xmlns:xlink="http://www.w3.org/1999/xlink">
    <desc></desc>
    <defs></defs>
    <g id="Profile" stroke="none" stroke-width="1" fill="none" fill-rule="evenodd">
        <g id="Profile-1440" transform="translate(-642.000000, -1755.000000)" stroke-width="1.2" stroke="#004B79">
            <g id="Group-30" transform="translate(120.000000, 244.000000)">
                <g id="Group-27" transform="translate(523.000000, 1512.000000)">
                    <g id="Page-1">
                        <path d="M30.5682578,60.2891277 L22.3069084,52.0809108 C22.0022819,51.7767904 21.7143542,51.0875855 21.7143542,50.6625253 L21.6738723,31.252453 C21.6738723,29.823947 22.8362096,28.6621157 24.2647157,28.6621157 C24.9569566,28.6621157 25.6071976,28.9318265 26.0965229,29.4216578 C26.5863542,29.9109831 26.8560651,30.5612241 26.8560651,31.252453 L26.8560651,41.2211277 L28.3741373,41.2211277 L28.3741373,31.252453 C28.3741373,30.1558988 27.946041,29.1241157 27.170306,28.3488867 C26.3945711,27.5716337 25.362788,27.1440434 24.2647157,27.1440434 C23.2835349,27.1440434 22.381294,27.4911759 21.6738723,28.0675373 L21.6738723,12.6965494 C21.6738723,11.2680434 22.8362096,10.106212 24.2647157,10.106212 C25.111294,10.106212 25.6765229,10.5140675 26.0039205,10.8586699 C26.4694627,11.344453 26.7735831,12.0275855 26.8606193,12.7825735 C27.3853663,17.392959 30.8344265,30.1498265 31.1851012,31.4412 L31.4912458,41.8587181 C31.517559,42.6668386 31.937559,43.7340434 32.4668602,44.3412723 L39.0097518,51.8476337 L30.5682578,60.2891277 Z M20.1558,28.0675373 C19.4483783,27.4911759 18.5466434,27.1440434 17.5649566,27.1440434 C16.4673904,27.1440434 15.4356072,27.5716337 14.6603783,28.3478747 C13.8836313,29.1241157 13.456041,30.1558988 13.456041,31.252453 L13.456041,41.2211277 L14.9741133,41.2211277 L14.9741133,31.252453 C14.9741133,30.5612241 15.2438241,29.9109831 15.7341614,29.4211518 C16.2229807,28.9318265 16.8732217,28.6621157 17.5649566,28.6621157 C18.9934627,28.6621157 20.1558,29.823947 20.1558,31.2509349 L20.1153181,50.6640434 C20.1153181,51.0875855 19.8273904,51.7767904 19.524788,52.0788867 L11.2619205,60.2891277 L2.82042651,51.8476337 L9.36281205,44.3417783 C9.89261928,43.7340434 10.3121133,42.6668386 10.3389325,41.8556819 L10.6445711,31.4412 C10.9957518,30.1498265 14.444306,17.392959 14.969053,12.7835855 C15.0565952,12.0275855 15.3607157,11.344453 15.8282819,10.8566458 C16.1536554,10.5140675 16.7188843,10.106212 17.5649566,10.106212 C18.9934627,10.106212 20.1558,11.2680434 20.1558,12.6965494 L20.1558,28.0675373 Z M33.6114867,43.3438988 C33.3109084,42.9992964 33.0234867,42.2675855 33.008306,41.8111518 L32.7001373,31.3060916 C32.6981133,31.2458747 32.6895108,31.1866699 32.6738241,31.1289831 C32.6702819,31.1163325 32.6343542,30.9832482 32.5711012,30.7499711 C31.9628602,28.4941157 28.8482819,16.8155855 28.3690771,12.6095133 C28.2440892,11.5266217 27.7932217,10.5317783 27.1019928,9.81069398 C26.3530771,9.02230843 25.3455831,8.58813976 24.2647157,8.58813976 C22.8827639,8.58813976 21.6602096,9.27633253 20.9148361,10.3258265 C20.1699687,9.27633253 18.9474145,8.58813976 17.5649566,8.58813976 C16.4845952,8.58813976 15.4771012,9.02230843 14.7302096,9.80816386 C14.0369566,10.5317783 13.5860892,11.5266217 13.4611012,12.6105253 C12.932306,17.2507663 9.19430602,30.9908386 9.15635422,31.1289831 C9.14066747,31.1866699 9.13206506,31.2458747 9.13004096,31.3060916 L8.82187229,41.8086217 C8.80669157,42.2675855 8.51926988,42.9992964 8.21869157,43.3444048 L1.21025783,51.3846217 C0.948137349,51.6852 0.963824096,52.1380916 1.24567952,52.419947 L10.7235108,61.8977783 C10.8717759,62.0460434 11.0655831,62.1199229 11.2598964,62.1199229 C11.4537036,62.1199229 11.6470048,62.0465494 11.7947639,61.8998024 L20.596041,53.154188 C20.7093904,53.0413446 20.8146434,52.9067422 20.9148361,52.7635373 C21.016041,52.9072482 21.1218,53.0428627 21.2356554,53.156212 L30.0349084,61.8998024 C30.1831735,62.0465494 30.3764747,62.1199229 30.5697759,62.1199229 C30.7640892,62.1199229 30.9584024,62.0460434 31.1066675,61.8977783 L40.5839928,52.419947 C40.8663542,52.1380916 40.882041,51.6852 40.6199205,51.3846217 L33.6114867,43.3438988 Z" id="Fill-1" fill="#6F6F6F"></path>
                        <path d="M33.7222554,5.28420723 C33.2769542,4.86319518 32.8119181,4.4604 32.3408096,4.08746024 L29.513147,7.65746024 C29.8815325,7.94943614 30.2453639,8.26468916 30.5945205,8.59461687 L33.7222554,5.28420723 Z" id="Fill-3" fill="#6F6F6F"></path>
                        <path d="M39.9220627,36.5499687 L35.6542554,34.961559 C35.4801831,35.4296313 35.2914361,35.8931494 35.0920627,36.3399687 L39.2530988,38.1915108 C39.4899181,37.6576554 39.7156048,37.1060892 39.9220627,36.5499687" id="Fill-5" fill="#6F6F6F"></path>
                        <path d="M40.0653687,15.2752482 C39.8675133,14.7191277 39.6509349,14.1650313 39.4212,13.6261157 L35.2323325,15.4144048 C35.4261398,15.8678024 35.6078024,16.3343566 35.7747904,16.8029349 L40.0653687,15.2752482 Z" id="Fill-7" fill="#6F6F6F"></path>
                        <path d="M20.5320289,4.57213012 C20.9145831,4.55138313 21.2941012,4.54885301 21.6705831,4.56453976 L21.8603422,0.0143710843 C21.3386313,-0.00738795181 20.8154024,-0.00435180723 20.2866072,0.0249975904 C20.1813542,0.0300578313 20.0755952,0.0366361446 19.9698361,0.0447325301 L20.3028,4.5862988 L20.5320289,4.57213012 Z" id="Fill-9" fill="#6F6F6F"></path>
                        <path d="M6.59759277,15.4146072 L2.40923133,13.6263181 C2.17949639,14.1647277 1.96241205,14.7193301 1.76455663,15.2754506 L6.05513494,16.8026313 C6.22212289,16.334053 6.40378554,15.8680048 6.59759277,15.4146072" id="Fill-11" fill="#6F6F6F"></path>
                        <path d="M4.55421687,25.6976747 C4.55421687,25.5104458 4.55573494,25.3242289 4.55978313,25.1390241 L0.00657831325,25.0489518 C0.00253012048,25.2645181 0,25.4800843 0,25.6976747 C0,26.0488554 0.00556626506,26.4030723 0.0161927711,26.7274337 L0.0187228916,26.8099157 L4.56838554,26.6115542 C4.55877108,26.3054096 4.55421687,26.0012892 4.55421687,25.6976747" id="Fill-13" fill="#6F6F6F"></path>
                        <g id="Group-17" transform="translate(36.939759, 24.674241)" fill="#004B79">
                            <path d="M4.88384096,0.374559036 L0.330636145,0.464631325 C0.334684337,0.649836145 0.33620241,0.836053012 0.33620241,1.02328193 C0.33620241,1.32689639 0.331648193,1.63101687 0.321527711,1.93716145 L4.87169639,2.13552289 L4.87372048,2.05304096 C4.88485301,1.72867952 4.89041928,1.37496867 4.89041928,1.02328193 C4.89041928,0.80619759 4.88788916,0.590125301 4.88384096,0.374559036" id="Fill-15"></path>
                        </g>
                        <path d="M1.90796386,36.5499687 C2.11442169,37.1060892 2.34010843,37.6576554 2.57692771,38.1915108 L6.73796386,36.3399687 C6.53859036,35.8931494 6.34984337,35.4296313 6.17577108,34.961559 L1.90796386,36.5499687 Z" id="Fill-18" fill="#004B79"></path>
                        <path d="M12.3170313,7.65771325 L9.48936867,4.08720723 C9.01775422,4.46065301 8.5532241,4.86344819 8.10792289,5.28446024 L11.2351518,8.59486988 C11.5848145,8.26443614 11.9481398,7.94918313 12.3170313,7.65771325" id="Fill-20" fill="#004B79"></path>
                    </g>
                </g>
            </g>
        </g>
    </g>
</svg>
