<?xml version="1.0" encoding="utf-8"?>
<!-- Generator: Adobe Illustrator 21.1.0, SVG Export Plug-In . SVG Version: 6.00 Build 0)  -->
<svg version="1.1" id="Layer_1" xmlns="http://www.w3.org/2000/svg" xmlns:xlink="http://www.w3.org/1999/xlink" x="0px" y="0px"
	 viewBox="0 0 295 295" style="enable-background:new 0 0 295 295;" xml:space="preserve">
<style type="text/css">
	.st0{fill:#2B7DB6;}
</style>
<g>
	<g>
		<path class="st0" d="M147.5,103.1c-5.2,0-8.7,3.5-8.7,8.7v62.6c0,5.2,3.5,8.7,8.7,8.7c5.2,0,8.7-3.5,8.7-8.7v-62.6
			C156.2,106.6,152.7,103.1,147.5,103.1z"/>
		<path class="st0" d="M152.7,212.7c-3.5-3.5-8.7-3.5-12.2,0c-1.7,1.7-1.7,5.2-1.7,7c0,3.5,0,5.2,1.7,7s5.2,1.7,7,1.7s5.2,0,3.5-1.7
			c1.7-1.7,3.5-5.2,3.5-7C154.4,216.2,154.4,214.5,152.7,212.7z"/>
		<path class="st0" d="M288.4,214.5L185.8,35.2c-7-13.9-22.6-22.6-38.3-22.6c-15.7,0-29.6,8.7-38.3,22.6L6.5,214.5
			c-8.7,13.9-8.7,31.3,0,45.2c7,13.9,22.6,22.6,38.3,22.6h205.3c17.4,0,31.3-8.7,38.3-22.6C297.1,245.8,297.1,228.4,288.4,214.5
			L288.4,214.5z M274.5,252.8c-3.5,8.7-12.2,13.9-22.6,13.9H44.8c-8.7,0-17.4-5.2-22.6-13.9s-5.2-19.1,0-27.8L124.9,45.7
			c3.5-8.7,12.2-13.9,22.6-13.9c10.4,0,19.1,5.2,24.4,13.9l102.7,179.2C279.7,233.6,279.7,244.1,274.5,252.8z"/>
	</g>
</g>
</svg>
