<svg width="49px" height="48px" viewBox="0 0 49 48" version="1.1" xmlns="http://www.w3.org/2000/svg" xmlns:xlink="http://www.w3.org/1999/xlink">
    <desc></desc>
    <defs></defs>
    <g id="Profile" stroke="none" stroke-width="1" fill="none" fill-rule="evenodd">
        <g id="Profile-1440" transform="translate(-120.000000, -938.000000)" fill-rule="nonzero" fill="#004B79">
            <g id="Group-30" transform="translate(120.000000, 244.000000)">
                <g id="Group-26" transform="translate(0.000000, 694.000000)">
                    <g id="Group-25">
                        <g id="Group">
                            <path d="M2,48 C1.91,48 1.82,47.985 1.715,47.97 C0.905,47.82 0.365,47.025 0.515,46.215 C0.56,45.99 1.55,40.74 2.03,38.67 C2.57,36.33 4.67,33.03 16.805,31.515 C17.495,31.425 18.185,31.845 18.41,32.535 C18.47,32.655 19.715,36 24.5,36 C29.36,36 30.56,32.565 30.575,32.52 C30.8,31.845 31.49,31.425 32.18,31.5 C44.255,33.015 46.415,36.12 46.955,38.67 C47.39,40.755 48.455,46.2 48.455,46.2 L45.515,46.77 C45.515,46.77 44.465,41.37 44.015,39.3 C43.46,36.69 37.865,35.325 32.855,34.62 C31.91,36.255 29.54,39 24.5,39 C19.46,39 17.09,36.255 16.13,34.635 C11.81,35.25 5.585,36.6 4.955,39.345 C4.49,41.37 3.47,46.74 3.47,46.785 C3.335,47.505 2.705,48 2,48 Z" id="Shape"></path>
                            <path d="M11,30.75 L10.865,30.75 C10.04,30.675 9.44,29.94 9.5,29.115 L11,11.865 C11.84,4.86 17.39,0 24.5,0 C31.49,0 37.16,4.965 37.985,11.82 L39.485,29.115 C39.56,29.94 38.945,30.675 38.12,30.735 C37.295,30.81 36.56,30.195 36.5,29.37 L35,12.12 C34.25,5.88 29.03,3 24.5,3 C19.97,3 14.75,5.88 13.985,12.18 L12.5,29.385 C12.425,30.165 11.765,30.75 11,30.75 Z" id="Shape"></path>
                            <path d="M12.5,48 C11.675,48 11,47.325 11,46.5 L11,45 C11,44.175 11.675,43.5 12.5,43.5 C13.325,43.5 14,44.175 14,45 L14,46.5 C14,47.325 13.325,48 12.5,48 Z" id="Shape"></path>
                            <path d="M36.5,48 C35.675,48 35,47.325 35,46.5 L35,45 C35,44.175 35.675,43.5 36.5,43.5 C37.325,43.5 38,44.175 38,45 L38,46.5 C38,47.325 37.325,48 36.5,48 Z" id="Shape"></path>
                            <path d="M24.5,28.5 C19.28,28.5 15.5,22.185 15.5,13.5 C15.5,12.675 16.175,12 17,12 C17.075,12 24.11,11.955 28.175,9.255 C28.865,8.79 29.795,8.985 30.26,9.675 C30.725,10.365 30.53,11.295 29.84,11.76 C26.255,14.145 21.095,14.775 18.545,14.955 C18.875,21.06 21.32,25.5 24.5,25.5 C27.92,25.5 30.5,20.34 30.5,13.5 C30.5,12.675 31.175,12 32,12 C32.825,12 33.5,12.675 33.5,13.5 C33.5,22.185 29.72,28.5 24.5,28.5 Z" id="Shape"></path>
                        </g>
                    </g>
                </g>
            </g>
        </g>
    </g>
</svg>
